<?xml version="1.0" encoding="UTF-8"?>
<svg version="1.1" xmlns="http://www.w3.org/2000/svg" width="400" height="400">
<path d="M0 0 C132 0 264 0 400 0 C400 132 400 264 400 400 C268 400 136 400 0 400 C0 268 0 136 0 0 Z " fill="#FDFEFE" transform="translate(0,0)"/>
<path d="M0 0 C3.02513662 1.3489436 5.80533562 3.01807897 8.625 4.75 C9.44677734 5.24008545 10.26855469 5.7301709 11.11523438 6.23510742 C13.75129488 7.8108071 16.37589041 9.4044914 19 11 C21.63871579 12.58972209 24.27936514 14.17619582 26.92016602 15.76245117 C28.63240019 16.79121759 30.3438343 17.82131684 32.05444336 18.8527832 C37.95227581 22.40129584 43.91950263 25.77361364 50 29 C56.1398017 32.34898275 62.18974262 35.84132133 68.22265625 39.37890625 C70.32596374 40.60657518 72.43673368 41.81222169 74.5625 43 C78.48151625 45.28015491 82.26751291 47.73279535 86.05859375 50.21875 C88.91535613 51.94874156 91.80785858 53.41810683 94.80200195 54.88818359 C98.90817866 56.96521667 102.88486563 59.27252926 106.875 61.5625 C107.77959961 62.08118652 108.68419922 62.59987305 109.61621094 63.13427734 C115.86571682 66.73455987 122.07936072 70.39112974 128.25 74.125 C129.40218018 74.81638062 129.40218018 74.81638062 130.57763672 75.52172852 C135.88089959 78.76179918 135.88089959 78.76179918 137 81 C137.10061185 83.07095691 137.13512224 85.14522005 137.14044189 87.21861267 C137.14489858 88.18580281 137.14489858 88.18580281 137.1494453 89.17253214 C137.15814803 91.34281762 137.15964185 93.51304804 137.16113281 95.68334961 C137.16575981 97.23540872 137.17078431 98.78746668 137.17617798 100.33952332 C137.18931386 104.56261169 137.19574904 108.78568416 137.20018864 113.00878978 C137.20311695 115.64509404 137.20722125 118.28139393 137.21169281 120.917696 C137.22536976 129.1600648 137.23503592 137.40242363 137.2388947 145.64480299 C137.2433786 155.17093078 137.26094099 164.6969153 137.2898953 174.22299951 C137.31148139 181.57929212 137.3215973 188.93554432 137.32293582 196.29186827 C137.3239859 200.68896298 137.32993671 205.08592307 137.34775543 209.48298454 C137.36418354 213.61734014 137.36641743 217.75145913 137.35761642 221.88583565 C137.35684326 223.40522519 137.36122536 224.92462717 137.37107468 226.44398499 C137.38371178 228.5144097 137.37796352 230.58398589 137.36749268 232.65440369 C137.36895924 233.814187 137.3704258 234.97397032 137.3719368 236.16889858 C137 239 137 239 135.60732651 240.81220341 C133.65375722 242.2558696 131.66155912 243.49508372 129.55078125 244.69921875 C128.70322266 245.18583984 127.85566406 245.67246094 126.98242188 246.17382812 C126.10134766 246.67333984 125.22027344 247.17285156 124.3125 247.6875 C123.41982422 248.19861328 122.52714844 248.70972656 121.60742188 249.23632812 C119.40735735 250.49518858 117.20485553 251.74955596 115 253 C109.2162689 247.63398282 107.50550313 238.79694624 105.203125 231.4609375 C103.08047923 224.8509441 100.60672205 218.43027246 98 212 C95.42955475 205.65890388 93.0014884 199.33093787 90.91015625 192.8125 C89.08091136 187.15989777 87.02199387 181.58592114 85 176 C84.72704102 175.24557617 84.45408203 174.49115234 84.17285156 173.71386719 C82.18908745 168.23604784 80.1961061 162.76162206 78.19921875 157.28857422 C77.11832752 154.32448527 76.03947611 151.35965992 74.9609375 148.39471436 C68.26277964 129.90223455 68.26277964 129.90223455 61.0234375 111.6171875 C60.16054255 109.41054774 59.49773308 107.31169363 59 105 C57.68 104.67 56.36 104.34 55 104 C54.60554687 105.20140625 54.21109375 106.4028125 53.8046875 107.640625 C51.66976356 114.04289398 49.39566087 120.39487708 47.125 126.75 C46.70347656 127.9359375 46.28195313 129.121875 45.84765625 130.34375 C45.42613281 131.52453125 45.00460938 132.7053125 44.5703125 133.921875 C44.15297852 135.09556641 43.73564453 136.26925781 43.30566406 137.47851562 C42.43011518 139.83994365 41.50398492 142.18318547 40.53027344 144.50585938 C36.5649218 154.00406861 36.61138493 159.14104025 40.4296875 168.66210938 C40.74164063 169.41298828 41.05359375 170.16386719 41.375 170.9375 C43.51140969 176.1834721 45.50243103 181.41890326 47.25830078 186.80493164 C48.45304616 190.34079594 49.86042871 193.7872138 51.25 197.25 C54.31441043 204.99349138 57.02435033 212.82549627 59.60253906 220.74316406 C61.06348906 225.22700942 62.5916281 229.66346495 64.27197266 234.06982422 C65.51240809 237.35851722 66.65570015 240.68117029 67.8125 244 C69.38895579 248.51937422 70.99177536 253.02150384 72.72265625 257.484375 C72.99940186 258.20109375 73.27614746 258.9178125 73.5612793 259.65625 C74.09068838 261.01844992 74.62696079 262.37800898 75.17114258 263.734375 C77.71032181 270.28049669 77.71032181 270.28049669 77 274 C75.171875 275.765625 75.171875 275.765625 72.75 277.25 C71.96109375 277.75015625 71.1721875 278.2503125 70.359375 278.765625 C68.18899074 279.90112405 66.3666964 280.45978938 64 281 C62.74854175 277.72972282 61.49911419 274.45867316 60.25 271.1875 C59.72792969 269.82334961 59.72792969 269.82334961 59.1953125 268.43164062 C55.60914435 259.03455185 52.20252946 249.57532914 48.80395508 240.10913086 C45.66766453 231.37511378 42.52075899 222.64537216 39.3125 213.9375 C39.03422363 213.18146484 38.75594727 212.42542969 38.46923828 211.64648438 C37.07929678 207.88209361 35.6701643 204.12606277 34.234375 200.37890625 C33.95295654 199.64099854 33.67153809 198.90309082 33.3815918 198.14282227 C32.85105254 196.75488097 32.31632146 195.36853178 31.77661133 193.98413086 C30.69667032 191.15712818 30 189.05705834 30 186 C28.35 186.33 26.7 186.66 25 187 C24.63648438 188.14275391 24.63648438 188.14275391 24.265625 189.30859375 C22.69860231 194.13622904 21.1385393 198.89195698 19 203.5 C17.02935051 207.76974057 15.58309101 212.12935582 14.15234375 216.60546875 C13.2886193 219.14979602 12.37543424 221.6216731 11.37890625 224.11328125 C10.9600415 225.17276978 10.9600415 225.17276978 10.53271484 226.25366211 C9.9810826 227.63816026 9.41808071 229.01819769 8.84228516 230.39282227 C6.00197396 237.57846652 8.16447 242.93790103 10.73046875 249.8984375 C11.00337234 250.65105865 11.27627594 251.40367981 11.55744934 252.17910767 C12.42929534 254.57953134 13.30835418 256.97724162 14.1875 259.375 C14.75892101 260.94644831 15.32988832 262.51806168 15.90039062 264.08984375 C19.23917865 273.27403389 19.23917865 273.27403389 22.69384766 282.41503906 C25.30591949 289.20799583 27.7152589 295.80544983 29 303 C27.88757935 303.62044189 27.88757935 303.62044189 26.75268555 304.25341797 C23.99578642 305.79182082 21.23950783 307.331328 18.48364258 308.87158203 C17.29183222 309.53738882 16.0997771 310.20275769 14.9074707 310.86767578 C13.19157316 311.82468742 11.47663386 312.78341652 9.76171875 313.7421875 C8.2142395 314.60626221 8.2142395 314.60626221 6.63549805 315.48779297 C4.7156323 316.58938152 2.84170566 317.77219623 1 319 C-5.35437711 319.8918424 -8.63798696 318.45325342 -13.92578125 315 C-17.91463873 312.40496184 -22.01550731 310.02273567 -26.125 307.625 C-27.62784541 306.74259824 -29.13046823 305.85981721 -30.6328125 304.9765625 C-31.74398437 304.32429688 -32.85515625 303.67203125 -34 303 C-33.35349226 297.77820674 -31.74410979 293.25113605 -29.875 288.375 C-29.23546212 286.67635164 -28.59749042 284.97711295 -27.9609375 283.27734375 C-27.63448242 282.40577637 -27.30802734 281.53420898 -26.97167969 280.63623047 C-25.4193466 276.42464939 -23.96244142 272.18094357 -22.5 267.9375 C-19.97223151 260.62967931 -17.25558082 253.41736731 -14.4140625 246.22631836 C-12.82372717 242.18256696 -11.33546895 238.13711232 -10 234 C-8.41361334 229.08557664 -6.58432642 224.30031099 -4.6875 219.5 C-1.81980288 212.23152628 0.82462242 204.90615206 3.37866211 197.5222168 C5.31638682 191.92859048 7.31561546 186.36244688 9.375 180.8125 C14.96161371 165.74133982 20.40829643 150.61909747 25.6875 135.4375 C33.328909 113.49989637 33.328909 113.49989637 37.1875 105.125 C38.87599032 101.45856388 39.98386825 97.77252691 41.0703125 93.890625 C42.46882701 89.54230256 44.26808737 85.35682307 46.10693359 81.17724609 C47.60837036 77.6196361 48.16485438 75.66739317 47 72 C41.80387722 71.97526018 36.60778882 71.95712108 31.41162109 71.94506836 C29.64436241 71.94004313 27.87710788 71.93322191 26.10986328 71.92456055 C23.56802343 71.91241572 21.0262386 71.90675355 18.484375 71.90234375 C17.69569031 71.89718246 16.90700562 71.89202118 16.09442139 71.88670349 C12.55463597 71.88634242 9.40499206 72.04604112 6 73 C5.89042969 73.58007812 5.78085938 74.16015625 5.66796875 74.7578125 C4.67479585 79.6510058 3.27806762 83.53498746 1 88 C0.52976096 89.47234786 0.08884839 90.95419635 -0.33203125 92.44140625 C-2.0765448 98.3800727 -4.13902915 104.18309251 -6.25 110 C-6.64477539 111.0928833 -7.03955078 112.1857666 -7.44628906 113.31176758 C-10.0701314 120.53898141 -12.79222118 127.72095346 -15.61181641 134.8737793 C-17.80068378 140.43699026 -19.8281704 146.04782639 -21.8125 151.6875 C-23.03040812 155.08482266 -24.31694895 158.44894015 -25.625 161.8125 C-27.89012673 167.65525679 -29.91396578 173.53759386 -31.7890625 179.515625 C-33.82123052 185.84185239 -36.17575044 191.97854381 -38.6875 198.125 C-42.38933588 207.19900167 -45.61300417 216.40255701 -48.77075195 225.67797852 C-51.2375593 232.89232789 -53.90019348 239.9727237 -56.796875 247.0234375 C-58.71695259 251.77375934 -60.2552452 256.62123093 -61.78515625 261.5078125 C-64.21264044 269.0529798 -67.09101984 276.37563324 -70.09448242 283.70629883 C-72.28290922 289.07643935 -74.22726108 294.47926488 -76 300 C-76.33 300.99 -76.66 301.98 -77 303 C-82.31027254 301.53967505 -86.46330032 299.01679014 -91 296 C-90.33428146 292.14733098 -89.23108071 288.66411211 -87.875 285 C-85.28817873 277.89936306 -82.90475997 270.741821 -80.58740234 263.54882812 C-78.95073271 258.55237876 -77.08710508 253.77011659 -74.89916992 248.98950195 C-73.78894448 246.53301889 -72.84249247 244.03868017 -71.9375 241.5 C-71.60363281 240.56542969 -71.26976563 239.63085938 -70.92578125 238.66796875 C-70.13514219 236.3894604 -69.3718928 234.10559192 -68.625 231.8125 C-67.00955467 226.89592727 -65.16588646 222.06691516 -63.33691406 217.22705078 C-61.20579421 211.57787091 -59.16084192 205.90078896 -57.140625 200.2109375 C-54.95413162 194.05580887 -52.71406072 187.92068035 -50.44140625 181.796875 C-47.32473236 173.38937089 -44.26302669 164.96742181 -41.3125 156.5 C-41.01553223 155.64792969 -40.71856445 154.79585937 -40.41259766 153.91796875 C-40.12690918 153.098125 -39.8412207 152.27828125 -39.546875 151.43359375 C-36.20508251 141.84488249 -32.62894013 132.35359023 -28.99243164 122.87329102 C-26.97162943 117.5953434 -25.0053583 112.3009483 -23.08447266 106.98583984 C-21.86642484 103.63223227 -20.62614064 100.28717054 -19.38671875 96.94140625 C-18.4865289 94.48193559 -17.58679491 92.02229803 -16.6875 89.5625 C-16.45313232 88.93480713 -16.21876465 88.30711426 -15.97729492 87.66040039 C-15.29114803 85.82031155 -14.61995464 83.97466838 -13.94921875 82.12890625 C-13.55049561 81.04681885 -13.15177246 79.96473145 -12.7409668 78.84985352 C-12.00206785 76.00795321 -11.96252365 74.69776438 -13 72 C-18.21442276 71.9505814 -23.42870934 71.91427169 -28.64331055 71.89013672 C-30.41742324 71.88007589 -32.19151935 71.86642578 -33.96557617 71.84912109 C-36.51485284 71.82487622 -39.06391037 71.81351782 -41.61328125 71.8046875 C-42.40712723 71.79436493 -43.20097321 71.78404236 -44.01887512 71.77340698 C-47.88223043 71.7726189 -49.70839446 71.80559631 -53 74 C-54.36163501 76.78767839 -54.36163501 76.78767839 -55.5 80.0625 C-56.15162109 81.83367187 -56.15162109 81.83367187 -56.81640625 83.640625 C-57.96675162 86.90563165 -59.07073976 90.17943623 -60.13671875 93.47265625 C-61.26052744 96.76272061 -62.51003444 100.00250909 -63.75 103.25 C-66.14217702 109.52825028 -68.29585643 115.86187259 -70.375 122.25 C-72.94995075 130.13524962 -75.86661186 137.80913035 -79.01904297 145.47949219 C-81.77854077 152.26575354 -84.09334942 159.15025353 -86.34667969 166.11816406 C-88.6848651 173.26069397 -91.37909051 180.22100775 -94.24804688 187.16601562 C-96.10838656 191.68180951 -97.77844434 196.2076949 -99.28955078 200.85205078 C-100.37181104 204.12412148 -101.58852691 207.34132158 -102.8125 210.5625 C-103.06749268 211.23869385 -103.32248535 211.9148877 -103.58520508 212.61157227 C-104.65809899 215.45653093 -105.7349794 218.29997568 -106.81152344 221.14355469 C-109.67733704 228.71972374 -112.51780224 236.28745697 -115 244 C-115.56094159 245.68801867 -116.12343339 247.37552301 -116.6875 249.0625 C-116.93886719 249.81660156 -117.19023438 250.57070313 -117.44921875 251.34765625 C-117.63097656 251.89292969 -117.81273438 252.43820312 -118 253 C-122.11120199 251.42715378 -126.05921475 249.57855166 -130 247.625 C-130.90492188 247.18800781 -130.90492188 247.18800781 -131.828125 246.7421875 C-135.6371267 244.85424753 -138.96611424 242.98802917 -142 240 C-142.62361908 237.01740932 -142.62361908 237.01740932 -142.62145996 233.46495056 C-142.62784878 232.81028118 -142.6342376 232.1556118 -142.64082003 231.48110396 C-142.65607347 229.28878139 -142.63561005 227.09826527 -142.61523438 224.90600586 C-142.61873549 223.33394268 -142.62439396 221.76188303 -142.63204956 220.18983459 C-142.6463077 215.92117617 -142.62922708 211.65316109 -142.60576439 207.38456416 C-142.58567423 202.92032392 -142.59153393 198.45611087 -142.59387207 193.99183655 C-142.59381848 186.49567028 -142.57405171 178.99975597 -142.54199219 171.50366211 C-142.50508526 162.83189474 -142.49631829 154.16045731 -142.5032897 145.48862165 C-142.50959005 137.15170193 -142.49884997 128.81489558 -142.47932434 120.47799873 C-142.47114061 116.92740834 -142.46844257 113.37687582 -142.47001648 109.82627678 C-142.47089402 105.64751214 -142.45671479 101.46906213 -142.43078995 97.29038048 C-142.42361478 95.75488561 -142.421551 94.2193573 -142.42490768 92.68384933 C-142.42860973 90.59157772 -142.41392137 88.50023086 -142.39440918 86.4080658 C-142.39068047 85.23613143 -142.38695175 84.06419706 -142.38311005 82.85674953 C-142 80 -142 80 -140.60422516 78.18169498 C-138.66003016 76.7495734 -136.67982595 75.54071952 -134.5703125 74.36328125 C-133.69874512 73.87230957 -132.82717773 73.38133789 -131.92919922 72.87548828 C-131.00381348 72.35970215 -130.07842773 71.84391602 -129.125 71.3125 C-122.975839 67.84725584 -116.86246315 64.36354885 -110.875 60.625 C-106.43543542 57.85733251 -101.94208891 55.29070943 -97.33203125 52.8203125 C-89.98548604 48.80684232 -82.75115777 44.58969095 -75.48974609 40.42480469 C-73.32572244 39.18640088 -71.15848286 37.95409498 -68.98828125 36.7265625 C-63.36444418 33.54233152 -57.80257256 30.28618225 -52.3125 26.875 C-47.73216369 24.03354586 -43.10434427 21.3783264 -38.35546875 18.83203125 C-33.64140244 16.25822788 -28.97736156 13.59921513 -24.3125 10.9375 C-23.42111328 10.43057617 -22.52972656 9.92365234 -21.61132812 9.40136719 C-20.74572266 8.90668945 -19.88011719 8.41201172 -18.98828125 7.90234375 C-18.14346191 7.42007324 -17.29864258 6.93780273 -16.42822266 6.44091797 C-14.13434585 5.07972142 -11.9408957 3.62019644 -9.73046875 2.12890625 C-6.27577383 -0.01062205 -4.1241996 -0.82696033 0 0 Z " fill="#213249" transform="translate(199,38)"/>
<path d="M0 0 C1.31140375 0.81556746 2.62391215 1.62936127 3.9375 2.44140625 C4.57429687 2.83730957 5.21109375 3.23321289 5.8671875 3.64111328 C8.36484961 5.16262365 10.92217578 6.55704584 13.5 7.9375 C17.85258082 10.27177297 22.0824526 12.76308253 26.3046875 15.32421875 C29.2164125 17.06648043 32.17717313 18.70587989 35.1484375 20.34375 C42.61552789 24.47936929 50.0490326 28.62722272 57.1875 33.3125 C63.41034637 37.34944369 70.01165044 40.54364306 76.6875 43.75 C76.6875 44.41 76.6875 45.07 76.6875 45.75 C77.533125 45.9975 78.37875 46.245 79.25 46.5 C83.00126423 47.86409608 86.26459854 49.73437373 89.6875 51.75 C90.29859619 52.10819824 90.90969238 52.46639648 91.53930664 52.83544922 C93.50713653 53.99149505 95.47247252 55.15169767 97.4375 56.3125 C104.62970907 60.55512672 111.84923131 64.7486982 119.09082031 68.90649414 C122.77079219 71.02713566 126.43338173 73.17356195 130.05859375 75.38671875 C130.68564209 75.76916748 131.31269043 76.15161621 131.95874023 76.5456543 C133.77192765 77.80881678 135.24447326 79.07564625 136.6875 80.75 C136.6875 81.41 136.6875 82.07 136.6875 82.75 C137.3475 82.75 138.0075 82.75 138.6875 82.75 C141.97819258 88.90216439 142.81074291 93.61384907 142.82794189 100.55474854 C142.83239858 101.56231079 142.83239858 101.56231079 142.8369453 102.59022784 C142.84559497 104.83392767 142.84713737 107.07757391 142.84863281 109.32128906 C142.85326363 110.93302015 142.85828865 112.54475015 142.86367798 114.15647888 C142.87677863 118.53061413 142.88324239 122.90473405 142.88768864 127.27888584 C142.89062317 130.01391619 142.8947287 132.74894239 142.89919281 135.48397064 C142.91286166 144.04777101 142.92253128 152.61156184 142.9263947 161.17537236 C142.93087392 171.04892101 142.94841807 180.92233111 142.9773953 190.79583764 C142.99903671 198.43593383 143.0091003 206.07599111 143.01043582 213.71611762 C143.01148209 218.27544216 143.01735206 222.83463636 143.03525543 227.39392853 C143.05177867 231.68510795 143.05387107 235.97605963 143.04511642 240.2672596 C143.04434832 241.83734562 143.04865876 243.40744411 143.05857468 244.97749901 C143.12368802 255.93474831 142.85113455 265.48983969 134.90234375 273.8125 C130.95647404 277.26426609 126.56389643 279.82749757 122.02050781 282.41845703 C119.19002232 284.03393086 116.37272372 285.67150178 113.5546875 287.30859375 C103.27779974 293.26788844 92.96758213 299.16895315 82.6484375 305.0546875 C75.93031001 308.90121432 69.2447516 312.79894981 62.625 316.8125 C58.36418236 319.37982891 54.02381728 321.76741111 49.6484375 324.1328125 C36.34442795 331.39911851 23.27372347 339.14097243 10.3125 347 C5.19502483 350.08271115 -0.03006436 352.96031136 -5.3125 355.75 C-6.26898438 356.28882813 -7.22546875 356.82765625 -8.2109375 357.3828125 C-14.46430893 360.13933643 -21.87786214 360.22506078 -28.37353516 358.06445312 C-33.23708452 356.02322041 -37.77094208 353.41664611 -42.3125 350.75 C-43.48969048 350.08641738 -44.66802547 349.42485981 -45.84765625 348.765625 C-50.18740309 346.29782242 -54.36839466 343.8186614 -58.3125 340.75 C-56.91366918 335.50438443 -55.14174273 330.4738167 -53.21484375 325.3984375 C-52.34873213 322.85634365 -51.77512677 320.39221888 -51.3125 317.75 C-49.63994141 318.80960937 -49.63994141 318.80960937 -47.93359375 319.890625 C-42.29883558 323.41281459 -36.52859041 326.69323092 -30.76367188 329.99609375 C-29.94576172 330.46660156 -29.12785156 330.93710937 -28.28515625 331.421875 C-27.17539429 332.05754395 -27.17539429 332.05754395 -26.04321289 332.70605469 C-24.3125 333.75 -24.3125 333.75 -23.3125 334.75 C-16.38573637 335.4465033 -12.62739187 333.77519914 -6.875 330.0625 C-5.38575925 329.14397557 -3.89617895 328.22600143 -2.40625 327.30859375 C-1.70113281 326.86628418 -0.99601563 326.42397461 -0.26953125 325.96826172 C2.16019689 324.45574383 4.62805649 323.02345051 7.125 321.625 C8.11306641 321.06425781 8.11306641 321.06425781 9.12109375 320.4921875 C10.6875 319.75 10.6875 319.75 12.6875 319.75 C9.84859291 311.61582649 6.9923853 303.49366895 3.9375 295.4375 C1.24880232 288.32402193 -1.36059259 281.18184695 -3.93835449 274.02749634 C-4.61334091 272.15730397 -5.29344281 270.28896041 -5.97363281 268.4206543 C-6.3909668 267.25832275 -6.80830078 266.09599121 -7.23828125 264.8984375 C-7.61380127 263.85864746 -7.98932129 262.81885742 -8.3762207 261.74755859 C-9.95761286 256.68462955 -10.93098134 253.11394264 -8.65625 248.1875 C-6.9676175 244.31118898 -5.46160878 240.43957446 -4.09375 236.4375 C-3.71863281 235.34179688 -3.34351563 234.24609375 -2.95703125 233.1171875 C-2.57933594 232.00601563 -2.20164063 230.89484375 -1.8125 229.75 C4.77700477 210.3638119 4.77700477 210.3638119 8.6875 202.75 C10.3375 202.75 11.9875 202.75 13.6875 202.75 C20.37798063 220.83550671 20.37798063 220.83550671 23.125 228.625 C25.19130749 234.456881 27.39991358 240.22705595 29.625 246 C32.48626586 253.43420573 35.13084988 260.90693071 37.60253906 268.47875977 C40.2053679 276.41881982 43.10182093 284.23703677 46.5 291.875 C47.6875 294.75 47.6875 294.75 47.6875 297.75 C49.12588552 296.95994338 50.56317415 296.16788955 52 295.375 C52.80050781 294.93414062 53.60101563 294.49328125 54.42578125 294.0390625 C56.22277943 293.01486665 57.96650708 291.89732862 59.6875 290.75 C59.15604482 283.92160613 57.23778681 278.13050365 54.8125 271.75 C54.46058594 270.80382812 54.10867188 269.85765625 53.74609375 268.8828125 C52.46614567 265.44741281 51.16885727 262.01874586 49.8684082 258.59106445 C48.03359579 253.73519533 46.31855006 248.8441934 44.625 243.9375 C40.53691789 232.16891533 36.17827842 220.50220483 31.82739258 208.82885742 C30.74546189 205.90655544 29.68244073 202.978112 28.625 200.046875 C27.38066309 196.60789531 26.08570416 193.19753757 24.73046875 189.80078125 C24.26930664 188.62225586 24.26930664 188.62225586 23.79882812 187.41992188 C23.17634091 185.83146084 22.54061115 184.24813352 21.89257812 182.66992188 C18.76638073 174.54984172 19.9680514 168.90583608 23.1875 160.8125 C23.72744081 159.43184029 24.26503019 158.05025964 24.80078125 156.66796875 C25.09807129 155.90274902 25.39536133 155.1375293 25.70166016 154.34912109 C28.08736279 148.05932657 30.2911703 141.69990753 32.52734375 135.35571289 C34.32300622 130.31608184 36.12517793 125.45165763 38.6875 120.75 C41.0078125 120.78515625 41.0078125 120.78515625 43.6875 121.75 C44.93090753 124.29617372 45.76584812 126.49998187 46.5625 129.1875 C47.06737796 130.7483481 47.57529254 132.3082166 48.0859375 133.8671875 C48.47604004 135.07906738 48.47604004 135.07906738 48.87402344 136.31542969 C50.17291553 140.20275019 51.6768441 144.00354231 53.1875 147.8125 C53.78184047 149.32659127 54.37559392 150.8409131 54.96875 152.35546875 C55.401875 153.46027588 55.401875 153.46027588 55.84375 154.58740234 C59.87611695 164.92267621 63.64387511 175.34260903 67.24023438 185.83740234 C68.48562844 189.44598268 69.75778697 193.00356649 71.29296875 196.5 C72.53356194 199.39124239 73.46348103 202.16447791 74.3125 205.1875 C77.22570415 214.90947199 80.97850698 224.33481959 84.58422852 233.81591797 C86.03217028 237.66662921 87.42979424 241.53467354 88.81811523 245.40722656 C89.56545368 247.42111585 90.39972532 249.40236274 91.25 251.375 C92.67577741 254.72247739 93.83513605 258.07649927 94.94140625 261.5390625 C95.76618854 263.98318173 96.7116248 266.36266583 97.6875 268.75 C99.33359493 267.85464743 100.97935868 266.95868601 102.625 266.0625 C103.62273437 265.51980469 104.62046875 264.97710937 105.6484375 264.41796875 C109.09144917 262.52829525 112.50549907 260.5906443 115.91015625 258.6328125 C117.6875 257.75 117.6875 257.75 119.6875 257.75 C119.75752206 236.94042749 119.81045477 216.13087434 119.84293652 195.321208 C119.85841794 185.65932977 119.87953178 175.99752466 119.91381836 166.33569336 C119.94368172 157.91630786 119.96306572 149.4969753 119.96976548 141.07753831 C119.97368295 136.61780484 119.9829159 132.15822284 120.00469017 127.69853783 C120.02500701 123.50348662 120.03134359 119.30864973 120.02682304 115.113554 C120.02765041 113.57158495 120.03364468 112.02960895 120.04511642 110.48768234 C120.05998596 108.38651657 120.05647463 106.28616591 120.04826355 104.1849823 C120.05102893 103.00785266 120.05379431 101.83072302 120.05664349 100.61792278 C119.93113888 97.7575995 119.93113888 97.7575995 118.3100481 95.94148731 C116.16037583 94.3629164 113.94733309 93.00956731 111.63671875 91.67578125 C110.63463379 91.09441406 109.63254883 90.51304688 108.60009766 89.9140625 C107.53581543 89.30304688 106.4715332 88.69203125 105.375 88.0625 C104.29009277 87.43472656 103.20518555 86.80695313 102.08740234 86.16015625 C95.26997361 82.21970483 88.43529347 78.3095032 81.58984375 74.41796875 C78.02837487 72.37120265 74.513985 70.25188566 71 68.125 C67.96833164 66.32238638 64.88849885 64.61583615 61.79296875 62.92578125 C59.39196389 61.58496035 57.04211131 60.17063935 54.6875 58.75 C48.25022075 54.9448089 41.77241283 51.21920226 35.25 47.5625 C20.80002333 39.45877312 6.42007021 31.23599561 -7.84375 22.80859375 C-8.44574219 22.45651855 -9.04773438 22.10444336 -9.66796875 21.74169922 C-11.11310221 20.87024255 -12.5141661 19.92656916 -13.90625 18.97265625 C-16.96423701 17.41884142 -18.90384571 17.49450913 -22.3125 17.75 C-24.84476045 18.76832534 -24.84476045 18.76832534 -27.21875 20.3125 C-28.12004639 20.85793457 -29.02134277 21.40336914 -29.94995117 21.96533203 C-30.89459229 22.55427246 -31.8392334 23.14321289 -32.8125 23.75 C-34.79773661 24.95645428 -36.78341282 26.16218547 -38.76953125 27.3671875 C-39.72682129 27.95338867 -40.68411133 28.53958984 -41.67041016 29.14355469 C-44.9148315 31.11623002 -48.1950912 33.00547762 -51.5 34.875 C-56.95442889 37.97128658 -62.38708186 41.10315068 -67.8125 44.25 C-73.19787623 47.37294666 -78.58880138 50.48451004 -84 53.5625 C-90.35798862 57.18714772 -96.68015228 60.87180768 -103 64.5625 C-112.6044756 70.17131713 -122.21304315 75.77240352 -131.84863281 81.32763672 C-133.6120688 82.34564881 -135.3743034 83.36574313 -137.13574219 84.38720703 C-140.04646146 86.07476903 -142.96041322 87.75662833 -145.875 89.4375 C-146.78660889 89.96746582 -147.69821777 90.49743164 -148.63745117 91.04345703 C-149.48025635 91.5279834 -150.32306152 92.01250977 -151.19140625 92.51171875 C-152.31397827 93.160802 -152.31397827 93.160802 -153.45922852 93.82299805 C-155.3125 94.75 -155.3125 94.75 -157.3125 94.75 C-157.54610396 115.76827919 -157.72244391 136.78634436 -157.83062172 157.80565834 C-157.8821861 167.56537902 -157.95248335 177.32429314 -158.06689453 187.08349609 C-158.1665689 195.58971293 -158.23108196 204.09534571 -158.25338495 212.60213029 C-158.26642303 217.1067824 -158.29705512 221.6097637 -158.36980057 226.11388016 C-158.43773711 230.35464815 -158.45860724 234.5930596 -158.44357681 238.83432007 C-158.4463257 240.38966057 -158.46619229 241.94508065 -158.50455475 243.49995041 C-158.61150291 248.05868837 -158.59271138 252.32982581 -157.3125 256.75 C-154.33532838 259.79039233 -151.24186601 261.2340117 -147.3125 262.75 C-146.02862907 263.43656548 -144.75370711 264.14036909 -143.4921875 264.8671875 C-142.40164062 265.44726562 -141.31109375 266.02734375 -140.1875 266.625 C-139.07117188 267.22054688 -137.95484375 267.81609375 -136.8046875 268.4296875 C-135.98226562 268.86539062 -135.15984375 269.30109375 -134.3125 269.75 C-134.9725 270.08 -135.6325 270.41 -136.3125 270.75 C-136.68545742 272.74299119 -137.01126644 274.7449141 -137.3125 276.75 C-137.93817434 278.84600903 -138.60520049 280.93010879 -139.3125 283 C-139.663125 284.03640625 -140.01375 285.0728125 -140.375 286.140625 C-141.3125 288.75 -141.3125 288.75 -142.3125 290.75 C-147.16238112 290.38625892 -150.15225108 288.82744411 -154.09765625 286.21484375 C-156.52430623 284.60991652 -159.00076151 283.11414508 -161.5 281.625 C-162.29792969 281.14804687 -163.09585938 280.67109375 -163.91796875 280.1796875 C-165.5874722 279.18288772 -167.26672257 278.20231012 -168.953125 277.234375 C-175.48369348 273.1257392 -179.07174832 265.85808274 -180.85352707 258.52263165 C-181.3782571 255.35276476 -181.44471663 252.35568045 -181.45294189 249.14179993 C-181.45591302 248.49121508 -181.45888414 247.84063024 -181.4619453 247.1703307 C-181.47059212 244.9980621 -181.47213713 242.82584887 -181.47363281 240.65356445 C-181.47826389 239.0927163 -181.48328894 237.53186928 -181.48867798 235.97102356 C-181.50177734 231.73524652 -181.50824229 227.49948531 -181.51268864 223.26369119 C-181.51562374 220.61441795 -181.5197294 217.96514899 -181.52419281 215.31587791 C-181.53786213 207.01850954 -181.54753118 198.72115101 -181.5513947 190.42377216 C-181.55587222 180.86152432 -181.57340823 171.29941966 -181.6023953 161.73721534 C-181.62404952 154.33574264 -181.634101 146.93431012 -181.63543582 139.5328061 C-181.6364813 135.11708864 -181.64233404 130.70150588 -181.66025543 126.28582191 C-181.67680062 122.12842367 -181.67886054 117.97126042 -181.67011642 113.81384087 C-181.66934945 112.29416395 -181.67364363 110.77447406 -181.68357468 109.25482941 C-181.75952192 96.90168935 -180.94509643 87.32202202 -172.1015625 78.1328125 C-167.54957839 74.24386249 -162.55720182 71.57322903 -157.26196289 68.80859375 C-154.10473125 67.09415964 -151.04829299 65.21576165 -147.97485352 63.35644531 C-134.00427866 54.92669909 -119.81241181 46.87687027 -105.55517578 38.94482422 C-96.68371489 33.99366704 -87.93787957 28.84626013 -79.20703125 23.65234375 C-72.95535709 19.93503451 -66.64158452 16.33366147 -60.3125 12.75 C-57.99897219 11.43926411 -55.68634624 10.12706611 -53.375 8.8125 C-52.22902344 8.16152344 -51.08304688 7.51054687 -49.90234375 6.83984375 C-47.36349177 5.37914401 -44.86508161 3.86500112 -42.37890625 2.31640625 C-41.72075928 1.90962646 -41.0626123 1.50284668 -40.38452148 1.08374023 C-39.1295949 0.30466293 -37.87992653 -0.48298107 -36.63696289 -1.28100586 C-24.57899383 -8.74738086 -11.62763193 -7.47170121 0 0 Z " fill="#9ECBEB" transform="translate(215.3125,21.25)"/>
<path d="M0 0 C2.3203125 0.03515625 2.3203125 0.03515625 5 1 C6.24340753 3.54617372 7.07834812 5.74998187 7.875 8.4375 C8.37987796 9.9983481 8.88779254 11.5582166 9.3984375 13.1171875 C9.65850586 13.92510742 9.91857422 14.73302734 10.18652344 15.56542969 C11.48541553 19.45275019 12.9893441 23.25354231 14.5 27.0625 C15.09434047 28.57659127 15.68809392 30.0909131 16.28125 31.60546875 C16.57 32.34200684 16.85875 33.07854492 17.15625 33.83740234 C21.18861695 44.17267621 24.95637511 54.59260903 28.55273438 65.08740234 C29.79812844 68.69598268 31.07028697 72.25356649 32.60546875 75.75 C33.84606194 78.64124239 34.77598103 81.41447791 35.625 84.4375 C38.53820415 94.15947199 42.29100698 103.58481959 45.89672852 113.06591797 C47.34467028 116.91662921 48.74229424 120.78467354 50.13061523 124.65722656 C50.87795368 126.67111585 51.71222532 128.65236274 52.5625 130.625 C55.23963705 136.91045221 57.18058393 143.42211114 59 150 C57.329375 150.804375 57.329375 150.804375 55.625 151.625 C51.5736658 153.6506671 47.72413186 155.92669438 43.859375 158.28515625 C39.89024049 160.66555249 35.86075096 162.9367387 31.82177734 165.19628906 C28.71447155 166.95148024 25.79416132 168.77705885 23 171 C22.34 170.67 21.68 170.34 21 170 C20.78964523 168.14544368 20.58304142 166.29039828 20.39355469 164.43359375 C19.63739815 159.7578069 17.80182566 155.41143382 16.125 151 C15.59712891 149.58074219 15.59712891 149.58074219 15.05859375 148.1328125 C13.77864567 144.69741281 12.48135727 141.26874586 11.1809082 137.84106445 C9.34609579 132.98519533 7.63105006 128.0941934 5.9375 123.1875 C1.84941789 111.41891533 -2.50922158 99.75220483 -6.86010742 88.07885742 C-7.94203811 85.15655544 -9.00505927 82.228112 -10.0625 79.296875 C-11.30683691 75.85789531 -12.60179584 72.44753757 -13.95703125 69.05078125 C-14.26447266 68.26509766 -14.57191406 67.47941406 -14.88867188 66.66992188 C-15.51115909 65.08146084 -16.14688885 63.49813352 -16.79492188 61.91992188 C-19.92111927 53.79984172 -18.7194486 48.15583608 -15.5 40.0625 C-14.96005919 38.68184029 -14.42246981 37.30025964 -13.88671875 35.91796875 C-13.44078369 34.77013916 -13.44078369 34.77013916 -12.98583984 33.59912109 C-10.60013721 27.30932657 -8.3963297 20.94990753 -6.16015625 14.60571289 C-4.36449378 9.56608184 -2.56232207 4.70165763 0 0 Z " fill="#12A9FC" transform="translate(254,142)"/>
<path d="M0 0 C1.65 0 3.3 0 5 0 C11.69048063 18.08550671 11.69048063 18.08550671 14.4375 25.875 C16.50380749 31.706881 18.71241358 37.47705595 20.9375 43.25 C23.79983496 50.6869835 26.44666473 58.16217624 28.91723633 65.73754883 C30.7171199 71.23228774 32.716212 76.62582568 34.83203125 82.0078125 C36.64041715 86.64066735 38.32086073 91.31904751 40 96 C39.31035156 96.37511719 38.62070312 96.75023437 37.91015625 97.13671875 C34.93855819 98.75499643 31.96888578 100.37675206 29 102 C27.82050781 102.64388672 27.82050781 102.64388672 26.6171875 103.30078125 C22.62954781 105.49469771 18.7051568 107.76616618 14.8125 110.125 C11.27485534 112.26635122 7.73613697 114.23025091 4 116 C-2.03793255 101.22482389 -7.35761748 86.22519598 -12.48486328 71.1159668 C-14.88899473 63.94569417 -14.88899473 63.94569417 -17.86328125 57.00390625 C-20.37170266 50.37512251 -16.55228962 43.67186543 -14.1875 37.375 C-13.45577936 35.3989006 -12.72529896 33.4223415 -11.99609375 31.4453125 C-11.64788574 30.50204102 -11.29967773 29.55876953 -10.94091797 28.58691406 C-9.81586924 25.49375986 -8.76747976 22.3800783 -7.75 19.25 C-5.59561115 12.65337572 -3.17362965 6.17874799 0 0 Z " fill="#12A9FB" transform="translate(224,224)"/>
<path d="M0 0 C0.33 0 0.66 0 1 0 C1.04672188 20.88815796 1.08198978 41.7763073 1.10362434 62.66450691 C1.11393667 72.36326977 1.12799619 82.06200017 1.15087891 91.76074219 C1.1708141 100.2142161 1.18371676 108.66766649 1.18817699 117.12116325 C1.19078414 121.5971638 1.19691123 126.07309709 1.21146011 130.54907608 C1.22504603 134.76298292 1.22922059 138.97679485 1.22621536 143.19072151 C1.22676507 144.73626153 1.23073652 146.28180476 1.23841095 147.82732582 C1.2483881 149.94042997 1.24595894 152.05317756 1.24050903 154.16629028 C1.24235262 155.34802889 1.24419621 156.52976749 1.24609566 157.74731636 C0.99048632 161.12574379 0.20733895 163.84623915 -1 167 C-1.33 167 -1.66 167 -2 167 C-2.12598746 159.44075258 -2.12598746 159.44075258 -1.50378513 157.26404953 C-0.8553881 154.35010288 -0.85869427 151.62087424 -0.84178162 148.63458252 C-0.8319928 147.32488998 -0.82220398 146.01519745 -0.81211853 144.66581726 C-0.80621468 143.21633948 -0.80040421 141.76686131 -0.79467773 140.31738281 C-0.78509664 138.78971595 -0.77508642 137.26205172 -0.76467896 135.73439026 C-0.7376489 131.58808203 -0.71662905 127.44176244 -0.69667697 123.29541492 C-0.67480571 118.96187585 -0.64742259 114.62837172 -0.62062073 110.29486084 C-0.57070927 102.08913355 -0.52576469 93.88338685 -0.48259836 85.6776216 C-0.43321278 76.33548281 -0.37829954 66.99337908 -0.32291877 57.6512742 C-0.20912247 38.43421536 -0.1022783 19.21712342 0 0 Z " fill="#A7CADF" transform="translate(357,119)"/>
<path d="M0 0 C0.495 0.99 0.495 0.99 1 2 C-1.33143947 4.70446979 -3.05038399 6.02145985 -6.375 7.4375 C-10.43165207 9.18605693 -12.68681039 11.11896555 -16 14 C-21.54407161 17.64741554 -27.61587769 20.41563636 -33.6875 23.0625 C-37.82648421 24.88308412 -41.59598143 26.80871151 -45.0625 29.75 C-47 31 -47 31 -49.25 30.6875 C-49.8275 30.460625 -50.405 30.23375 -51 30 C-47.06731976 26.47414875 -42.7464353 24.14899335 -38.12109375 21.6796875 C-33.08838038 18.97121848 -28.14719418 16.10265961 -23.19140625 13.25683594 C-18.67270334 10.66522691 -14.14821779 8.08371798 -9.625 5.5 C-7.78383488 4.44795042 -5.94268749 3.3958698 -4.1015625 2.34375 C-2.05078125 1.171875 -2.05078125 1.171875 0 0 Z " fill="#AECFE3" transform="translate(117,56)"/>
<path d="M0 0 C1.65 0 3.3 0 5 0 C5.33 0.66 5.66 1.32 6 2 C6.99 2 7.98 2 9 2 C9 1.34 9 0.68 9 0 C9.66 0 10.32 0 11 0 C11.625 1.875 11.625 1.875 12 4 C11.34 4.66 10.68 5.32 10 6 C9.35232207 8.57061311 9.35232207 8.57061311 9 11 C8.34 11 7.68 11 7 11 C8.32 16.61 9.64 22.22 11 28 C11.66 28 12.32 28 13 28 C13 30.64 13 33.28 13 36 C10.16962893 30.58220816 8.13727099 24.81889095 5.9375 19.125 C5.47794922 17.95324219 5.01839844 16.78148437 4.54492188 15.57421875 C4.10599609 14.43855469 3.66707031 13.30289063 3.21484375 12.1328125 C2.61337524 10.58424561 2.61337524 10.58424561 1.99975586 9.00439453 C1.00067586 6.00203104 0.43248822 3.12991816 0 0 Z " fill="#183653" transform="translate(271,176)"/>
<path d="M0 0 C2.30873249 3.46309873 3.63573343 7.05988867 5.0625 10.9375 C5.33126953 11.65357422 5.60003906 12.36964844 5.87695312 13.10742188 C7.09530992 16.38574354 8.19554848 19.59205082 9 23 C3.66666667 25.66666667 -1.66666667 28.33333333 -7 31 C-5.82421252 27.47263757 -5.12452867 26.89116209 -2 25 C0.31347872 24.26739841 2.645752 23.588562 5 23 C4.34 22.01 3.68 21.02 3 20 C2.34 20 1.68 20 1 20 C1.14308594 19.14728516 1.14308594 19.14728516 1.2890625 18.27734375 C2.05857768 12.91758107 1.73891698 9.21675093 0 4 C0 2.68 0 1.36 0 0 Z M-2 21 C-1.34 21 -0.68 21 0 21 C0 21.66 0 22.32 0 23 C-0.66 23 -1.32 23 -2 23 C-2 22.34 -2 21.68 -2 21 Z " fill="#22A0E9" transform="translate(304,269)"/>
<path d="M0 0 C0.99 0.33 1.98 0.66 3 1 C-0.61168033 12.35373975 -0.61168033 12.35373975 -3 17.5 C-4.96741105 21.76272393 -6.40799356 26.11851609 -7.8515625 30.58203125 C-10.04880161 37.12143338 -12.54576673 43.55354727 -15 50 C-15.66 49.34 -16.32 48.68 -17 48 C-16.74654599 45.54994455 -16.04149418 44.06199719 -14.671875 42.015625 C-12.29642638 37.73093731 -10.93270193 33.21531118 -9.4375 28.5625 C-9.13392578 27.63373047 -8.83035156 26.70496094 -8.51757812 25.74804688 C-7.67427023 23.16667958 -6.83620079 20.58367673 -6 18 C-4.92776014 14.70080044 -3.83215527 11.61731401 -2.4375 8.4375 C-1.23024227 5.55057934 -0.46571771 3.07373688 0 0 Z " fill="#0D4472" transform="translate(221,224)"/>
<path d="M0 0 C0.33 0 0.66 0 1 0 C1.33 2.31 1.66 4.62 2 7 C1.01 7.33 0.02 7.66 -1 8 C-1.144375 9.134375 -1.28875 10.26875 -1.4375 11.4375 C-2 15 -2 15 -3 16 C-3.07205511 17.68608966 -3.08386068 19.37500659 -3.0625 21.0625 C-3.04896484 22.44115234 -3.04896484 22.44115234 -3.03515625 23.84765625 C-3.02355469 24.55792969 -3.01195312 25.26820313 -3 26 C-4.98 26.99 -4.98 26.99 -7 28 C-6.67 31.63 -6.34 35.26 -6 39 C-8.31531305 36.68468695 -9.07417343 35.13356684 -10 32 C-9.51619474 25.98563661 -7.10390054 20.47314095 -5 14.875 C-4.26905051 12.91472636 -3.53981438 10.95381277 -2.8125 8.9921875 C-2.48894531 8.12964355 -2.16539062 7.26709961 -1.83203125 6.37841797 C-1.09234791 4.26398279 -0.49985079 2.18179819 0 0 Z " fill="#249AE0" transform="translate(215,246)"/>
<path d="M0 0 C2.72178647 2.37083979 3.88769607 4.6533784 5.1875 8 C5.53167969 8.86625 5.87585938 9.7325 6.23046875 10.625 C7 13 7 13 7 16 C8.32 16.33 9.64 16.66 11 17 C11.33 21.95 11.66 26.9 12 32 C9.5012367 28.6683156 8.36962703 26.76991144 7.0625 23 C6.55976563 21.55753906 6.55976563 21.55753906 6.046875 20.0859375 C5.70140625 19.06757813 5.3559375 18.04921875 5 17 C4.63390625 15.94039063 4.2678125 14.88078125 3.890625 13.7890625 C2.3299365 9.20878104 0.85863793 4.77021072 0 0 Z " fill="#239ADF" transform="translate(260,263)"/>
<path d="M0 0 C2.3125 0 2.3125 0 5 1 C6.96880227 4.24666639 8.28989907 7.47407672 7.5703125 11.26171875 C7.38210938 11.83535156 7.19390625 12.40898437 7 13 C6.01 11.02 5.02 9.04 4 7 C2.68 7 1.36 7 0 7 C-1.07525194 9.65228812 -2.09456151 12.28368454 -3 15 C-3.99 15.33 -4.98 15.66 -6 16 C-4.43551329 10.3856009 -2.83604813 5.13189662 0 0 Z " fill="#2A9BDC" transform="translate(254,142)"/>
<path d="M0 0 C2 1 2 1 3.1484375 4.09765625 C3.56285392 5.41753726 3.97137501 6.73927904 4.375 8.0625 C5.94196825 13.00001579 7.61195193 17.58780619 10.08984375 22.15234375 C11.52293457 25.06157963 12.43657954 28.12025625 13.38671875 31.21484375 C13.85412962 33.00046301 13.85412962 33.00046301 15 34 C15.14115161 36.67058851 15.04247107 39.32432238 15 42 C12.69209654 37.53306963 10.96965659 32.88314951 9.1875 28.1875 C8.83365234 27.25639404 8.47980469 26.32528809 8.11523438 25.3659668 C0 3.85283523 0 3.85283523 0 0 Z " fill="#2498D7" transform="translate(212,294)"/>
<path d="M0 0 C0.625 1.875 0.625 1.875 1 4 C-1.21846272 6.21846272 -2.41367691 6.53874597 -5.375 7.375 C-8.49155147 8.34271901 -9.80736113 8.80169528 -12.125 11.1875 C-14 13 -14 13 -17.75 13.25 C-18.8225 13.1675 -19.895 13.085 -21 13 C-18.82614868 10.63474038 -16.70312917 9.13536289 -13.875 7.625 C-12.69744141 6.98884766 -12.69744141 6.98884766 -11.49609375 6.33984375 C-10.67238281 5.89769531 -9.84867188 5.45554687 -9 5 C-7.31106006 4.06509659 -5.62349018 3.12771253 -3.9375 2.1875 C-2.625 1.45833333 -1.3125 0.72916667 0 0 Z " fill="#83CBF9" transform="translate(262,320)"/>
<path d="M0 0 C0.66 0 1.32 0 2 0 C2 0.99 2 1.98 2 3 C2.53238281 3.2578125 3.06476562 3.515625 3.61328125 3.78125 C6.52457819 5.26786972 9.35355491 6.87074046 12.1875 8.5 C13.25355469 9.1084375 14.31960937 9.716875 15.41796875 10.34375 C18 12 18 12 19 14 C20.97522846 15.04808041 22.97481509 16.0520411 25 17 C25 17.66 25 18.32 25 19 C21.41903045 17.66353101 18.25523836 16.06141981 15 14.0625 C14.175 13.55847656 13.35 13.05445313 12.5 12.53515625 C11.675 12.02855469 10.85 11.52195312 10 11 C9.12988281 10.505 8.25976562 10.01 7.36328125 9.5 C4.07102441 7.41036921 2.32396214 5.12074916 0 2 C0 1.34 0 0.68 0 0 Z " fill="#AED0E2" transform="translate(39,289)"/>
<path d="M0 0 C0.99 0.33 1.98 0.66 3 1 C4.09765625 3.87109375 4.09765625 3.87109375 5.0625 7.4375 C6.20375546 12.19092292 6.20375546 12.19092292 9 16 C9.125 19.125 9.125 19.125 9 22 C9.99 22.33 10.98 22.66 12 23 C13.3125 26.375 13.3125 26.375 14 30 C13.34 30.99 12.68 31.98 12 33 C10.55969835 29.18855265 9.1232761 25.37565419 7.6875 21.5625 C7.28337891 20.49322266 6.87925781 19.42394531 6.46289062 18.32226562 C4.17942636 12.25159233 2.00430949 6.16860301 0 0 Z " fill="#249DE3" transform="translate(246,226)"/>
<path d="M0 0 C0.99 0.33 1.98 0.66 3 1 C0.1207971 4.11631372 -2.72253457 6.2096029 -6.4375 8.25 C-7.36433594 8.77078125 -8.29117188 9.2915625 -9.24609375 9.828125 C-12.09229845 11.03927593 -13.94604345 11.24387312 -17 11 C-17 11.66 -17 12.32 -17 13 C-18.32 12.67 -19.64 12.34 -21 12 C-19.35451172 11.07767578 -19.35451172 11.07767578 -17.67578125 10.13671875 C-16.22133265 9.32035083 -14.76690677 8.50394244 -13.3125 7.6875 C-12.59126953 7.28337891 -11.87003906 6.87925781 -11.12695312 6.46289062 C-10.42119141 6.06650391 -9.71542969 5.67011719 -8.98828125 5.26171875 C-8.29943848 4.87677246 -7.6105957 4.49182617 -6.90087891 4.09521484 C-5.29000507 3.16709 -3.72305106 2.16337828 -2.16796875 1.14453125 C-1.45253906 0.76683594 -0.73710937 0.38914062 0 0 Z " fill="#B0D0E4" transform="translate(160,31)"/>
<path d="M0 0 C2.27629118 2.27629118 2.85710124 3.92615211 3.9453125 6.9375 C4.29980469 7.91460937 4.65429688 8.89171875 5.01953125 9.8984375 C5.38433594 10.92195313 5.74914062 11.94546875 6.125 13 C6.49753906 14.02351563 6.87007812 15.04703125 7.25390625 16.1015625 C10 23.72624771 10 23.72624771 10 26 C9.34 26 8.68 26 8 26 C5.82616276 22.10731471 4.11541667 18.83677083 3.5 14.375 C3.22744904 10.8471807 3.22744904 10.8471807 0.875 7.875 C-1 5 -1 5 -0.75 2.125 C-0.5025 1.42375 -0.255 0.7225 0 0 Z " fill="#0E466F" transform="translate(205,278)"/>
<path d="M0 0 C2.09379469 2.09379469 2.63144948 3.302069 3.62109375 6.03515625 C3.91693359 6.84533203 4.21277344 7.65550781 4.51757812 8.49023438 C4.82115234 9.33908203 5.12472656 10.18792969 5.4375 11.0625 C5.73720703 11.88427734 6.03691406 12.70605469 6.34570312 13.55273438 C12 29.14191296 12 29.14191296 12 32 C11.34 32 10.68 32 10 32 C8.07528683 26.66164461 6.60108576 21.65020618 6 16 C5.01 15.67 4.02 15.34 3 15 C2.05078125 12.63671875 2.05078125 12.63671875 1.3125 9.6875 C1.06113281 8.72199219 0.80976563 7.75648438 0.55078125 6.76171875 C0 4 0 4 0 0 Z " fill="#2695D7" transform="translate(272,182)"/>
<path d="M0 0 C-11.88 6.93 -11.88 6.93 -24 14 C-24 13.01 -24 12.02 -24 11 C-22.02 10.34 -20.04 9.68 -18 9 C-18 8.34 -18 7.68 -18 7 C-17.01 7 -16.02 7 -15 7 C-15 6.34 -15 5.68 -15 5 C-14.113125 4.566875 -13.22625 4.13375 -12.3125 3.6875 C-9.04701685 2.10501078 -9.04701685 2.10501078 -6.375 0.25 C-4 -1 -4 -1 0 0 Z " fill="#ABCCE3" transform="translate(345,299)"/>
<path d="M0 0 C6.16356805 1.6658292 11.48259656 4.87805286 17 8 C17 8.66 17 9.32 17 10 C17.9075 10.2475 18.815 10.495 19.75 10.75 C23.10351489 12.03981342 24.67708236 13.31971042 27 16 C22.0276578 14.50829734 17.58154261 12.39542583 13 10 C13 9.34 13 8.68 13 8 C12.154375 7.7525 11.30875 7.505 10.4375 7.25 C6.61572526 5.86026373 3.48131937 4.08879162 0 2 C0 1.34 0 0.68 0 0 Z " fill="#ABCCE1" transform="translate(275,57)"/>
<path d="M0 0 C1.5 1.375 1.5 1.375 3 3 C3 3.66 3 4.32 3 5 C3.5775 4.484375 4.155 3.96875 4.75 3.4375 C7 2 7 2 9.140625 2.41015625 C10.06101563 2.70212891 10.06101563 2.70212891 11 3 C6.43910942 5.9286937 1.90522335 8.67001891 -3 11 C-3.33 10.01 -3.66 9.02 -4 8 C-3.01 7.67 -2.02 7.34 -1 7 C-1.020625 6.030625 -1.04125 5.06125 -1.0625 4.0625 C-1 1 -1 1 0 0 Z " fill="#23A8EB" transform="translate(231,329)"/>
<path d="M0 0 C1.66832577 2.50248865 2.62381674 4.41149187 3.625 7.1875 C4.01558594 8.26064453 4.01558594 8.26064453 4.4140625 9.35546875 C4.60742188 9.89816406 4.80078125 10.44085938 5 11 C4.27554687 11.38671875 3.55109375 11.7734375 2.8046875 12.171875 C-3.51300573 15.5347157 -3.51300573 15.5347157 -9.5 19.4375 C-10.7375 20.2109375 -10.7375 20.2109375 -12 21 C-12.99 20.67 -13.98 20.34 -15 20 C-13.04532248 18.66101601 -11.0866421 17.32870953 -9.125 16 C-8.03445312 15.2575 -6.94390625 14.515 -5.8203125 13.75 C-3 12 -3 12 -1 12 C-1 11.34 -1 10.68 -1 10 C-0.01 10 0.98 10 2 10 C1.67 9.0925 1.34 8.185 1 7.25 C0 4 0 4 0 0 Z " fill="#2AA0E2" transform="translate(259,309)"/>
<path d="M0 0 C3.71578946 4.06513719 5.23436935 7.83351062 6.75 13 C6.97042969 13.69867188 7.19085938 14.39734375 7.41796875 15.1171875 C8.54616404 18.83112231 9.27319708 22.11453043 9 26 C6.72517926 22.58776889 5.36735975 19.06295932 3.9375 15.25 C3.66873047 14.5590625 3.39996094 13.868125 3.12304688 13.15625 C1.46270001 8.75074112 0.49654382 4.68345033 0 0 Z " fill="#0D3F67" transform="translate(303,262)"/>
<path d="M0 0 C2.64 0 5.28 0 8 0 C7.34 0.66 6.68 1.32 6 2 C3.875 1.625 3.875 1.625 2 1 C1.62875 2.155 1.2575 3.31 0.875 4.5 C-1.5320892 11.74452449 -4.29413386 18.86316861 -7 26 C-7.33 26 -7.66 26 -8 26 C-7.01917734 16.78026695 -3.50485988 8.52196894 0 0 Z " fill="#0A426A" transform="translate(252,141)"/>
<path d="M0 0 C0.99 0.33 1.98 0.66 3 1 C1.02 6.28 -0.96 11.56 -3 17 C-4.98 16.67 -6.96 16.34 -9 16 C-9.33 15.01 -9.66 14.02 -10 13 C-7.03 13.495 -7.03 13.495 -4 14 C-3.79503906 13.15695312 -3.59007813 12.31390625 -3.37890625 11.4453125 C-2.97478516 9.80175781 -2.97478516 9.80175781 -2.5625 8.125 C-2.29566406 7.03445313 -2.02882813 5.94390625 -1.75390625 4.8203125 C-1 2 -1 2 0 0 Z " fill="#AECDDF" transform="translate(76,295)"/>
<path d="M0 0 C1.54078615 2.98440561 2.86973276 6.01007758 4.125 9.125 C4.47820312 9.99382812 4.83140625 10.86265625 5.1953125 11.7578125 C6 14 6 14 6 16 C4.02 16.66 2.04 17.32 0 18 C0 17.01 0 16.02 0 15 C-0.66 14.67 -1.32 14.34 -2 14 C-1.34 13.67 -0.68 13.34 0 13 C0.72159424 11.35636866 1.39351421 9.68949614 2 8 C1.01 7.67 0.02 7.34 -1 7 C-0.67 4.69 -0.34 2.38 0 0 Z " fill="#1CA1EB" transform="translate(290,230)"/>
<path d="M0 0 C8.63507849 -0.30839566 15.00777918 0.75583439 22 6 C21.67 6.66 21.34 7.32 21 8 C19.68 7.67 18.36 7.34 17 7 C17 6.34 17 5.68 17 5 C15.35 5 13.7 5 12 5 C12 4.01 12 3.02 12 2 C8.37 2 4.74 2 1 2 C0.67 1.34 0.34 0.68 0 0 Z " fill="#ABCDE3" transform="translate(192,15)"/>
<path d="M0 0 C3 2 3 2 3.6875 5.125 C3.8421875 6.548125 3.8421875 6.548125 4 8 C4.99 8 5.98 8 7 8 C7.33 6.68 7.66 5.36 8 4 C8.33 4 8.66 4 9 4 C9.042721 5.66611905 9.04063832 7.33382885 9 9 C8.67 9.33 8.34 9.66 8 10 C7.76924918 11.34747084 7.58846937 12.70377565 7.4375 14.0625 C7.293125 15.361875 7.14875 16.66125 7 18 C4.91567501 14.87351251 3.71441389 11.94269132 2.375 8.4375 C1.92898438 7.28121094 1.48296875 6.12492188 1.0234375 4.93359375 C0 2 0 2 0 0 Z " fill="#124165" transform="translate(291,232)"/>
<path d="M0 0 C3.37037225 3.37037225 4.50664753 7.97486264 6.1875 12.375 C6.56841797 13.3340625 6.94933594 14.293125 7.34179688 15.28125 C7.69693359 16.20679688 8.05207031 17.13234375 8.41796875 18.0859375 C8.90946411 19.3551001 8.90946411 19.3551001 9.41088867 20.64990234 C10.05099095 23.20341437 9.86770374 24.54722473 9 27 C7.16928996 24.25393494 6.47272825 22.54417469 5.625 19.4375 C4.32185 14.87313359 2.66133453 10.57700149 0.76953125 6.2265625 C0 4 0 4 0 0 Z " fill="#2894D7" transform="translate(262,155)"/>
<path d="M0 0 C4.41992802 1.21548021 7.83672284 3.02546776 11.6328125 5.4921875 C16.32762001 8.48260945 21.1821851 11.21369705 26 14 C23 15 23 15 19.8125 13.5625 C18.884375 13.046875 17.95625 12.53125 17 12 C17 11.34 17 10.68 17 10 C16.05125 9.814375 15.1025 9.62875 14.125 9.4375 C8.74074334 7.93388828 4.31052443 4.46056187 0 1 C0 0.67 0 0.34 0 0 Z " fill="#AFCEE4" transform="translate(246,40)"/>
<path d="M0 0 C1.00353516 0.24363281 1.00353516 0.24363281 2.02734375 0.4921875 C5.58006353 1.09909101 8.95891563 1.13215707 12.5625 1.125 C14.51349609 1.12886719 14.51349609 1.12886719 16.50390625 1.1328125 C19.24231935 1.0287834 21.41632549 0.82835366 24 0 C23 3 23 3 20.9375 4.25 C14.23129746 5.96222192 6.65147523 3.40389744 0 2 C0 1.34 0 0.68 0 0 Z " fill="#E6F6FB" transform="translate(184,378)"/>
<path d="M0 0 C1.1059741 3.28823173 0.89627272 5.0871965 -0.3125 8.3125 C-1.34392095 11.14193855 -2.20376689 13.81506754 -2.9375 16.75 C-4.07503629 20.22952276 -5.55412087 22.30953295 -8 25 C-6.43889635 16.25781959 -3.21518143 8.24016625 0 0 Z " fill="#259BDD" transform="translate(247,160)"/>
<path d="M0 0 C0.66 0.99 1.32 1.98 2 3 C-1.22791555 5.1519437 -2.28400809 5.20086443 -6 5 C-6 5.99 -6 6.98 -6 8 C-8.64 8.99 -11.28 9.98 -14 11 C-14.66 10.34 -15.32 9.68 -16 9 C-10.72 6.03 -5.44 3.06 0 0 Z " fill="#ABCEE5" transform="translate(138,44)"/>
<path d="M0 0 C3.24354203 2.16236135 3.48144198 2.59651284 4.5703125 6.09765625 C4.82683594 6.89880859 5.08335937 7.69996094 5.34765625 8.52539062 C5.60417969 9.36263672 5.86070312 10.19988281 6.125 11.0625 C6.64600428 12.72081851 7.16931994 14.37841319 7.6953125 16.03515625 C7.92234863 16.7712915 8.14938477 17.50742676 8.38330078 18.26586914 C8.8620683 20.0051695 8.8620683 20.0051695 10 21 C10.04063832 22.66617115 10.042721 24.33388095 10 26 C7.27978686 21.91968029 5.6856876 17.54271447 3.875 13 C3.31619141 11.62714844 3.31619141 11.62714844 2.74609375 10.2265625 C2.39417969 9.34742188 2.04226563 8.46828125 1.6796875 7.5625 C1.35726074 6.75941406 1.03483398 5.95632812 0.70263672 5.12890625 C0 3 0 3 0 0 Z " fill="#0C4772" transform="translate(259,144)"/>
<path d="M0 0 C2 2 2 2 2 5 C2.66 5 3.32 5 4 5 C4.19335938 5.55429687 4.38671875 6.10859375 4.5859375 6.6796875 C4.84632813 7.40414063 5.10671875 8.12859375 5.375 8.875 C5.63023437 9.59429687 5.88546875 10.31359375 6.1484375 11.0546875 C6.93877783 13.18157994 6.93877783 13.18157994 9 15 C7.68 15.99 6.36 16.98 5 18 C4.34 17.67 3.68 17.34 3 17 C2.73124085 15.11868597 2.47357613 13.23480048 2.28515625 11.34375 C1.81759304 7.50076472 0.89698064 3.76209355 0 0 Z " fill="#2A96D3" transform="translate(272,295)"/>
<path d="M0 0 C0.99 0.33 1.98 0.66 3 1 C0.51754664 8.94662445 -2.39503145 16.49457367 -6 24 C-7.1233655 20.6299035 -6.89663584 19.96507695 -5.75 16.75 C-5.46898437 15.9559375 -5.18796875 15.161875 -4.8984375 14.34375 C-4.10881374 12.28386193 -3.26827799 10.26650872 -2.375 8.25 C-1.18589518 5.43938862 -0.45476288 3.00143499 0 0 Z " fill="#0C4164" transform="translate(221,224)"/>
<path d="M0 0 C-3.09445902 1.87074721 -6.20196039 3.71863501 -9.3125 5.5625 C-10.19357422 6.09552734 -11.07464844 6.62855469 -11.98242188 7.17773438 C-12.82998047 7.67724609 -13.67753906 8.17675781 -14.55078125 8.69140625 C-15.33106689 9.15748291 -16.11135254 9.62355957 -16.9152832 10.10375977 C-19 11 -19 11 -22 10 C-18.84968123 6.84968123 -14.90639075 5.09004346 -11 3 C-10.25234375 2.5875 -9.5046875 2.175 -8.734375 1.75 C-3.35576923 -1.11858974 -3.35576923 -1.11858974 0 0 Z " fill="#ABCCE1" transform="translate(240,360)"/>
<path d="M0 0 C1.65 0 3.3 0 5 0 C5.99 3.3 6.98 6.6 8 10 C7.01 9.01 6.02 8.02 5 7 C3.06616713 5.69934079 3.06616713 5.69934079 1 5 C0.01 5.33 -0.98 5.66 -2 6 C-1.34 4.02 -0.68 2.04 0 0 Z " fill="#2998DC" transform="translate(224,224)"/>
<path d="M0 0 C0.99 0.66 1.98 1.32 3 2 C0.75076296 3.2930106 -1.49935185 4.58444977 -3.75 5.875 C-4.38421875 6.23980469 -5.0184375 6.60460937 -5.671875 6.98046875 C-8.74250368 8.7396831 -11.80851875 10.46873374 -15 12 C-15 11.01 -15 10.02 -15 9 C-11.35022743 6.09677182 -9.74147821 5 -5 5 C-4.731875 4.360625 -4.46375 3.72125 -4.1875 3.0625 C-3 1 -3 1 0 0 Z " fill="#EBF9FC" transform="translate(180,17)"/>
<path d="M0 0 C2.97619417 2.97619417 3.81809239 6.57543889 5.1875 10.5 C5.47302734 11.28503906 5.75855469 12.07007813 6.05273438 12.87890625 C6.31763672 13.63042969 6.58253906 14.38195312 6.85546875 15.15625 C7.22128052 16.18975586 7.22128052 16.18975586 7.59448242 17.24414062 C8 19 8 19 7 21 C5.68 18.36 4.36 15.72 3 13 C2.01 13 1.02 13 0 13 C0 8.71 0 4.42 0 0 Z " fill="#104973" transform="translate(252,243)"/>
<path d="M0 0 C0.33 0 0.66 0 1 0 C1 1.98 1 3.96 1 6 C1.66 6.33 2.32 6.66 3 7 C3 7.99 3 8.98 3 10 C2.4225 10.2475 1.845 10.495 1.25 10.75 C-1.3002997 12.16683317 -3.01785701 13.87627537 -5 16 C-4.80664062 15.43152344 -4.61328125 14.86304688 -4.4140625 14.27734375 C-2.81863577 9.54635062 -1.33099414 4.81205575 0 0 Z " fill="#1F9DE2" transform="translate(221,230)"/>
<path d="M0 0 C1.65 0 3.3 0 5 0 C4.98259766 0.85271484 4.98259766 0.85271484 4.96484375 1.72265625 C4.90776806 6.60670484 5.18043228 11.18503965 6 16 C3.50063756 13.50063756 2.96276247 11.35191992 1.875 8 C1.52179688 6.9275 1.16859375 5.855 0.8046875 4.75 C0 2 0 2 0 0 Z " fill="#0E3F63" transform="translate(271,176)"/>
<path d="M0 0 C2.89708794 3.38984777 4.22124076 6.87507496 5.6875 11.0625 C6.12449219 12.29097656 6.56148437 13.51945312 7.01171875 14.78515625 C8 18 8 18 8 21 C7.34 21 6.68 21 6 21 C5.73445312 20.10796875 5.46890625 19.2159375 5.1953125 18.296875 C4.84210938 17.12640625 4.48890625 15.9559375 4.125 14.75 C3.77695313 13.58984375 3.42890625 12.4296875 3.0703125 11.234375 C2.1343285 8.1158571 2.1343285 8.1158571 0.8671875 5.828125 C0 4 0 4 0 0 Z " fill="#10456E" transform="translate(220,320)"/>
<path d="M0 0 C0.66 0 1.32 0 2 0 C2.33 1.65 2.66 3.3 3 5 C3.99 5 4.98 5 6 5 C6 5.66 6 6.32 6 7 C9.465 6.505 9.465 6.505 13 6 C10.47043472 9.0916909 7.77545388 9.90931332 4 11 C2.68 7.37 1.36 3.74 0 0 Z " fill="#143D5C" transform="translate(259,308)"/>
<path d="M0 0 C0.66 0 1.32 0 2 0 C3.125 4.75 3.125 4.75 2 7 C2.99 6.67 3.98 6.34 5 6 C5.66 6.66 6.32 7.32 7 8 C6.625 10.125 6.625 10.125 6 12 C5.34 12 4.68 12 4 12 C3.67 12.66 3.34 13.32 3 14 C2.49713066 12.0424015 1.9977901 10.08389623 1.5 8.125 C1.2215625 7.03445313 0.943125 5.94390625 0.65625 4.8203125 C0 2 0 2 0 0 Z " fill="#1EA3F2" transform="translate(208,280)"/>
<path d="M0 0 C0.33 0 0.66 0 1 0 C1.1670896 2.92406807 1.16814885 4.67255225 -0.1875 7.3125 C-1.27874349 10.92199769 -0.18555904 12.69614461 1.26171875 16.0625 C2.16987762 18.4458164 2.23685709 20.47352433 2 23 C-1.4485401 19.5514599 -2.95398618 14.62738909 -3.0390625 9.76953125 C-2.64953697 6.18992595 -1.91549073 3.06478516 0 0 Z " fill="#2795D8" transform="translate(238,185)"/>
<path d="M0 0 C-4.29833361 3.14512215 -7.82069003 4.75696561 -13 6 C-13 5.01 -13 4.02 -13 3 C-8.63192098 -0.15472374 -5.21416565 -1.67598181 0 0 Z " fill="#AACEE3" transform="translate(192,17)"/>
<path d="M0 0 C-6.2752707 3.46062722 -12.56584971 6.84362439 -19 10 C-18.67 9.01 -18.34 8.02 -18 7 C-16.35 6.67 -14.7 6.34 -13 6 C-13 5.34 -13 4.68 -13 4 C-3.92465753 -1.30821918 -3.92465753 -1.30821918 0 0 Z " fill="#AACDE0" transform="translate(294,329)"/>
<path d="M0 0 C3.06975784 3.4928623 4.32350282 7.39015404 5.6875 11.75 C5.91244141 12.44738281 6.13738281 13.14476562 6.36914062 13.86328125 C6.91963366 15.57332344 7.46076237 17.28637529 8 19 C7.34 19 6.68 19 6 19 C0.44419134 6.51480638 0.44419134 6.51480638 0 0 Z " fill="#0B436C" transform="translate(244,223)"/>
<path d="M0 0 C2.52940738 3.13164723 4.44920018 6.27808042 6 10 C5.6875 12.375 5.6875 12.375 5 14 C4.34 12.02 3.68 10.04 3 8 C2.34 8 1.68 8 1 8 C1 9.32 1 10.64 1 12 C0.01 11.67 -0.98 11.34 -2 11 C-1.67 10.484375 -1.34 9.96875 -1 9.4375 C0.32010877 6.21973488 0.13242105 3.4429472 0 0 Z " fill="#153A5C" transform="translate(257,260)"/>
<path d="M0 0 C2.22023926 2.22023926 2.99988963 3.98529101 4.1875 6.875 C4.55230469 7.73867187 4.91710937 8.60234375 5.29296875 9.4921875 C6.27299263 12.96829429 5.57347928 14.85304144 4 18 C3.34 18 2.68 18 2 18 C2.04125 16.700625 2.0825 15.40125 2.125 14.0625 C2.14055052 9.16408698 1.2492718 4.71823189 0 0 Z " fill="#104065" transform="translate(238,206)"/>
<path d="M0 0 C0.66 0.33 1.32 0.66 2 1 C0.68 3.64 -0.64 6.28 -2 9 C-3.65 9 -5.3 9 -7 9 C-6.67 7.35 -6.34 5.7 -6 4 C-4.02 3.34 -2.04 2.68 0 2 C0 1.34 0 0.68 0 0 Z " fill="#F2F7F7" transform="translate(231,153)"/>
<path d="M0 0 C0.515625 0.2475 1.03125 0.495 1.5625 0.75 C-1.61070782 4.28586014 -3.60493695 6.33578031 -8.4375 6.75 C-8.7675 5.76 -9.0975 4.77 -9.4375 3.75 C-3.0375 -0.31153846 -3.0375 -0.31153846 0 0 Z " fill="#20364E" transform="translate(126.4375,78.25)"/>
<path d="M0 0 C1.79000771 2.68501157 2.6217477 4.60080152 3.5625 7.625 C4.338786 10.57168552 4.338786 10.57168552 6 13 C6.14115161 15.67058851 6.04247107 18.32432238 6 21 C2.49111287 14.12447792 -0.68271635 7.85123805 0 0 Z " fill="#239EE1" transform="translate(221,315)"/>
<path d="M0 0 C0.99 0.33 1.98 0.66 3 1 C4.203125 3.8359375 4.203125 3.8359375 5.25 7.375 C5.60578125 8.53773438 5.9615625 9.70046875 6.328125 10.8984375 C7 14 7 14 6 17 C0.44419134 5.47835991 0.44419134 5.47835991 0 0 Z " fill="#0F4472" transform="translate(252,288)"/>
<path d="M0 0 C0.33 1.65 0.66 3.3 1 5 C0.34 5 -0.32 5 -1 5 C-0.67 6.65 -0.34 8.3 0 10 C-2.79872437 7.47211993 -4.45773019 5.79588866 -5 2 C-2 0 -2 0 0 0 Z " fill="#183552" transform="translate(294,224)"/>
<path d="M0 0 C0.66 0 1.32 0 2 0 C2 1.32 2 2.64 2 4 C1.01 4 0.02 4 -1 4 C-0.67 2.68 -0.34 1.36 0 0 Z M-2 4 C-1.67 4.66 -1.34 5.32 -1 6 C-2.25 9.0625 -2.25 9.0625 -4 12 C-4.99 12.33 -5.98 12.66 -7 13 C-5.375 6.25 -5.375 6.25 -2 4 Z " fill="#1E9EE8" transform="translate(255,145)"/>
<path d="M0 0 C-1.47559669 4.42679007 -3.90057368 4.91432696 -8 7 C-8.66 7 -9.32 7 -10 7 C-10.33 7.99 -10.66 8.98 -11 10 C-11.66 9.01 -12.32 8.02 -13 7 C-11.21190303 5.82786955 -9.41940875 4.66244474 -7.625 3.5 C-6.62726562 2.8503125 -5.62953125 2.200625 -4.6015625 1.53125 C-2 0 -2 0 0 0 Z " fill="#AFD0E6" transform="translate(58,91)"/>
<path d="M0 0 C-1.78809697 1.17213045 -3.58059125 2.33755526 -5.375 3.5 C-6.37273437 4.1496875 -7.37046875 4.799375 -8.3984375 5.46875 C-11 7 -11 7 -13 7 C-13 5.68 -13 4.36 -13 3 C-11.21189234 2.30329584 -9.41937948 1.61788811 -7.625 0.9375 C-6.62726563 0.55464844 -5.62953125 0.17179687 -4.6015625 -0.22265625 C-2 -1 -2 -1 0 0 Z " fill="#AACBE0" transform="translate(253,352)"/>
<path d="M0 0 C0.66 0.66 1.32 1.32 2 2 C0.04480616 3.17192047 -1.9142539 4.3373929 -3.875 5.5 C-4.96554687 6.1496875 -6.05609375 6.799375 -7.1796875 7.46875 C-10 9 -10 9 -12 9 C-11.67 8.01 -11.34 7.02 -11 6 C-7.9375 4.8125 -7.9375 4.8125 -5 4 C-5 3.34 -5 2.68 -5 2 C-3.35 1.34 -1.7 0.68 0 0 Z " fill="#ADCDE0" transform="translate(316,313)"/>
<path d="M0 0 C2.90408342 3.87211123 3.85079464 6.40317854 5 11 C4.01 10.34 3.02 9.68 2 9 C1.01 9.33 0.02 9.66 -1 10 C-0.67 6.7 -0.34 3.4 0 0 Z " fill="#219CE5" transform="translate(253,294)"/>
<path d="M0 0 C1.20628008 2.33214148 2.1654738 4.49642139 3 7 C2.67 7.66 2.34 8.32 2 9 C0.68 9 -0.64 9 -2 9 C-2.33 9.66 -2.66 10.32 -3 11 C-2.44894091 7.0507432 -1.61064629 3.65079826 0 0 Z " fill="#354050" transform="translate(212,209)"/>
<path d="M0 0 C1.5625 1.1875 1.5625 1.1875 3 3 C2.71263151 5.87368492 1.91403285 8.25790144 1 11 C0.34 11 -0.32 11 -1 11 C-2.60080151 6.99799622 -1.29279692 3.95443764 0 0 Z " fill="#353F51" transform="translate(187,150)"/>
<path d="M0 0 C2.92509086 3.90012114 3.47535095 5.38308839 4 10 C2.02 10.99 2.02 10.99 0 12 C0 8.04 0 4.08 0 0 Z " fill="#113E59" transform="translate(265,280)"/>
<path d="M0 0 C1.65 0.33 3.3 0.66 5 1 C5 1.66 5 2.32 5 3 C6.32 3.33 7.64 3.66 9 4 C9.33 5.32 9.66 6.64 10 8 C6.37 6.02 2.74 4.04 -1 2 C-0.67 1.34 -0.34 0.68 0 0 Z " fill="#9BC0DD" transform="translate(250,66)"/>
<path d="M0 0 C0 3 0 3 -2.1875 5.25 C-5 7 -5 7 -7.8125 6.75 C-8.534375 6.5025 -9.25625 6.255 -10 6 C-6.80009492 3.25722422 -3.99500618 1.3697164 0 0 Z " fill="#86CDF8" transform="translate(294,302)"/>
<path d="M0 0 C2.31 0.33 4.62 0.66 7 1 C7.33 2.65 7.66 4.3 8 6 C5.03 5.01 2.06 4.02 -1 3 C-0.67 2.01 -0.34 1.02 0 0 Z " fill="#93BDD9" transform="translate(196,35)"/>
<path d="M0 0 C0.66 0.33 1.32 0.66 2 1 C1.67 1.66 1.34 2.32 1 3 C1.99 2.67 2.98 2.34 4 2 C4 2.99 4 3.98 4 5 C3.34 5.66 2.68 6.32 2 7 C1.01 6.67 0.02 6.34 -1 6 C-1.33 6.66 -1.66 7.32 -2 8 C-2.33 7.01 -2.66 6.02 -3 5 C-2.34 5 -1.68 5 -1 5 C-0.67 3.35 -0.34 1.7 0 0 Z " fill="#EEF1F3" transform="translate(123,336)"/>
<path d="M0 0 C0.66 0.33 1.32 0.66 2 1 C-1.28467153 5.74452555 -1.28467153 5.74452555 -4.625 6.9375 C-5.40875 6.958125 -6.1925 6.97875 -7 7 C-7.66 6.34 -8.32 5.68 -9 5 C-7.54735962 4.1361871 -6.0876837 3.28419546 -4.625 2.4375 C-3.40683594 1.72400391 -3.40683594 1.72400391 -2.1640625 0.99609375 C-1.44992187 0.66738281 -0.73578125 0.33867187 0 0 Z " fill="#E7F8FC" transform="translate(295,327)"/>
<path d="M0 0 C0.99 0.33 1.98 0.66 3 1 C-0.66002197 4.05001831 -6.07851471 8 -11 8 C-11 7.01 -11 6.02 -11 5 C-10.37351562 4.80664062 -9.74703125 4.61328125 -9.1015625 4.4140625 C-8.28429687 4.15367187 -7.46703125 3.89328125 -6.625 3.625 C-5.81289063 3.36976563 -5.00078125 3.11453125 -4.1640625 2.8515625 C-1.83540815 2.10145717 -1.83540815 2.10145717 0 0 Z " fill="#2DA7E9" transform="translate(293,300)"/>
<path d="M0 0 C0.33 0.66 0.66 1.32 1 2 C0.01 2.495 0.01 2.495 -1 3 C-1.65213292 5.02463255 -1.65213292 5.02463255 -2 7 C-1.34 7 -0.68 7 0 7 C-0.33 7.66 -0.66 8.32 -1 9 C-1.99 9 -2.98 9 -4 9 C-4 8.34 -4 7.68 -4 7 C-4.66 7 -5.32 7 -6 7 C-5.8125 5.1875 -5.8125 5.1875 -5 3 C-2.4375 1.25 -2.4375 1.25 0 0 Z " fill="#94C5E0" transform="translate(319,287)"/>
<path d="M0 0 C-5.94 3.465 -5.94 3.465 -12 7 C-12 6.01 -12 5.02 -12 4 C-8.42508531 0.6898938 -4.76441872 -1.58813957 0 0 Z " fill="#26A9EE" transform="translate(310,293)"/>
<path d="M0 0 C0.66 0.33 1.32 0.66 2 1 C1.34 4.3 0.68 7.6 0 11 C-0.99 11.33 -1.98 11.66 -3 12 C-2.68950274 10.56206608 -2.3765224 9.1246682 -2.0625 7.6875 C-1.88847656 6.88699219 -1.71445313 6.08648437 -1.53515625 5.26171875 C-1 3 -1 3 0 0 Z " fill="#35404F" transform="translate(221,184)"/>
<path d="M0 0 C0.33 0 0.66 0 1 0 C1.19772849 4.25116244 0.72299737 7.12325591 -1 11 C-1 11.66 -1 12.32 -1 13 C-2.98 13.99 -2.98 13.99 -5 15 C-3.33333333 10 -1.66666667 5 0 0 Z " fill="#E5EBEF" transform="translate(181,177)"/>
<path d="M0 0 C0.99 0.66 1.98 1.32 3 2 C2.01 4.97 1.02 7.94 0 11 C-2 9 -2 9 -2.1953125 7.0546875 C-2.13020833 5.03645833 -2.06510417 3.01822917 -2 1 C-1.34 0.67 -0.68 0.34 0 0 Z " fill="#303B4C" transform="translate(133,137)"/>
<path d="M0 0 C2.9375 0.375 2.9375 0.375 6 1 C6.33 1.66 6.66 2.32 7 3 C3.04 4.98 3.04 4.98 -1 7 C-0.67 4.69 -0.34 2.38 0 0 Z " fill="#9BC2E0" transform="translate(149,58)"/>
<path d="M0 0 C2.23551759 3.35327639 2.17283528 3.90743657 1.625 7.6875 C1.51414063 8.49574219 1.40328125 9.30398437 1.2890625 10.13671875 C1.19367188 10.75160156 1.09828125 11.36648437 1 12 C-0.32 12.33 -1.64 12.66 -3 13 C-2.01 8.71 -1.02 4.42 0 0 Z " fill="#202E3F" transform="translate(158,195)"/>
<path d="M0 0 C0.99 0.33 1.98 0.66 3 1 C3 2.65 3 4.3 3 6 C2.01 6 1.02 6 0 6 C0 7.32 0 8.64 0 10 C-0.99 10 -1.98 10 -3 10 C-2.01 6.7 -1.02 3.4 0 0 Z " fill="#323D50" transform="translate(244,121)"/>
<path d="M0 0 C1.65 0 3.3 0 5 0 C1.66666667 3.33333333 -1.66666667 6.66666667 -5 10 C-4.37240135 7.07120629 -3.41377341 4.63904371 -2 2 C-1.34 2 -0.68 2 0 2 C0 1.34 0 0.68 0 0 Z " fill="#EAF8FC" transform="translate(43,96)"/>
<path d="M0 0 C1.76337678 2.64506516 2.6560851 4.59213967 3.625 7.5625 C3.88539063 8.34753906 4.14578125 9.13257813 4.4140625 9.94140625 C5 12 5 12 5 14 C4.34 14 3.68 14 3 14 C3 12.35 3 10.7 3 9 C2.34 9 1.68 9 1 9 C-0.4783226 6.04335481 -0.06032783 3.25770263 0 0 Z " fill="#2593D6" transform="translate(245,270)"/>
<path d="M0 0 C0.33 0 0.66 0 1 0 C1.53341184 1.57914015 2.05125763 3.16354387 2.5625 4.75 C2.85253906 5.63171875 3.14257812 6.5134375 3.44140625 7.421875 C4.01697435 10.07834316 3.89248371 11.47031106 3 14 C2.01 13.34 1.02 12.68 0 12 C-0.29296875 9.1796875 -0.29296875 9.1796875 -0.1875 5.875 C-0.16042969 4.77929688 -0.13335937 3.68359375 -0.10546875 2.5546875 C-0.07066406 1.71164063 -0.03585938 0.86859375 0 0 Z " fill="#0C3C63" transform="translate(234,192)"/>
<path d="M0 0 C0.93972656 0.12568359 0.93972656 0.12568359 1.8984375 0.25390625 C3.12433594 0.40666016 3.12433594 0.40666016 4.375 0.5625 C5.59316406 0.71912109 5.59316406 0.71912109 6.8359375 0.87890625 C9.04899186 1.18237328 9.04899186 1.18237328 11 0 C11.33 1.32 11.66 2.64 12 4 C7.12335991 4.34833144 4.22949995 3.41685712 0 1 C0 0.67 0 0.34 0 0 Z " fill="#9BC0DE" transform="translate(288,90)"/>
<path d="M0 0 C1.65 0 3.3 0 5 0 C5.33 0.99 5.66 1.98 6 3 C1.25 6 1.25 6 -1 6 C-0.67 4.02 -0.34 2.04 0 0 Z " fill="#98C3E0" transform="translate(108,82)"/>
<path d="M0 0 C1.32 0.66 2.64 1.32 4 2 C2 4 2 4 -0.6015625 4.1953125 C-1.59929687 4.17210937 -2.59703125 4.14890625 -3.625 4.125 C-5.12933594 4.09792969 -5.12933594 4.09792969 -6.6640625 4.0703125 C-7.43492187 4.04710937 -8.20578125 4.02390625 -9 4 C-9 3.67 -9 3.34 -9 3 C-8.43410156 2.86722656 -7.86820313 2.73445313 -7.28515625 2.59765625 C-6.18494141 2.33275391 -6.18494141 2.33275391 -5.0625 2.0625 C-4.33160156 1.88847656 -3.60070312 1.71445312 -2.84765625 1.53515625 C-1.00030102 1.16112431 -1.00030102 1.16112431 0 0 Z " fill="#93B9D6" transform="translate(203,354)"/>
<path d="M0 0 C1.98 0.495 1.98 0.495 4 1 C3.34 3.31 2.68 5.62 2 8 C1.01 7.67 0.02 7.34 -1 7 C-0.67 4.69 -0.34 2.38 0 0 Z " fill="#E9EFF4" transform="translate(117,296)"/>
<path d="M0 0 C2.91517292 1.07401108 4.77810176 1.77810176 7 4 C6.34 4 5.68 4 5 4 C5 4.66 5 5.32 5 6 C2.03 5.505 2.03 5.505 -1 5 C-0.67 3.35 -0.34 1.7 0 0 Z " fill="#99BCD7" transform="translate(74,288)"/>
<path d="M0 0 C1.90389849 2.85584773 2.69462177 4.9311762 3.625 8.1875 C4.01558594 9.53908203 4.01558594 9.53908203 4.4140625 10.91796875 C4.60742188 11.60503906 4.80078125 12.29210937 5 13 C4.34 13 3.68 13 3 13 C3 12.34 3 11.68 3 11 C2.34 11 1.68 11 1 11 C0.67 7.37 0.34 3.74 0 0 Z " fill="#2394D5" transform="translate(232,234)"/>
<path d="M0 0 C0.66 0.33 1.32 0.66 2 1 C1.44271087 4.34373475 0.64826111 7.03312999 -1 10 C-1.66 10 -2.32 10 -3 10 C-3.33 10.66 -3.66 11.32 -4 12 C-3.33501617 7.61110675 -1.81242323 4.0188515 0 0 Z " fill="#D7DFE2" transform="translate(134,143)"/>
<path d="M0 0 C-0.99 1.485 -0.99 1.485 -2 3 C-2.99 3 -3.98 3 -5 3 C-5.33 3.99 -5.66 4.98 -6 6 C-6.99 5.67 -7.98 5.34 -9 5 C-7.35234966 0.05704899 -4.76872479 -0.25776891 0 0 Z " fill="#233D57" transform="translate(139,72)"/>
<path d="M0 0 C0.68707555 2.49064888 1 4.37886292 1 7 C0.34 7.66 -0.32 8.32 -1 9 C-1.33 8.67 -1.66 8.34 -2 8 C-2.66 8.66 -3.32 9.32 -4 10 C-3.43454163 6.04179141 -2.19097652 3.3340947 0 0 Z " fill="#404A5C" transform="translate(134,262)"/>
<path d="M0 0 C1.32 0.66 2.64 1.32 4 2 C4 2.66 4 3.32 4 4 C3.01 4 2.02 4 1 4 C0.87625 4.639375 0.7525 5.27875 0.625 5.9375 C0.41875 6.618125 0.2125 7.29875 0 8 C-0.99 8.495 -0.99 8.495 -2 9 C-1.34 6.03 -0.68 3.06 0 0 Z " fill="#374251" transform="translate(235,145)"/>
<path d="M0 0 C0.33 0 0.66 0 1 0 C1.24954005 1.43410368 1.47392642 2.87260072 1.6875 4.3125 C1.87892578 5.51326172 1.87892578 5.51326172 2.07421875 6.73828125 C2 9 2 9 0.51953125 10.79296875 C0.01808594 11.19128906 -0.48335937 11.58960938 -1 12 C-2.36884358 7.48281619 -1.47075246 4.41225737 0 0 Z " fill="#A9CADD" transform="translate(164,339)"/>
<path d="M0 0 C0.33 0.66 0.66 1.32 1 2 C1.99 1.67 2.98 1.34 4 1 C4.66 1.99 5.32 2.98 6 4 C5.195625 4.12375 4.39125 4.2475 3.5625 4.375 C2.2940625 4.684375 2.2940625 4.684375 1 5 C0.67 5.66 0.34 6.32 0 7 C-0.66 7 -1.32 7 -2 7 C-1.34 4.69 -0.68 2.38 0 0 Z " fill="#3E4B5C" transform="translate(176,307)"/>
<path d="M0 0 C0.66 0.33 1.32 0.66 2 1 C1.39009109 4.55780196 0.4216319 7.6828589 -1 11 C-1.99 10.34 -2.98 9.68 -4 9 C-3.2884375 7.88625 -3.2884375 7.88625 -2.5625 6.75 C-1.22130673 4.38949985 -0.487688 2.63351523 0 0 Z " fill="#E1E8ED" transform="translate(246,110)"/>
<path d="M0 0 C2.97 0.495 2.97 0.495 6 1 C6 1.66 6 2.32 6 3 C7.32 3 8.64 3 10 3 C10 3.99 10 4.98 10 6 C6.40992874 4.66654496 3.20429093 3.1056769 0 1 C0 0.67 0 0.34 0 0 Z " fill="#E4F6FC" transform="translate(208,17)"/>
<path d="M0 0 C0.33 0 0.66 0 1 0 C0.67 3.63 0.34 7.26 0 11 C-0.99 10.67 -1.98 10.34 -3 10 C-2.05066101 6.64566891 -1.10251165 3.30753495 0 0 Z " fill="#AECDDF" transform="translate(160,352)"/>
<path d="M0 0 C4 6 4 6 4 11 C3.01 10.67 2.02 10.34 1 10 C0.67 6.7 0.34 3.4 0 0 Z " fill="#2494D3" transform="translate(304,269)"/>
<path d="M0 0 C0.66 0 1.32 0 2 0 C5.4887612 4.29385993 5.26854022 7.71870895 5 13 C4.67 13 4.34 13 4 13 C3.51891725 11.58398286 3.04021859 10.16715563 2.5625 8.75 C2.29566406 7.96109375 2.02882813 7.1721875 1.75390625 6.359375 C1.08045292 4.25178012 0.50849405 2.15246027 0 0 Z " fill="#0C4062" transform="translate(284,213)"/>
<path d="M0 0 C2.64 0 5.28 0 8 0 C5.14693203 2.32472205 2.45925163 3.7508258 -1 5 C-0.67 3.35 -0.34 1.7 0 0 Z " fill="#97BFDB" transform="translate(96,90)"/>
<path d="M0 0 C-6.75 4 -6.75 4 -9 4 C-8.1875 2.0625 -8.1875 2.0625 -7 0 C-3.86650268 -1.04449911 -3.01031744 -0.93423645 0 0 Z " fill="#ECFAFD" transform="translate(63,88)"/>
<path d="M0 0 C2.91517292 1.07401108 4.77810176 1.77810176 7 4 C5.02 4.66 3.04 5.32 1 6 C0.67 4.02 0.34 2.04 0 0 Z " fill="#99C1DD" transform="translate(170,344)"/>
<path d="M0 0 C0.66 0.33 1.32 0.66 2 1 C1.01 4.3 0.02 7.6 -1 11 C-1.66 9.68 -2.32 8.36 -3 7 C-2.34 6.67 -1.68 6.34 -1 6 C-1 5.01 -1 4.02 -1 3 C-1.66 2.67 -2.32 2.34 -3 2 C-2.01 1.34 -1.02 0.68 0 0 Z " fill="#3D4858" transform="translate(126,160)"/>
<path d="M0 0 C0.99 0.99 1.98 1.98 3 3 C2.34 4.32 1.68 5.64 1 7 C0.01 7 -0.98 7 -2 7 C-1.34 4.69 -0.68 2.38 0 0 Z " fill="#E4E9EC" transform="translate(196,136)"/>
<path d="M0 0 C0.66 0.33 1.32 0.66 2 1 C1.39009109 4.55780196 0.4216319 7.6828589 -1 11 C-2.60080151 6.99799622 -1.29279692 3.95443764 0 0 Z " fill="#E1E8EC" transform="translate(242,121)"/>
<path d="M0 0 C2.125 0.9375 2.125 0.9375 4 2 C2.02 3.32 0.04 4.64 -2 6 C-2 4.35 -2 2.7 -2 1 C-1.34 0.67 -0.68 0.34 0 0 Z " fill="#243F57" transform="translate(60,115)"/>
<path d="M0 0 C0 0.99 0 1.98 0 3 C-0.99 3 -1.98 3 -3 3 C-3.99 3.495 -3.99 3.495 -5 4 C-5.33 4.99 -5.66 5.98 -6 7 C-6 6.01 -6 5.02 -6 4 C-6.66 3.67 -7.32 3.34 -8 3 C-4.93882432 0.37613513 -4.26826873 0 0 0 Z " fill="#92B8D3" transform="translate(277,313)"/>
<path d="M0 0 C0.66 0.99 1.32 1.98 2 3 C0.02 3.66 -1.96 4.32 -4 5 C-4.66 4.34 -5.32 3.68 -6 3 C-4.02 2.01 -2.04 1.02 0 0 Z " fill="#98C1DE" transform="translate(330,281)"/>
<path d="M0 0 C0.99 0.33 1.98 0.66 3 1 C2.34 2.98 1.68 4.96 1 7 C-0.32 6.01 -1.64 5.02 -3 4 C-2.01 2.68 -1.02 1.36 0 0 Z " fill="#334257" transform="translate(110,202)"/>
<path d="M0 0 C2.92965912 2.92965912 3.94133569 5.680053 4.125 9.8125 C4.08375 10.534375 4.0425 11.25625 4 12 C0.46209597 8.30827405 0.40884117 4.90609405 0 0 Z " fill="#289BE3" transform="translate(262,155)"/>
<path d="M0 0 C3.4375 1.3125 3.4375 1.3125 7 3 C7.33 3.99 7.66 4.98 8 6 C5.0280615 4.87548273 2.66559313 3.77706209 0 2 C0 1.34 0 0.68 0 0 Z " fill="#E7F9FC" transform="translate(264,48)"/>
<path d="M0 0 C0 0.66 0 1.32 0 2 C-1.32 2 -2.64 2 -4 2 C-4.33 2.99 -4.66 3.98 -5 5 C-6.32 4.67 -7.64 4.34 -9 4 C-3.375 0 -3.375 0 0 0 Z " fill="#7ECBFD" transform="translate(313,292)"/>
<path d="M0 0 C0.33 0 0.66 0 1 0 C1.39222105 1.41199578 1.76311059 2.82992764 2.125 4.25 C2.33382812 5.03890625 2.54265625 5.8278125 2.7578125 6.640625 C3.04314411 9.4203071 2.44977894 10.65887549 1 13 C-0.00496852 9.98509443 -0.10335303 7.95818308 -0.0625 4.8125 C-0.05347656 3.91144531 -0.04445312 3.01039063 -0.03515625 2.08203125 C-0.02355469 1.39496094 -0.01195312 0.70789063 0 0 Z " fill="#A9C9DD" transform="translate(35,272)"/>
<path d="M0 0 C0.99 0 1.98 0 3 0 C3.33 1.98 3.66 3.96 4 6 C2.68 5.34 1.36 4.68 0 4 C0 2.68 0 1.36 0 0 Z " fill="#233D56" transform="translate(60,276)"/>
<path d="M0 0 C1.5625 1.25 1.5625 1.25 3 3 C2.6875 5.1875 2.6875 5.1875 2 7 C1.67 6.01 1.34 5.02 1 4 C0.67 4.66 0.34 5.32 0 6 C-0.66 6 -1.32 6 -2 6 C-1.125 1.125 -1.125 1.125 0 0 Z " fill="#1DA7F4" transform="translate(242,266)"/>
<path d="M0 0 C1.4606285 2.64738916 2 3.89448334 2 7 C1.01 7 0.02 7 -1 7 C-0.67 4.69 -0.34 2.38 0 0 Z " fill="#3D4957" transform="translate(146,226)"/>
<path d="M0 0 C1.32 0 2.64 0 4 0 C4 1.65 4 3.3 4 5 C3.34 4.67 2.68 4.34 2 4 C1.01 4.33 0.02 4.66 -1 5 C-0.67 3.35 -0.34 1.7 0 0 Z " fill="#229EE6" transform="translate(223,225)"/>
<path d="M0 0 C0.99 1.32 1.98 2.64 3 4 C2.01 5.32 1.02 6.64 0 8 C-0.66 7.67 -1.32 7.34 -2 7 C-1.34 4.69 -0.68 2.38 0 0 Z " fill="#ECEEF2" transform="translate(173,199)"/>
<path d="M0 0 C3 1 3 1 3 1 Z M-2 1 C-1.01 1.33 -0.02 1.66 1 2 C-0.98 4.97 -0.98 4.97 -3 8 C-4 5 -4 5 -3.0625 2.8125 C-2.5365625 1.9153125 -2.5365625 1.9153125 -2 1 Z " fill="#D4DADF" transform="translate(203,121)"/>
<path d="M0 0 C3.45925163 1.2491742 6.14693203 2.67527795 9 5 C5.26512223 4.5020163 3.18762365 4.12508244 0 2 C0 1.34 0 0.68 0 0 Z " fill="#27415A" transform="translate(320,109)"/>
<path d="M0 0 C0.66 0 1.32 0 2 0 C5 5.75 5 5.75 5 8 C2 7 2 7 0.8125 5.125 C0 3 0 3 0 0 Z " fill="#B3D1E4" transform="translate(352,104)"/>
<path d="M0 0 C1.32 1.65 2.64 3.3 4 5 C2.02 5.66 0.04 6.32 -2 7 C-2 5.68 -2 4.36 -2 3 C-1.34 2.67 -0.68 2.34 0 2 C0 1.34 0 0.68 0 0 Z " fill="#97C1DE" transform="translate(67,105)"/>
<path d="M0 0 C0.66 0.33 1.32 0.66 2 1 C1.01 4.3 0.02 7.6 -1 11 C-1.33 11 -1.66 11 -2 11 C-2.05399736 9.54207116 -2.09279177 8.08357288 -2.125 6.625 C-2.15980469 5.40683594 -2.15980469 5.40683594 -2.1953125 4.1640625 C-2 2 -2 2 0 0 Z " fill="#ECFBFE" transform="translate(36,106)"/>
<path d="M0 0 C1.32 0.66 2.64 1.32 4 2 C3.67 2.99 3.34 3.98 3 5 C0.525 4.01 0.525 4.01 -2 3 C-1.34 2.01 -0.68 1.02 0 0 Z " fill="#A5C9E2" transform="translate(44,99)"/>
<path d="M0 0 C0.66 0.66 1.32 1.32 2 2 C-0.3125 3.5625 -0.3125 3.5625 -3 5 C-3.99 4.67 -4.98 4.34 -6 4 C-6 3.34 -6 2.68 -6 2 C-4.02 1.34 -2.04 0.68 0 0 Z " fill="#97BEDA" transform="translate(171,49)"/>
<path d="M0 0 C1.2065625 0.0309375 1.2065625 0.0309375 2.4375 0.0625 C-0.25091859 2.31495881 -2.20891875 3.94463958 -5.5625 5.0625 C-3.15007962 0.07683121 -3.15007962 0.07683121 0 0 Z " fill="#EFFAFD" transform="translate(155.5625,31.9375)"/>
<path d="M0 0 C0.66 0.33 1.32 0.66 2 1 C1.01 2.485 1.01 2.485 0 4 C-3.625 4.6875 -3.625 4.6875 -7 5 C-5.47058649 1.94117299 -3.05780454 1.31048766 0 0 Z " fill="#E1F4FB" transform="translate(276,338)"/>
<path d="M0 0 C0.33 0.66 0.66 1.32 1 2 C0.06421005 4.35981813 -0.93347808 6.69631264 -2 9 C-2.33 9 -2.66 9 -3 9 C-3.36923077 3.46153846 -3.36923077 3.46153846 -1.5 1.125 C-1.005 0.75375 -0.51 0.3825 0 0 Z " fill="#303B4B" transform="translate(89,264)"/>
<path d="M0 0 C2.96 4.44 2.96 4.44 4 7 C3.67 7.99 3.34 8.98 3 10 C2.34 9.67 1.68 9.34 1 9 C0.5859375 6.93359375 0.5859375 6.93359375 0.375 4.4375 C0.30023438 3.61121094 0.22546875 2.78492188 0.1484375 1.93359375 C0.09945313 1.29550781 0.05046875 0.65742188 0 0 Z " fill="#2690D1" transform="translate(284,214)"/>
<path d="M0 0 C0.66 0.99 1.32 1.98 2 3 C1.67 3.99 1.34 4.98 1 6 C0.34 6 -0.32 6 -1 6 C-1.33 6.99 -1.66 7.98 -2 9 C-2.33 8.34 -2.66 7.68 -3 7 C-2.06421005 4.64018187 -1.06652192 2.30368736 0 0 Z " fill="#E3E7EE" transform="translate(114,198)"/>
<path d="M0 0 C0.33 0.66 0.66 1.32 1 2 C1.66 2.33 2.32 2.66 3 3 C1.02 3.66 -0.96 4.32 -3 5 C-3.33 4.01 -3.66 3.02 -4 2 C-2.68 1.34 -1.36 0.68 0 0 Z " fill="#293F59" transform="translate(121,80)"/>
</svg>
