<?xml version="1.0" encoding="UTF-8"?>
<svg version="1.1" xmlns="http://www.w3.org/2000/svg" width="400" height="400">
<path d="M0 0 C132 0 264 0 400 0 C400 132 400 264 400 400 C268 400 136 400 0 400 C0 268 0 136 0 0 Z " fill="#FEFEFE" transform="translate(0,0)"/>
<path d="M0 0 C0.91234004 -0.00594224 1.82468009 -0.01188449 2.7646668 -0.0180068 C5.83462337 -0.03540818 8.90442422 -0.03839955 11.97442627 -0.04138184 C14.17038304 -0.0506363 16.36633659 -0.06068536 18.56228638 -0.07147217 C24.53759354 -0.09774331 30.51285573 -0.11061465 36.48821163 -0.11949348 C40.2199025 -0.12535144 43.95158102 -0.1335604 47.68326569 -0.14250183 C59.35457508 -0.1698583 71.02585864 -0.18922005 82.69719768 -0.19690561 C84.04058377 -0.19779254 85.38396987 -0.19868567 86.72735596 -0.19958496 C87.7269035 -0.20024925 87.7269035 -0.20024925 88.74664393 -0.20092696 C99.54094829 -0.20882075 110.33498243 -0.2437215 121.12918243 -0.29030401 C132.21360506 -0.33775245 143.2979153 -0.36214092 154.38244367 -0.36498785 C160.60516511 -0.36708562 166.82750555 -0.37893563 173.05013275 -0.41462708 C178.90417042 -0.4475503 184.75753994 -0.45191886 190.61163712 -0.43434906 C192.759869 -0.43280619 194.90813652 -0.44152202 197.05627823 -0.46126556 C199.99062751 -0.48665264 202.922601 -0.47498568 205.85693359 -0.45410156 C206.70606976 -0.47021437 207.55520593 -0.48632718 208.4300735 -0.50292826 C213.99782662 -0.41031818 216.84471626 0.9582614 220.88137746 4.79891062 C224.03404058 8.38996276 223.33372268 12.46413988 223.33633423 16.98492432 C223.34290761 18.35321109 223.34290761 18.35321109 223.34961379 19.74914002 C223.36303376 22.82450195 223.36918781 25.8998352 223.37530518 28.97521973 C223.3832036 31.17264944 223.39147238 33.37007785 223.40008545 35.56750488 C223.42633475 42.80007686 223.44161559 50.03265472 223.45587158 57.26525879 C223.46122999 59.75209812 223.46660749 62.23893742 223.47200394 64.72577667 C223.49363656 75.06791049 223.51237448 85.41004272 223.52362633 95.75219345 C223.52655606 98.43656163 223.52951772 101.12092977 223.53253174 103.80529785 C223.53327779 104.47249069 223.53402384 105.13968354 223.5347925 105.82709435 C223.5474459 116.63502652 223.58066823 127.44279416 223.62233357 138.25064942 C223.66475374 149.34519877 223.68791381 160.43967968 223.69354689 171.53431153 C223.69720558 177.76424219 223.70928223 183.99389401 223.74164963 190.22374725 C223.77166114 196.08426126 223.77806658 201.94432673 223.76626587 207.80490112 C223.76604456 209.95677611 223.77439683 212.1086715 223.79191971 214.26047516 C223.81453378 217.19716293 223.80635202 220.13221357 223.79043579 223.06890869 C223.80431788 223.92163982 223.81819997 224.77437095 223.83250272 225.65294242 C223.77725643 229.78647437 223.46812348 232.45158933 220.83193398 235.73163223 C216.02950837 240.35234989 212.74610319 240.57300367 206.35813904 240.55503845 C205.44509343 240.56027513 204.53204782 240.56551181 203.59133416 240.57090718 C200.51903657 240.58595914 197.44690475 240.58661347 194.37457275 240.58728027 C192.17699399 240.59489829 189.9794179 240.60332516 187.78184509 240.61250305 C181.80246662 240.63449081 175.8231393 240.64325276 169.84372497 240.6483295 C166.11003175 240.65196816 162.37635204 240.65820566 158.64266396 240.66533089 C146.29517294 240.68857463 133.94771187 240.70254216 121.60020014 240.70586693 C120.93438568 240.70604974 120.26857122 240.70623255 119.58258057 240.7064209 C118.91595322 240.70660145 118.24932588 240.706782 117.56249771 240.70696802 C106.76108661 240.71050955 95.95987489 240.73753002 85.15853294 240.77491879 C74.0684626 240.81299971 62.97847502 240.83192379 51.888336 240.83266693 C45.66178693 240.83346101 39.43549497 240.84225997 33.20900536 240.8706646 C27.35256472 240.89678255 21.49659551 240.89908523 15.64012337 240.88300896 C13.48986664 240.88118946 11.33958319 240.88793012 9.18938446 240.90382767 C6.25492135 240.92420189 3.32212103 240.91378692 0.38768005 240.89561462 C-0.46436896 240.90881459 -1.31641797 240.92201456 -2.19428664 240.93561453 C-6.28591436 240.8776931 -8.99515391 240.56758607 -12.26789379 237.99246311 C-17.03163806 232.92621545 -17.11109252 229.20788067 -17.09172058 222.3742981 C-17.09695726 221.46448161 -17.10219394 220.55466513 -17.1075893 219.61727846 C-17.12261755 216.56190609 -17.12329508 213.50670077 -17.1239624 210.45129395 C-17.13158193 208.26341976 -17.14000907 206.07554826 -17.14918518 203.88768005 C-17.1711562 197.93935151 -17.17993249 191.99107437 -17.18501163 186.04270983 C-17.18865183 182.3279398 -17.19489011 178.61318331 -17.20201302 174.89841843 C-17.22525043 162.61217169 -17.23922305 150.32595986 -17.24254905 138.03969164 C-17.24273187 137.37742958 -17.24291468 136.71516752 -17.24310303 136.03283691 C-17.24328358 135.36976569 -17.24346413 134.70669446 -17.24365015 134.02353017 C-17.24719252 123.27714771 -17.27421993 112.53096554 -17.31160092 101.78465255 C-17.34968168 90.74878315 -17.36860589 79.71301812 -17.36934906 68.67708242 C-17.37014307 62.48184683 -17.3789389 56.28686968 -17.40734673 50.09169388 C-17.43346431 44.26560793 -17.43576759 38.43999586 -17.41969109 32.61387825 C-17.41787164 30.47490852 -17.42461179 28.33591193 -17.4405098 26.1970005 C-17.4608849 23.27791471 -17.45046865 20.36050033 -17.43229675 17.44143677 C-17.44549672 16.59396083 -17.45869669 15.74648488 -17.47229666 14.87332785 C-17.41365244 10.75213134 -17.09447013 8.10279782 -14.46664524 4.83334923 C-9.66928953 0.21095663 -6.38526634 -0.0128959 0 0 Z " fill="#0000FD" transform="translate(96.81756591796875,79.7191162109375)"/>
<path d="M0 0 C0.91234004 -0.00594224 1.82468009 -0.01188449 2.7646668 -0.0180068 C5.83462337 -0.03540818 8.90442422 -0.03839955 11.97442627 -0.04138184 C14.17038304 -0.0506363 16.36633659 -0.06068536 18.56228638 -0.07147217 C24.53759354 -0.09774331 30.51285573 -0.11061465 36.48821163 -0.11949348 C40.2199025 -0.12535144 43.95158102 -0.1335604 47.68326569 -0.14250183 C59.35457508 -0.1698583 71.02585864 -0.18922005 82.69719768 -0.19690561 C84.04058377 -0.19779254 85.38396987 -0.19868567 86.72735596 -0.19958496 C87.7269035 -0.20024925 87.7269035 -0.20024925 88.74664393 -0.20092696 C99.54094829 -0.20882075 110.33498243 -0.2437215 121.12918243 -0.29030401 C132.21360506 -0.33775245 143.2979153 -0.36214092 154.38244367 -0.36498785 C160.60516511 -0.36708562 166.82750555 -0.37893563 173.05013275 -0.41462708 C178.90417042 -0.4475503 184.75753994 -0.45191886 190.61163712 -0.43434906 C192.759869 -0.43280619 194.90813652 -0.44152202 197.05627823 -0.46126556 C199.99062751 -0.48665264 202.922601 -0.47498568 205.85693359 -0.45410156 C206.70606976 -0.47021437 207.55520593 -0.48632718 208.4300735 -0.50292826 C213.99782662 -0.41031818 216.84471626 0.9582614 220.88137746 4.79891062 C224.03404058 8.38996276 223.33372268 12.46413988 223.33633423 16.98492432 C223.34290761 18.35321109 223.34290761 18.35321109 223.34961379 19.74914002 C223.36303376 22.82450195 223.36918781 25.8998352 223.37530518 28.97521973 C223.3832036 31.17264944 223.39147238 33.37007785 223.40008545 35.56750488 C223.42633475 42.80007686 223.44161559 50.03265472 223.45587158 57.26525879 C223.46122999 59.75209812 223.46660749 62.23893742 223.47200394 64.72577667 C223.49363656 75.06791049 223.51237448 85.41004272 223.52362633 95.75219345 C223.52655606 98.43656163 223.52951772 101.12092977 223.53253174 103.80529785 C223.53327779 104.47249069 223.53402384 105.13968354 223.5347925 105.82709435 C223.5474459 116.63502652 223.58066823 127.44279416 223.62233357 138.25064942 C223.66475374 149.34519877 223.68791381 160.43967968 223.69354689 171.53431153 C223.69720558 177.76424219 223.70928223 183.99389401 223.74164963 190.22374725 C223.77166114 196.08426126 223.77806658 201.94432673 223.76626587 207.80490112 C223.76604456 209.95677611 223.77439683 212.1086715 223.79191971 214.26047516 C223.81453378 217.19716293 223.80635202 220.13221357 223.79043579 223.06890869 C223.80431788 223.92163982 223.81819997 224.77437095 223.83250272 225.65294242 C223.77725643 229.78647437 223.46812348 232.45158933 220.83193398 235.73163223 C216.02950837 240.35234989 212.74610319 240.57300367 206.35813904 240.55503845 C205.44509343 240.56027513 204.53204782 240.56551181 203.59133416 240.57090718 C200.51903657 240.58595914 197.44690475 240.58661347 194.37457275 240.58728027 C192.17699399 240.59489829 189.9794179 240.60332516 187.78184509 240.61250305 C181.80246662 240.63449081 175.8231393 240.64325276 169.84372497 240.6483295 C166.11003175 240.65196816 162.37635204 240.65820566 158.64266396 240.66533089 C146.29517294 240.68857463 133.94771187 240.70254216 121.60020014 240.70586693 C120.93438568 240.70604974 120.26857122 240.70623255 119.58258057 240.7064209 C118.91595322 240.70660145 118.24932588 240.706782 117.56249771 240.70696802 C106.76108661 240.71050955 95.95987489 240.73753002 85.15853294 240.77491879 C74.0684626 240.81299971 62.97847502 240.83192379 51.888336 240.83266693 C45.66178693 240.83346101 39.43549497 240.84225997 33.20900536 240.8706646 C27.35256472 240.89678255 21.49659551 240.89908523 15.64012337 240.88300896 C13.48986664 240.88118946 11.33958319 240.88793012 9.18938446 240.90382767 C6.25492135 240.92420189 3.32212103 240.91378692 0.38768005 240.89561462 C-0.46436896 240.90881459 -1.31641797 240.92201456 -2.19428664 240.93561453 C-6.28591436 240.8776931 -8.99515391 240.56758607 -12.26789379 237.99246311 C-17.03163806 232.92621545 -17.11109252 229.20788067 -17.09172058 222.3742981 C-17.09695726 221.46448161 -17.10219394 220.55466513 -17.1075893 219.61727846 C-17.12261755 216.56190609 -17.12329508 213.50670077 -17.1239624 210.45129395 C-17.13158193 208.26341976 -17.14000907 206.07554826 -17.14918518 203.88768005 C-17.1711562 197.93935151 -17.17993249 191.99107437 -17.18501163 186.04270983 C-17.18865183 182.3279398 -17.19489011 178.61318331 -17.20201302 174.89841843 C-17.22525043 162.61217169 -17.23922305 150.32595986 -17.24254905 138.03969164 C-17.24273187 137.37742958 -17.24291468 136.71516752 -17.24310303 136.03283691 C-17.24328358 135.36976569 -17.24346413 134.70669446 -17.24365015 134.02353017 C-17.24719252 123.27714771 -17.27421993 112.53096554 -17.31160092 101.78465255 C-17.34968168 90.74878315 -17.36860589 79.71301812 -17.36934906 68.67708242 C-17.37014307 62.48184683 -17.3789389 56.28686968 -17.40734673 50.09169388 C-17.43346431 44.26560793 -17.43576759 38.43999586 -17.41969109 32.61387825 C-17.41787164 30.47490852 -17.42461179 28.33591193 -17.4405098 26.1970005 C-17.4608849 23.27791471 -17.45046865 20.36050033 -17.43229675 17.44143677 C-17.44549672 16.59396083 -17.45869669 15.74648488 -17.47229666 14.87332785 C-17.41365244 10.75213134 -17.09447013 8.10279782 -14.46664524 4.83334923 C-9.66928953 0.21095663 -6.38526634 -0.0128959 0 0 Z M-2.81756592 3.28088379 C-4.48378207 3.319633 -6.15150763 3.32591239 -7.81756592 3.28088379 C-8.14756592 4.27088379 -8.47756592 5.26088379 -8.81756592 6.28088379 C-9.80756592 6.28088379 -10.79756592 6.28088379 -11.81756592 6.28088379 C-12.14756592 5.62088379 -12.47756592 4.96088379 -12.81756592 4.28088379 C-14.67609953 9.80868007 -15.10264893 14.63892058 -15.0715332 20.44779968 C-15.07465318 21.34933991 -15.07777317 22.25088014 -15.08098769 23.17973977 C-15.08894057 26.18902627 -15.08265466 29.1981096 -15.07635498 32.20739746 C-15.07906598 34.36940122 -15.08262753 36.53140406 -15.0869751 38.69340515 C-15.09608667 44.55673165 -15.09256032 50.4199877 -15.08621693 56.28331542 C-15.08115254 62.41803028 -15.08584942 68.55273912 -15.08898926 74.68745422 C-15.09262679 84.98610517 -15.08783451 95.28472743 -15.07830811 105.58337402 C-15.06741532 117.49690871 -15.07095599 129.41037499 -15.08196092 141.32390803 C-15.09102951 151.54993533 -15.09232143 161.775942 -15.08708358 172.00197202 C-15.08396264 178.11093188 -15.08355813 184.21985956 -15.09015656 190.32881737 C-15.09592344 196.06864065 -15.09194515 201.80837546 -15.08036804 207.54818916 C-15.07771831 209.65735095 -15.07849185 211.76652016 -15.08289337 213.87567902 C-15.08833765 216.7488603 -15.08152831 219.62175587 -15.0715332 222.49491882 C-15.07599465 223.33450124 -15.08045609 224.17408367 -15.08505273 225.03910798 C-15.04916691 230.45862281 -15.04916691 230.45862281 -12.81756592 235.28088379 C-12.15756592 235.28088379 -11.49756592 235.28088379 -10.81756592 235.28088379 C-10.48756592 234.95088379 -10.15756592 234.62088379 -9.81756592 234.28088379 C-9.15756592 234.94088379 -8.49756592 235.60088379 -7.81756592 236.28088379 C-6.99256592 236.11588379 -6.16756592 235.95088379 -5.31756592 235.78088379 C-4.49256592 235.61588379 -3.66756592 235.45088379 -2.81756592 235.28088379 C-2.15756592 235.94088379 -1.49756592 236.60088379 -0.81756592 237.28088379 C1.68849805 237.47614462 4.08384426 237.54581172 6.59088135 237.52812195 C7.75045743 237.53174357 7.75045743 237.53174357 8.93345928 237.53543836 C11.53867078 237.54109931 14.14363964 237.53239371 16.74884033 237.52380371 C18.61153225 237.52487614 20.47422385 237.52681424 22.33691406 237.52955627 C27.41225521 237.53441938 32.48750892 237.52672648 37.56283951 237.51660323 C42.88224439 237.50782582 48.20164649 237.50958026 53.52105713 237.50996399 C62.47265077 237.50902586 71.42421063 237.5003295 80.37579346 237.48669434 C90.68763366 237.47104397 100.99943665 237.46569355 111.31128788 237.46642989 C122.31589296 237.46710932 133.3204839 237.46013724 144.32508469 237.45098329 C147.47765915 237.44886415 150.63023129 237.44814372 153.7828064 237.44774437 C158.77321957 237.44672844 163.76360234 237.44053166 168.75400543 237.43057823 C170.57185937 237.42769308 172.38971681 237.42641961 174.20757294 237.42700577 C185.90029115 237.42934611 197.51439325 237.04857198 209.18243408 236.28088379 C209.51243408 235.29088379 209.84243408 234.30088379 210.18243408 233.28088379 C210.84243408 233.94088379 211.50243408 234.60088379 212.18243408 235.28088379 C212.84243408 234.95088379 213.50243408 234.62088379 214.18243408 234.28088379 C214.18243408 233.62088379 214.18243408 232.96088379 214.18243408 232.28088379 C216.16243408 232.61088379 218.14243408 232.94088379 220.18243408 233.28088379 C220.93708608 227.2452709 221.32529786 221.38048626 221.3026886 215.30210876 C221.30354302 214.44504005 221.30439745 213.58797134 221.30527776 212.70493084 C221.30691329 209.85840045 221.30144303 207.01193016 221.29595947 204.16540527 C221.29567716 202.11484275 221.2958362 200.06428012 221.29640198 198.01371765 C221.29668822 192.46483189 221.29081939 186.91596785 221.28382802 181.36708713 C221.27756575 175.56150343 221.27698841 169.7559192 221.27580261 163.95033264 C221.27269777 152.96459452 221.26449579 141.97886638 221.25445312 130.99313265 C221.24326569 118.48288519 221.23777491 105.97263724 221.23275769 93.46238601 C221.22231247 67.73521308 221.20472943 42.00804899 221.18243408 16.28088379 C220.52243408 16.28088379 219.86243408 16.28088379 219.18243408 16.28088379 C219.38868408 15.51775879 219.59493408 14.75463379 219.80743408 13.96838379 C220.51634612 11.06202435 220.51634612 11.06202435 218.18243408 8.28088379 C217.19243408 8.61088379 216.20243408 8.94088379 215.18243408 9.28088379 C215.18243408 7.63088379 215.18243408 5.98088379 215.18243408 4.28088379 C209.42852693 2.6388451 204.34804643 1.99430798 198.38206482 2.03364563 C197.53205078 2.03123121 196.68203674 2.0288168 195.8062647 2.02632922 C192.97739175 2.020724 190.14874782 2.02933107 187.31988525 2.03796387 C185.28418924 2.03689023 183.24849353 2.03495034 181.21279907 2.0322113 C175.69875408 2.02737436 170.18479032 2.03500323 164.67075515 2.04516435 C158.89993494 2.05395904 153.12911717 2.05218716 147.35829163 2.05180359 C137.67343794 2.05273928 127.98861563 2.06141245 118.30377197 2.07507324 C107.09855428 2.09081991 95.89337091 2.09607053 84.68814296 2.09533769 C73.91116813 2.094728 63.13420451 2.09982659 52.35723305 2.1081295 C47.76837387 2.11166445 43.17951866 2.11349304 38.59065819 2.11402321 C33.19392892 2.11502557 27.7972286 2.12111341 22.40050888 2.13118935 C20.41670598 2.13411683 18.43289975 2.13533921 16.44909477 2.13476181 C13.7486605 2.13427313 11.04830804 2.13990688 8.34788513 2.14717102 C7.55665432 2.14562242 6.7654235 2.14407382 5.950216 2.14247829 C2.76067465 2.15672073 0.23114394 2.26464717 -2.81756592 3.28088379 Z " fill="#0203E8" transform="translate(96.81756591796875,79.7191162109375)"/>
<path d="M0 0 C1 2 1 2 0.57043648 4.066679 C-0.20245832 8.04108918 -0.13771861 11.89367611 -0.12698364 15.93313599 C-0.12854363 16.83367293 -0.13010362 17.73420988 -0.13171089 18.66203582 C-0.13569981 21.67981787 -0.1325394 24.69754961 -0.12939453 27.71533203 C-0.13074948 29.87866241 -0.13252995 32.04199256 -0.13470459 34.20532227 C-0.13926716 40.08107903 -0.13749432 45.95681825 -0.1343255 51.83257532 C-0.1317965 57.97577621 -0.13414089 64.11897557 -0.13571167 70.26217651 C-0.1375315 80.57696808 -0.13513163 90.89175249 -0.13037109 101.20654297 C-0.12492595 113.14275979 -0.12669371 125.07895953 -0.1321975 137.01517594 C-0.13673048 147.2547308 -0.13737836 157.49428051 -0.13475883 167.73383605 C-0.13319745 173.85340459 -0.13299857 179.97296509 -0.13629532 186.09253311 C-0.1391768 191.84297234 -0.13719321 197.59338946 -0.13140106 203.34382629 C-0.13007508 205.45824522 -0.13046485 207.572666 -0.13266373 209.6870842 C-0.13538147 212.56502529 -0.13198639 215.44289481 -0.12698364 218.3208313 C-0.12921436 219.1646908 -0.13144509 220.0085503 -0.13374341 220.87798131 C-0.1225632 224.1759326 -0.05036576 226.84890271 1 230 C1.66 230.33 2.32 230.66 3 231 C3 230.34 3 229.68 3 229 C3.66 229.33 4.32 229.66 5 230 C4.67 230.99 4.34 231.98 4 233 C8.28010196 234.19927541 12.45597424 234.15312742 16.87103271 234.15821838 C17.77691549 234.16315636 18.68279826 234.16809434 19.61613202 234.17318195 C22.65782313 234.18856521 25.69949312 234.19691985 28.74121094 234.20532227 C30.91911505 234.21490013 33.09701731 234.22491016 35.2749176 234.23532104 C41.19390155 234.26238603 47.11289349 234.28338699 53.03190517 234.30332303 C59.21523435 234.32517273 65.39853886 234.35256639 71.58184814 234.37937927 C83.29376183 234.42931989 95.0056892 234.47425366 106.71762967 234.51740164 C120.05001271 234.56668364 133.38236991 234.62168477 146.71472883 234.67708123 C174.14312947 234.7909223 201.57155385 234.89775673 229 235 C229 235.33 229 235.66 229 236 C200.56590622 236.11406662 172.13184121 236.20255017 143.69756343 236.25532665 C140.34053019 236.26158017 136.98349741 236.26805178 133.62646484 236.2746582 C132.62397907 236.27662553 132.62397907 236.27662553 131.60124107 236.2786326 C120.78025863 236.30038832 109.95940902 236.33981068 99.13850538 236.38576398 C88.03498845 236.43252414 76.9315257 236.45992019 65.82791293 236.47044247 C59.59123173 236.47696678 53.3548518 236.49232435 47.11826706 236.52865028 C41.24958882 236.56255673 35.38133631 236.57306357 29.51256943 236.56553841 C27.35746447 236.56691533 25.20234546 236.57687931 23.04732513 236.59602737 C20.10617004 236.62088129 17.1666252 236.61493268 14.22543335 236.60127258 C12.9442903 236.62311889 12.9442903 236.62311889 11.63726556 236.64540654 C7.5399202 236.59391869 4.82622124 236.29145037 1.54841042 233.71242046 C-3.21881678 228.63838509 -3.29099908 224.92174082 -3.26069641 218.07995605 C-3.26452196 217.16872844 -3.26834751 216.25750083 -3.27228898 215.31866026 C-3.28262587 212.25860582 -3.27862552 209.19873877 -3.2746582 206.13867188 C-3.27900425 203.94755377 -3.28418704 201.75643719 -3.29014587 199.56532288 C-3.30355757 193.60885248 -3.3041122 187.65244546 -3.30158257 181.69596291 C-3.30051449 176.72796284 -3.30539198 171.75997567 -3.310188 166.79197836 C-3.32192552 154.40504021 -3.32105376 142.01813338 -3.31463119 129.63119334 C-3.3094603 118.87058049 -3.32072165 108.11005812 -3.33972941 97.34946316 C-3.35909391 86.30230663 -3.36707468 75.25519502 -3.36360615 64.20802164 C-3.36178984 58.00509897 -3.36446427 51.80225919 -3.37832069 45.59934998 C-3.39085842 39.76843148 -3.38899345 33.93769467 -3.37590981 28.1067791 C-3.37353573 25.96375404 -3.37630823 23.82071635 -3.38453293 21.67770576 C-3.39493177 18.75827175 -3.38695509 15.8394552 -3.3742218 12.92004395 C-3.38159609 12.06674232 -3.38897037 11.21344069 -3.39656812 10.33428144 C-3.36457919 6.86177543 -3.27655072 4.46428016 -1.47661114 1.44249725 C-0.98932946 0.96647316 -0.50204779 0.49044907 0 0 Z " fill="#3032DB" transform="translate(83,84)"/>
<path d="M0 0 C1.65 0.66 3.3 1.32 5 2 C5.33 1.34 5.66 0.68 6 0 C6 0.66 6 1.32 6 2 C6.66 2 7.32 2 8 2 C8 2.99 8 3.98 8 5 C1.85456094 6.60006966 -3.84017847 7.28915764 -10.17964172 7.25396729 C-11.05838949 7.25708727 -11.93713725 7.26020725 -12.84251374 7.26342177 C-15.76267348 7.27134644 -18.68262222 7.26509995 -21.6027832 7.25878906 C-23.70596945 7.26150128 -25.80915475 7.26506351 -27.91233826 7.26940918 C-33.60613098 7.27850511 -39.299851 7.27500119 -44.99364495 7.26865101 C-50.95484628 7.26357989 -56.91604147 7.26828524 -62.87724304 7.27142334 C-72.88147091 7.27505832 -82.8856692 7.27027467 -92.88989258 7.26074219 C-104.46151126 7.24984368 -116.03305955 7.25339524 -127.60467654 7.264395 C-137.54199938 7.27346346 -147.479301 7.27475576 -157.41662663 7.26951766 C-163.35117605 7.26639745 -169.28569234 7.26599035 -175.22023964 7.27259064 C-180.79429368 7.27835755 -186.36825662 7.2743792 -191.9423008 7.26280212 C-193.99018706 7.26015268 -196.03808096 7.26092546 -198.0859642 7.26532745 C-200.87583929 7.27077268 -203.66542026 7.26396134 -206.45527649 7.25396729 C-207.67758523 7.26065945 -207.67758523 7.26065945 -208.92458707 7.26748681 C-212.75267767 7.24079014 -215.75832955 7.17620325 -219 5 C-219 4.34 -219 3.68 -219 3 C-218.05125 3.020625 -217.1025 3.04125 -216.125 3.0625 C-213.09333717 3.22551826 -213.09333717 3.22551826 -211 2 C-210.67 2.66 -210.34 3.32 -210 4 C-185.27718403 4.02342353 -160.55436973 4.04102544 -135.83154488 4.05181217 C-124.35074618 4.05695511 -112.86995441 4.06395943 -101.38916016 4.07543945 C-91.37541349 4.08544771 -81.36167183 4.09186797 -71.3479203 4.09408849 C-66.05219328 4.09538522 -60.7564806 4.09840472 -55.46075821 4.10573006 C-50.46217201 4.11258746 -45.46360587 4.11459747 -40.46501541 4.11310768 C-38.64393504 4.11337969 -36.82285391 4.11532654 -35.00177765 4.11920547 C-23.29842635 4.14288188 -11.67845973 3.7726522 0 3 C0 2.01 0 1.02 0 0 Z " fill="#0403E3" transform="translate(306,312)"/>
<path d="M0 0 C0.33 0.66 0.66 1.32 1 2 C1.99 2 2.98 2 4 2 C4 2.99 4 3.98 4 5 C2.68 5 1.36 5 0 5 C0.16263497 5.58199893 0.32526995 6.16399787 0.49283326 6.76363313 C1.29522662 10.3018106 1.12222099 13.8685346 1.10006714 17.47793579 C1.09817373 18.77338996 1.09817373 18.77338996 1.09624207 20.09501493 C1.09085705 22.99387663 1.07833163 25.89266442 1.06591797 28.79150391 C1.06072573 30.86763905 1.0560174 32.94377545 1.05175781 35.01991272 C1.04181222 39.49266322 1.02896115 43.96539282 1.01403427 48.43812943 C0.99100433 55.50442965 0.97767811 62.57072699 0.96633911 69.63705444 C0.93287434 89.73138015 0.89116654 109.82566418 0.82861328 129.91992188 C0.79415233 141.01612582 0.77030368 152.1122991 0.75840485 163.20855081 C0.75161678 169.08391427 0.73909164 174.95914764 0.71337509 180.83446121 C0.68921108 186.35509115 0.67872941 191.87557239 0.67897034 197.39625359 C0.67653834 199.42725228 0.66891444 201.45825205 0.65584183 203.48921013 C0.63879561 206.25167556 0.64000181 209.01353442 0.64596558 211.77603149 C0.63654493 212.58846742 0.62712429 213.40090335 0.61741817 214.23795855 C0.5995546 216.69132262 0.5995546 216.69132262 1 220 C1.99 220.66 2.98 221.32 4 222 C4 222.66 4 223.32 4 224 C2.68 224 1.36 224 0 224 C0 225.32 0 226.64 0 228 C1.65 228 3.3 228 5 228 C4.505 228.99 4.505 228.99 4 230 C3.34 229.67 2.68 229.34 2 229 C2 229.66 2 230.32 2 231 C1.01 230.67 0.02 230.34 -1 230 C-1.76286999 223.90574419 -2.14556909 217.97826932 -2.13371277 211.84054565 C-2.13597833 210.96391459 -2.13824388 210.08728352 -2.14057809 209.18408787 C-2.14686636 206.27098627 -2.14609209 203.35793182 -2.14526367 200.44482422 C-2.14825827 198.34650615 -2.15166149 196.24818863 -2.15544128 194.14987183 C-2.16425176 188.46829483 -2.16661807 182.78673291 -2.16725707 177.10514975 C-2.16796889 173.55400658 -2.17010563 170.00286722 -2.17275429 166.45172501 C-2.18199569 154.05944832 -2.1860904 141.66718237 -2.18530273 129.27490234 C-2.18470124 117.72720548 -2.19527022 106.17955522 -2.2110464 94.63187015 C-2.22411832 84.70979082 -2.22948682 74.78772673 -2.22884732 64.86563885 C-2.22859237 58.94272605 -2.23144255 53.01985475 -2.24202538 47.09695053 C-2.25170125 41.53028164 -2.25178902 35.96369399 -2.24450874 30.39702225 C-2.24346249 28.35523103 -2.24582818 26.31343477 -2.2518692 24.27165222 C-2.25958584 21.48283485 -2.25494653 18.69429837 -2.24723816 15.90548706 C-2.25238172 15.09935309 -2.25752529 14.29321913 -2.26282471 13.46265686 C-2.23320332 8.60712447 -1.54212812 4.61035172 0 0 Z " fill="#0202ED" transform="translate(84,84)"/>
<path d="M0 0 C2.26185286 1.65626424 3.79692544 3.01761949 4.37955773 5.83612418 C4.52032707 8.21296424 4.5375905 10.56353264 4.5146637 12.94454956 C4.52508199 14.31539961 4.52508199 14.31539961 4.53571075 15.7139436 C4.55404065 18.78333789 4.54369965 21.85196449 4.53344727 24.92138672 C4.54050275 27.11911601 4.5492462 29.31684044 4.55955505 31.51455688 C4.58210168 37.48981821 4.57909671 43.46481532 4.57023358 49.44010305 C4.56513138 54.42532506 4.57241012 59.41049707 4.57970566 64.39571393 C4.59769536 76.82840599 4.59127698 89.26098048 4.57353585 101.69366218 C4.55884403 112.48855845 4.573459 123.28317625 4.60230602 134.07803665 C4.63170916 145.16363788 4.64216126 156.24912752 4.63312382 167.33476841 C4.6281897 173.55792477 4.63043651 179.78086471 4.65091133 186.00399399 C4.66924352 191.85637932 4.6633393 197.70824673 4.63871193 203.5606041 C4.6336961 205.70923605 4.63721369 207.85790729 4.64986038 210.00650787 C4.66575486 212.93876436 4.65087342 215.86930793 4.62818909 218.80148315 C4.64594268 220.07853349 4.64594268 220.07853349 4.66405493 221.38138282 C4.59829892 225.56197468 4.25787705 228.20116518 1.58573818 231.5124073 C-2.69950747 235.63500017 -5.26449219 235.09250819 -11 235 C-11 234.67 -11 234.34 -11 234 C-8.03 233.67 -5.06 233.34 -2 233 C-2 232.01 -2 231.02 -2 230 C-2.66 230 -3.32 230 -4 230 C-4 229.34 -4 228.68 -4 228 C-2.35 228.33 -0.7 228.66 1 229 C1 227.68 1 226.36 1 225 C1.66 225 2.32 225 3 225 C2.91613128 196.69717776 2.82100937 168.39441273 2.71247292 140.09167385 C2.66234079 126.95036929 2.61589788 113.80907099 2.578125 100.66772461 C2.5451947 89.21438365 2.50535764 77.76109116 2.45720994 66.30780369 C2.43195538 60.24281177 2.41017092 54.17785196 2.39665604 48.11282158 C2.38382636 42.40424691 2.3617619 36.69578242 2.33261681 30.98726845 C2.32354817 28.89228379 2.31785246 26.7972814 2.31578636 24.70227814 C2.31245884 21.8406953 2.29696783 18.97942391 2.2784729 16.11790466 C2.28040763 15.29006782 2.28234237 14.46223099 2.28433573 13.60930818 C2.23700369 8.70639025 1.5608103 4.65438611 0 0 Z " fill="#0B0CB3" transform="translate(316,84)"/>
<path d="M0 0 C0.91531116 -0.00538554 1.83062233 -0.01077108 2.7736702 -0.01631981 C5.84762173 -0.03065308 8.92114589 -0.02348241 11.99511719 -0.01637268 C14.19608915 -0.02207339 16.39705815 -0.02903649 18.59802246 -0.03717041 C24.58137688 -0.05514881 30.56458503 -0.05392475 36.54795837 -0.04822803 C41.53833198 -0.04514329 46.52867721 -0.05122057 51.51904678 -0.05726677 C63.96175644 -0.07212973 76.40440089 -0.06848547 88.84710741 -0.05640347 C99.65624892 -0.04646834 110.46521932 -0.05941573 121.27433443 -0.08333766 C132.37121592 -0.1077116 143.46802839 -0.1169408 154.56493759 -0.11068493 C160.79582753 -0.10730767 167.02657603 -0.10978155 173.25744629 -0.12693596 C179.11468174 -0.14235728 184.97158937 -0.13850302 190.82881165 -0.11963081 C192.98151078 -0.11593175 195.13423394 -0.11909149 197.28691101 -0.1295166 C200.21965136 -0.14263787 203.1512922 -0.13125781 206.08398438 -0.11352539 C207.36977324 -0.1279329 207.36977324 -0.1279329 208.68153763 -0.14263147 C214.46471975 -0.07040009 214.46471975 -0.07040009 217.60186768 2.41900539 C218.07710876 3.06866803 218.55234985 3.71833067 219.04199219 4.38768005 C218.22864664 4.17577138 218.22864664 4.17577138 217.39886987 3.95958173 C211.77393002 2.58867802 206.55549347 2.0982289 200.7796936 2.12025452 C199.89207317 2.1157234 199.00445273 2.11119229 198.08993471 2.10652387 C195.13981769 2.09394532 192.18988682 2.09549593 189.23974609 2.09715271 C187.11523198 2.0911638 184.99072004 2.08435742 182.86621094 2.07679749 C177.11464806 2.05917781 171.36314474 2.0544441 165.61155748 2.05316591 C162.01889841 2.05174269 158.42625441 2.04747008 154.83359909 2.04217148 C142.30328155 2.0236921 129.7730065 2.01549918 117.24267578 2.01707458 C105.55396878 2.01827887 93.86544556 1.99711503 82.17678511 1.96558726 C72.1409622 1.93947986 62.1051996 1.92870479 52.06934297 1.9299854 C46.07496757 1.93049621 40.08075596 1.92474622 34.08641434 1.9036293 C28.4573015 1.88433752 22.82851045 1.88406004 17.1993866 1.89866257 C15.13011076 1.90076232 13.06081522 1.89598094 10.99157333 1.88394165 C8.17479429 1.86860929 5.35914198 1.87771673 2.54238892 1.89320374 C1.30403807 1.87777305 1.30403807 1.87777305 0.04067004 1.86203063 C-2.4888099 1.84707111 -2.4888099 1.84707111 -5.95800781 2.38768005 C-7.82611033 4.30613253 -7.82611033 4.30613253 -8.95800781 6.38768005 C-9.94800781 6.38768005 -10.93800781 6.38768005 -11.95800781 6.38768005 C-12.28800781 5.39768005 -12.61800781 4.40768005 -12.95800781 3.38768005 C-9.21846142 -0.44442636 -5.01116729 -0.03513486 0 0 Z " fill="#080AB2" transform="translate(96.9580078125,79.61231994628906)"/>
<path d="M0 0 C0.33 0 0.66 0 1 0 C1.66964286 7.76785714 1.66964286 7.76785714 -1.375 11.4375 C-4.97149938 14.94836844 -4.97149938 14.94836844 -7.9453125 15.09765625 C-9.96354167 15.06510417 -11.98177083 15.03255208 -14 15 C-14 14.67 -14 14.34 -14 14 C-9.545 13.505 -9.545 13.505 -5 13 C-5 12.01 -5 11.02 -5 10 C-5.66 10 -6.32 10 -7 10 C-7 9.34 -7 8.68 -7 8 C-5.35 8.33 -3.7 8.66 -2 9 C-2 7.68 -2 6.36 -2 5 C-1.34 5 -0.68 5 0 5 C0 3.35 0 1.7 0 0 Z " fill="#0908CB" transform="translate(319,304)"/>
<path d="M0 0 C0 0.33 0 0.66 0 1 C-0.94875 1.268125 -1.8975 1.53625 -2.875 1.8125 C-6.25267273 2.74986588 -6.25267273 2.74986588 -8 6 C-8.99 6 -9.98 6 -11 6 C-11.33 5.01 -11.66 4.02 -12 3 C-8.2391768 -0.7608232 -5.0273023 -0.25136512 0 0 Z " fill="#1B1BD5" transform="translate(96,80)"/>
<path d="M0 0 C0.33 0 0.66 0 1 0 C1 2.31 1 4.62 1 7 C-1.375 7.625 -1.375 7.625 -4 8 C-4.66 7.34 -5.32 6.68 -6 6 C-4 4 -2 2 0 0 Z " fill="#E5E8FB" transform="translate(319,312)"/>
<path d="M0 0 C0.66 0 1.32 0 2 0 C2.33 0.99 2.66 1.98 3 3 C3.66 3.33 4.32 3.66 5 4 C5 3.34 5 2.68 5 2 C5.66 2.33 6.32 2.66 7 3 C6.67 3.99 6.34 4.98 6 6 C7.32 6.33 8.64 6.66 10 7 C8.3125 7.75 8.3125 7.75 6 8 C3.12615149 6.19549047 1.35637 4.98687077 0.1875 1.75 C0.125625 1.1725 0.06375 0.595 0 0 Z " fill="#0D10BA" transform="translate(81,311)"/>
<path d="M0 0 C7.38461538 -0.49230769 7.38461538 -0.49230769 10.5 2 C10.995 2.66 11.49 3.32 12 4 C10.5608866 3.71640113 9.12374482 3.42278601 7.6875 3.125 C6.88699219 2.96257812 6.08648437 2.80015625 5.26171875 2.6328125 C3 2 3 2 0 0 Z " fill="#2123C6" transform="translate(304,80)"/>
<path d="M0 0 C1.65 1.32 3.3 2.64 5 4 C0.25 5 0.25 5 -2 5 C-1.125 1.125 -1.125 1.125 0 0 Z " fill="#EEEFF9" transform="translate(82,315)"/>
<path d="M0 0 C0.99 0.66 1.98 1.32 3 2 C-1.75 6.875 -1.75 6.875 -4 8 C-3.40138258 5.64828869 -2.73075648 3.3140622 -2 1 C-1.34 0.67 -0.68 0.34 0 0 Z " fill="#DEE2FB" transform="translate(84,80)"/>
<path d="M0 0 C0.33 0 0.66 0 1 0 C1.36923077 7.50769231 1.36923077 7.50769231 -0.5 10 C-0.995 10.33 -1.49 10.66 -2 11 C-2 9.02 -2 7.04 -2 5 C-1.34 5 -0.68 5 0 5 C0 3.35 0 1.7 0 0 Z " fill="#2425CA" transform="translate(319,304)"/>
</svg>
