<?xml version="1.0" encoding="UTF-8"?>
<svg version="1.1" xmlns="http://www.w3.org/2000/svg" width="400" height="400">
<path d="M0 0 C132 0 264 0 400 0 C400 132 400 264 400 400 C268 400 136 400 0 400 C0 268 0 136 0 0 Z " fill="#6B00F5" transform="translate(0,0)"/>
<path d="M0 0 C2.64059879 1.37158739 5.22725536 2.78068626 7.8125 4.25 C8.97773193 4.90512573 8.97773193 4.90512573 10.16650391 5.57348633 C11.86597613 6.5300445 13.56416124 7.48889206 15.26123047 8.44970703 C18.13107343 10.07419471 21.00470708 11.69182728 23.87890625 13.30859375 C35.08605356 19.62150921 35.08605356 19.62150921 37.99458313 21.33724976 C40.96649519 23.05247873 40.96649519 23.05247873 44.1277771 24.30978394 C47.59123925 25.8985265 50.20444434 27.39695407 53 30 C54.66889862 35.04272973 54.40655636 39.89375075 54.171875 45.12109375 C54.14946574 46.59075463 54.13239722 48.06050576 54.12042236 49.5302887 C54.07480633 53.38133492 53.95716007 57.22686482 53.82397461 61.07574463 C53.70074561 65.01002348 53.64631455 68.94520305 53.5859375 72.88085938 C53.4576065 80.58974297 53.2530995 88.294096 53 96 C51.86592461 96.62905998 51.86592461 96.62905998 50.7089386 97.27082825 C47.8434786 98.86059156 44.97827658 100.45081803 42.11323547 102.04133606 C40.88451415 102.72333904 39.65569682 103.4051691 38.42677307 104.08680725 C19.58595342 113.95791006 19.58595342 113.95791006 1.73828125 125.39453125 C-1 127 -1 127 -3.32421875 126.953125 C-4.20722656 126.63859375 -5.09023437 126.3240625 -6 126 C-6.65436035 125.81244141 -7.3087207 125.62488281 -7.98291016 125.43164062 C-13.83354662 123.59745646 -19.47128207 121.19758883 -23 116 C-25.20968392 106.64603876 -24.02028267 96.46785383 -23 87 C-21.06846254 87.94544864 -19.13921001 88.89556632 -17.2109375 89.84765625 C-16.13634277 90.37625244 -15.06174805 90.90484863 -13.95458984 91.44946289 C-11.6439748 92.66204892 -9.6831276 93.86317316 -7.625 95.4375 C-4.17500175 97.49107039 -2.84474593 96.96878942 1 96 C4.00929344 94.53035247 4.00929344 94.53035247 6.984375 92.62109375 C8.08394531 91.94755859 9.18351563 91.27402344 10.31640625 90.58007812 C11.4613261 89.86650855 12.60585325 89.15230852 13.75 88.4375 C16.01218085 87.03461919 18.27870325 85.63932293 20.546875 84.24609375 C21.54557617 83.62404053 22.54427734 83.0019873 23.57324219 82.36108398 C26 81 26 81 28 81 C30.69472833 60.57604087 30.69472833 60.57604087 24.67773438 41.96923828 C19.01702467 37.35923375 12.61276614 34.46288019 5.75488281 32.05444336 C3 31 3 31 0.45605469 29.24438477 C-1.93126746 27.69848994 -1.93126746 27.69848994 -4.45825195 28.61108398 C-5.29702881 29.06942627 -6.13580566 29.52776855 -7 30 C-8.35581177 30.74068726 -8.35581177 30.74068726 -9.73901367 31.49633789 C-11.18884644 32.35086548 -11.18884644 32.35086548 -12.66796875 33.22265625 C-13.72564453 33.84333984 -14.78332031 34.46402344 -15.87304688 35.10351562 C-16.96681641 35.74998047 -18.06058594 36.39644531 -19.1875 37.0625 C-21.36822417 38.34550332 -23.5492008 39.62807765 -25.73046875 40.91015625 C-26.69364014 41.47871338 -27.65681152 42.04727051 -28.64916992 42.63305664 C-30.07642144 43.46296434 -31.52330269 44.26165134 -33 45 C-33.33 78.33 -33.66 111.66 -34 146 C-42.25 150.62 -50.5 155.24 -59 160 C-62.63 162.31 -66.26 164.62 -70 167 C-71.90088484 168.09048346 -73.81328317 169.16200242 -75.75 170.1875 C-78.87094626 171.84133477 -81.89043866 173.55115387 -84.875 175.4375 C-88.4652652 177.2326326 -89.27152183 177.06947987 -93 176 C-95.11450195 175.00708008 -95.11450195 175.00708008 -97.23828125 173.76953125 C-98.04700684 173.30289063 -98.85573242 172.83625 -99.68896484 172.35546875 C-100.55473145 171.84628906 -101.42049805 171.33710938 -102.3125 170.8125 C-103.2195166 170.2865625 -104.1265332 169.760625 -105.06103516 169.21875 C-108.0448371 167.48618712 -111.02249311 165.74335596 -114 164 C-116.15726107 162.74299002 -118.31481694 161.48648584 -120.47265625 160.23046875 C-125.43071029 157.34304116 -130.38471 154.44877879 -135.33544922 151.54882812 C-138.54703329 149.682025 -141.77471031 147.84302268 -145 146 C-145 124.22 -145 102.44 -145 80 C-135.76 74.72 -126.52 69.44 -117 64 C-106.15061201 57.59310824 -106.15061201 57.59310824 -95.32641602 51.14477539 C-92.79482297 49.89903714 -90.81431603 49.23901188 -88 49 C-85.88769531 49.78857422 -85.88769531 49.78857422 -83.828125 51.0546875 C-82.70857422 51.72951172 -82.70857422 51.72951172 -81.56640625 52.41796875 C-80.80199219 52.89878906 -80.03757812 53.37960938 -79.25 53.875 C-78.47011719 54.34808594 -77.69023437 54.82117188 -76.88671875 55.30859375 C-71.25142997 58.74857003 -71.25142997 58.74857003 -70 60 C-69.91232888 62.07262076 -69.89304127 64.14820294 -69.90234375 66.22265625 C-69.90717773 68.11274414 -69.90717773 68.11274414 -69.91210938 70.04101562 C-69.92046597 71.38151109 -69.92893093 72.72200588 -69.9375 74.0625 C-69.9425134 75.40689942 -69.94707658 76.7513006 -69.95117188 78.09570312 C-69.96300512 81.39717941 -69.97949029 84.69856803 -70 88 C-75.08905775 86.04679209 -79.38901206 83.30952643 -83.96484375 80.36328125 C-89.25791598 77.98582667 -94.20509269 80.2204781 -99.45703125 82.11328125 C-111.04566579 86.68442867 -111.04566579 86.68442867 -120 95 C-124.30248604 105.89019457 -122.24698056 119.64153529 -121 131 C-119.89180908 131.42563232 -119.89180908 131.42563232 -118.76123047 131.85986328 C-116.33243789 132.86273343 -114.10896707 133.95944006 -111.8203125 135.2421875 C-111.05589844 135.66886719 -110.29148438 136.09554687 -109.50390625 136.53515625 C-108.71886719 136.97730469 -107.93382812 137.41945312 -107.125 137.875 C-106.34769531 138.30941406 -105.57039063 138.74382812 -104.76953125 139.19140625 C-104.00253906 139.62066406 -103.23554688 140.04992187 -102.4453125 140.4921875 C-101.69282227 140.91081055 -100.94033203 141.32943359 -100.16503906 141.76074219 C-98.77314333 142.55745652 -97.39783644 143.38428929 -96.04589844 144.24707031 C-92.62578316 146.48689122 -92.62578316 146.48689122 -88.67868042 146.69923401 C-87.79471588 146.46848679 -86.91075134 146.23773956 -86 146 C-85.03619415 145.77751083 -84.07238831 145.55502167 -83.07937622 145.32579041 C-74.25441909 142.8386508 -64.91934537 139.21247743 -60 131 C-54.82430358 116.35892946 -57.15422758 98.37451213 -57.75115967 83.15026855 C-57.95798949 77.1582179 -58.01535886 71.16485147 -58.0859375 65.16992188 C-58.24575556 53.44064136 -58.56986466 41.72226607 -59 30 C-58.23773102 29.57768097 -57.47546204 29.15536194 -56.69009399 28.72024536 C-53.80899892 27.12346856 -50.92835897 25.52587635 -48.04800415 23.92776489 C-46.8112416 23.24177868 -45.57430858 22.55609969 -44.33718872 21.87075806 C-35.19324778 16.80480244 -26.10985999 11.64435308 -17.0859375 6.3671875 C-16.08965332 5.79242676 -16.08965332 5.79242676 -15.07324219 5.20605469 C-13.58002161 4.33741248 -12.09747368 3.45032996 -10.62207031 2.55175781 C-9.83155273 2.08350586 -9.04103516 1.61525391 -8.2265625 1.1328125 C-7.51322754 0.7011377 -6.79989258 0.26946289 -6.06494141 -0.17529297 C-3.52640012 -1.18914878 -2.52326437 -0.96445332 0 0 Z " fill="#FCFBFC" transform="translate(246,112)"/>
<path d="M0 0 C0.495 0.99 0.495 0.99 1 2 C0.34 2 -0.32 2 -1 2 C-1 2.66 -1 3.32 -1 4 C-1.81944092 4.69826904 -2.63888184 5.39653809 -3.4831543 6.1159668 C-6.70550078 9.80842765 -6.5689077 12.49959605 -6.26953125 17.14453125 C-6.24026047 17.91431808 -6.21098969 18.68410492 -6.18083191 19.47721863 C-6.08224333 21.92406992 -5.9479225 24.36743831 -5.8125 26.8125 C-5.73916872 28.47580876 -5.66817912 30.13922252 -5.59960938 31.80273438 C-5.42683986 35.87020548 -5.22201892 39.93493175 -5 44 C-4.34 43.67 -3.68 43.34 -3 43 C-2.67 43.66 -2.34 44.32 -2 45 C-0.68 44.34 0.64 43.68 2 43 C2.99 43.66 3.98 44.32 5 45 C4.34 45 3.68 45 3 45 C3 45.66 3 46.32 3 47 C5.97 47.495 5.97 47.495 9 48 C9.33 48.99 9.66 49.98 10 51 C11.94603274 51.59070014 11.94603274 51.59070014 14 52 C14.66 52.66 15.32 53.32 16 54 C18.52475462 55.26237731 20.31200466 55.09856404 23.125 55.0625 C24.03507812 55.05347656 24.94515625 55.04445312 25.8828125 55.03515625 C26.58148438 55.02355469 27.28015625 55.01195312 28 55 C25.8125 57.0625 25.8125 57.0625 23 59 C18.00135152 58.78266746 13.89858509 55.89421689 9.6875 53.4375 C7.150625 51.973125 4.61375 50.50875 2 49 C2 58.24 2 67.48 2 77 C7.78791039 80.20234963 7.78791039 80.20234963 13.57739258 83.40185547 C14.30079834 83.80291504 15.0242041 84.20397461 15.76953125 84.6171875 C16.50792236 85.02565918 17.24631348 85.43413086 18.00708008 85.85498047 C19.71258662 86.83486846 21.36339006 87.90892671 23 89 C19.7 89 16.4 89 13 89 C12.67 88.01 12.34 87.02 12 86 C8.535 86.495 8.535 86.495 5 87 C5 86.34 5 85.68 5 85 C4.360625 84.79375 3.72125 84.5875 3.0625 84.375 C1 83 1 83 0.25 79.875 C0.1675 78.92625 0.085 77.9775 0 77 C-2.53744315 77.54708727 -2.53744315 77.54708727 -5 79 C-6.65110862 85.27016096 -6.3070593 92.11333373 -6.4296875 98.56445312 C-6.47609375 99.93053711 -6.47609375 99.93053711 -6.5234375 101.32421875 C-6.54325684 102.15010498 -6.56307617 102.97599121 -6.58349609 103.8269043 C-7.09583459 106.50001387 -7.88752259 107.33044138 -10 109 C-15.44444444 112 -15.44444444 112 -18 112 C-18 112.66 -18 113.32 -18 114 C-28.4 120 -28.4 120 -32 120 C-32 120.66 -32 121.32 -32 122 C-32.66 122 -33.32 122 -34 122 C-34.309375 122.9590625 -34.309375 122.9590625 -34.625 123.9375 C-36 126 -36 126 -38.9375 126.625 C-40.4534375 126.810625 -40.4534375 126.810625 -42 127 C-43.485 127.99 -43.485 127.99 -45 129 C-45.99 129 -46.98 129 -48 129 C-48 129.66 -48 130.32 -48 131 C-49.32 130.67 -50.64 130.34 -52 130 C-51.1234375 129.51273438 -50.246875 129.02546875 -49.34375 128.5234375 C-48.06217588 127.80787185 -46.78095967 127.09166501 -45.5 126.375 C-44.80890137 125.98836182 -44.11780273 125.60172363 -43.40576172 125.20336914 C-38.7969748 122.61086419 -34.22197482 119.96616048 -29.6640625 117.28515625 C-28.58318359 116.64980957 -27.50230469 116.01446289 -26.38867188 115.35986328 C-24.22369311 114.08465063 -22.06090383 112.80571304 -19.90039062 111.52294922 C-18.90458984 110.93658691 -17.90878906 110.35022461 -16.8828125 109.74609375 C-15.98965332 109.21685303 -15.09649414 108.6876123 -14.17626953 108.14233398 C-12 107 -12 107 -10 107 C-10.02220612 105.74798798 -10.04441223 104.49597595 -10.06729126 103.20602417 C-10.27002478 91.40587344 -10.41991824 79.60607597 -10.51812172 67.80457878 C-10.57030805 61.73714488 -10.64108363 55.67111685 -10.75439453 49.60449219 C-10.86306973 43.74940317 -10.92284532 37.89566585 -10.94877243 32.03964615 C-10.96724734 29.80593706 -11.00332726 27.57230188 -11.05730057 25.33916855 C-11.46558874 7.74626078 -11.46558874 7.74626078 -7.70721436 3.26812744 C-5.12883036 1.69813007 -2.92695036 0.70030259 0 0 Z " fill="#6A01F1" transform="translate(222,151)"/>
<path d="M0 0 C0.598125 0.20625 1.19625 0.4125 1.8125 0.625 C0.02368264 1.63008801 -1.76864696 2.62892736 -3.5625 3.625 C-4.56023437 4.181875 -5.55796875 4.73875 -6.5859375 5.3125 C-9.1875 6.625 -9.1875 6.625 -11.1875 6.625 C-11.15419083 7.87035019 -11.12088165 9.11570038 -11.08656311 10.39878845 C-10.78206602 22.15343697 -10.55744327 33.90728289 -10.41031742 45.6649847 C-10.33212891 51.70972863 -10.22616407 57.75128218 -10.0559082 63.79418945 C-9.8925219 69.6300168 -9.8031635 75.46278382 -9.76434135 81.30072212 C-9.73669163 83.52385221 -9.68268731 85.74682029 -9.60154915 87.96864128 C-9.00712821 104.92526639 -9.00712821 104.92526639 -12.66691208 109.45680618 C-17.75635883 113.80095294 -23.72779297 116.09057702 -30.1875 117.625 C-30.1875 116.965 -30.1875 116.305 -30.1875 115.625 C-27.5475 114.305 -24.9075 112.985 -22.1875 111.625 C-22.1875 110.965 -22.1875 110.305 -22.1875 109.625 C-21.1975 109.625 -20.2075 109.625 -19.1875 109.625 C-18.6925 107.645 -18.6925 107.645 -18.1875 105.625 C-16.2075 105.13 -16.2075 105.13 -14.1875 104.625 C-14.1875 83.505 -14.1875 62.385 -14.1875 40.625 C-15.1775 40.955 -16.1675 41.285 -17.1875 41.625 C-17.5175 41.295 -17.8475 40.965 -18.1875 40.625 C-18.16655273 41.36661377 -18.14560547 42.10822754 -18.12402344 42.87231445 C-18.04095863 46.2272388 -17.98886986 49.58194707 -17.9375 52.9375 C-17.90398437 54.10474609 -17.87046875 55.27199219 -17.8359375 56.47460938 C-17.82304687 57.59287109 -17.81015625 58.71113281 -17.796875 59.86328125 C-17.77592773 60.89493408 -17.75498047 61.92658691 -17.73339844 62.98950195 C-18.1875 65.625 -18.1875 65.625 -20.21191406 67.48510742 C-20.86385742 67.86127197 -21.51580078 68.23743652 -22.1875 68.625 C-24.22583424 67.3510411 -26.22602126 66.01438077 -28.1875 64.625 C-28.1875 63.965 -28.1875 63.305 -28.1875 62.625 C-29.445625 62.356875 -30.70375 62.08875 -32 61.8125 C-35.36266782 60.99248101 -36.8007609 60.12539335 -39.1875 57.625 C-41.81320704 57.37430087 -41.81320704 57.37430087 -44.1875 57.625 C-44.5175 58.615 -44.8475 59.605 -45.1875 60.625 C-45.909375 60.7075 -46.63125 60.79 -47.375 60.875 C-50.76300981 61.77846928 -52.47275446 63.43996091 -55.1875 65.625 C-58.79731646 67.05388568 -62.36873998 67.95110117 -66.1875 68.625 C-62.56192339 64.67272946 -57.95353675 62.45628786 -53.3125 59.875 C-52.41402344 59.35550781 -51.51554688 58.83601563 -50.58984375 58.30078125 C-49.28080078 57.57181641 -49.28080078 57.57181641 -47.9453125 56.828125 C-47.1527002 56.38114258 -46.36008789 55.93416016 -45.54345703 55.47363281 C-41.96220756 54.18364077 -39.52516398 55.00772765 -36.15112305 56.56469727 C-35.50699463 56.93651123 -34.86286621 57.3083252 -34.19921875 57.69140625 C-33.49345703 58.09423828 -32.78769531 58.49707031 -32.06054688 58.91210938 C-31.33931641 59.33298828 -30.61808594 59.75386719 -29.875 60.1875 C-29.13443359 60.61224609 -28.39386719 61.03699219 -27.63085938 61.47460938 C-25.81281882 62.51851653 -23.99966252 63.57092192 -22.1875 64.625 C-20.34871824 48.82099232 -20.34871824 48.82099232 -24.85498047 34.34960938 C-28.84952395 31.00534041 -33.38385587 28.96667814 -38.30224609 27.32568359 C-40.1875 26.625 -40.1875 26.625 -43.1875 24.625 C-40.2175 24.955 -37.2475 25.285 -34.1875 25.625 C-34.1875 26.285 -34.1875 26.945 -34.1875 27.625 C-33.5275 27.625 -32.8675 27.625 -32.1875 27.625 C-32.1875 28.285 -32.1875 28.945 -32.1875 29.625 C-31.445 29.769375 -30.7025 29.91375 -29.9375 30.0625 C-27.1875 30.625 -27.1875 30.625 -25 31.25 C-23.09846507 31.83846359 -23.09846507 31.83846359 -21.1875 30.625 C-20.6925 31.615 -20.6925 31.615 -20.1875 32.625 C-20.22875 31.51125 -20.27 30.3975 -20.3125 29.25 C-20.1875 25.625 -20.1875 25.625 -18.1875 23.625 C-17.88690057 21.25990639 -17.69234988 18.88058119 -17.5625 16.5 C-17.48773438 15.21867188 -17.41296875 13.93734375 -17.3359375 12.6171875 C-17.28695312 11.62976563 -17.23796875 10.64234375 -17.1875 9.625 C-16.1975 9.295 -15.2075 8.965 -14.1875 8.625 C-14.04054687 7.97789062 -13.89359375 7.33078125 -13.7421875 6.6640625 C-13.55914062 5.99117187 -13.37609375 5.31828125 -13.1875 4.625 C-11.4453125 3.6484375 -11.4453125 3.6484375 -9.3125 3 C-6.0599576 1.97982987 -3.26243116 -0.55927391 0 0 Z " fill="#6901F4" transform="translate(198.1875,135.375)"/>
<path d="M0 0 C0.495 0.99 0.495 0.99 1 2 C0.34 2 -0.32 2 -1 2 C-1 2.66 -1 3.32 -1 4 C-3.31 4.66 -5.62 5.32 -8 6 C-7.98223511 7.25423264 -7.96447021 8.50846527 -7.94616699 9.80070496 C-7.78405051 21.61600306 -7.6640976 33.4310758 -7.58550262 45.24723339 C-7.54373713 51.32227588 -7.48708194 57.3964212 -7.39648438 63.47094727 C-7.30961 69.33246494 -7.26173613 75.19311937 -7.24098206 81.05523109 C-7.22619094 83.29247953 -7.19730638 85.52968027 -7.15415955 87.76656151 C-7.09613641 90.89904498 -7.08808438 94.02795498 -7.09179688 97.16088867 C-7.04865356 98.55056099 -7.04865356 98.55056099 -7.00463867 99.9683075 C-7.03781492 102.55277403 -7.14140519 104.56012893 -8 107 C-10.78158993 109.69545953 -14.0263609 112 -18 112 C-18 112.66 -18 113.32 -18 114 C-28.4 120 -28.4 120 -32 120 C-32 120.66 -32 121.32 -32 122 C-32.66 122 -33.32 122 -34 122 C-34.309375 122.9590625 -34.309375 122.9590625 -34.625 123.9375 C-36 126 -36 126 -38.9375 126.625 C-40.4534375 126.810625 -40.4534375 126.810625 -42 127 C-43.485 127.99 -43.485 127.99 -45 129 C-45.99 129 -46.98 129 -48 129 C-48 129.66 -48 130.32 -48 131 C-49.32 130.67 -50.64 130.34 -52 130 C-51.1234375 129.51273438 -50.246875 129.02546875 -49.34375 128.5234375 C-48.06217588 127.80787185 -46.78095967 127.09166501 -45.5 126.375 C-44.80890137 125.98836182 -44.11780273 125.60172363 -43.40576172 125.20336914 C-38.7969748 122.61086419 -34.22197482 119.96616048 -29.6640625 117.28515625 C-28.58318359 116.64980957 -27.50230469 116.01446289 -26.38867188 115.35986328 C-24.22369311 114.08465063 -22.06090383 112.80571304 -19.90039062 111.52294922 C-18.90458984 110.93658691 -17.90878906 110.35022461 -16.8828125 109.74609375 C-15.98965332 109.21685303 -15.09649414 108.6876123 -14.17626953 108.14233398 C-12 107 -12 107 -10 107 C-10.02220612 105.74798798 -10.04441223 104.49597595 -10.06729126 103.20602417 C-10.27002478 91.40587344 -10.41991824 79.60607597 -10.51812172 67.80457878 C-10.57030805 61.73714488 -10.64108363 55.67111685 -10.75439453 49.60449219 C-10.86306973 43.74940317 -10.92284532 37.89566585 -10.94877243 32.03964615 C-10.96724734 29.80593706 -11.00332726 27.57230188 -11.05730057 25.33916855 C-11.46558874 7.74626078 -11.46558874 7.74626078 -7.70721436 3.26812744 C-5.12883036 1.69813007 -2.92695036 0.70030259 0 0 Z " fill="#7D38D7" transform="translate(222,151)"/>
<path d="M0 0 C0.8971875 0.309375 0.8971875 0.309375 1.8125 0.625 C0.02368264 1.63008801 -1.76864696 2.62892736 -3.5625 3.625 C-4.56023437 4.181875 -5.55796875 4.73875 -6.5859375 5.3125 C-9.1875 6.625 -9.1875 6.625 -11.1875 6.625 C-11.13753624 8.49302528 -11.13753624 8.49302528 -11.08656311 10.39878845 C-10.78206602 22.15343697 -10.55744327 33.90728289 -10.41031742 45.6649847 C-10.33212891 51.70972863 -10.22616407 57.75128218 -10.0559082 63.79418945 C-9.8925219 69.6300168 -9.8031635 75.46278382 -9.76434135 81.30072212 C-9.73669163 83.52385221 -9.68268731 85.74682029 -9.60154915 87.96864128 C-9.00712821 104.92526639 -9.00712821 104.92526639 -12.66691208 109.45680618 C-17.75635883 113.80095294 -23.72779297 116.09057702 -30.1875 117.625 C-30.1875 116.965 -30.1875 116.305 -30.1875 115.625 C-27.5475 114.305 -24.9075 112.985 -22.1875 111.625 C-22.1875 110.965 -22.1875 110.305 -22.1875 109.625 C-21.1975 109.625 -20.2075 109.625 -19.1875 109.625 C-18.8575 108.305 -18.5275 106.985 -18.1875 105.625 C-16.2075 105.13 -16.2075 105.13 -14.1875 104.625 C-14.18979111 103.83825897 -14.19208221 103.05151794 -14.19444275 102.24093628 C-14.24433387 82.19805665 -14.12032853 62.16313525 -13.81518555 42.12255859 C-13.75869485 38.39752034 -13.70905416 34.67242016 -13.66078281 30.94726753 C-13.62202743 28.03570404 -13.57893035 25.12421706 -13.53455925 22.21273422 C-13.51426382 20.8356128 -13.49553071 19.45846739 -13.47842598 18.08130264 C-13.45446343 16.1884157 -13.42381907 14.29561685 -13.39282227 12.40283203 C-13.37727798 11.3313089 -13.3617337 10.25978577 -13.34571838 9.15579224 C-13.1875 6.625 -13.1875 6.625 -12.1875 4.625 C-9.86770619 3.59398053 -7.53320085 2.59563483 -5.1875 1.625 C-2.1875 -0.375 -2.1875 -0.375 0 0 Z " fill="#690ADC" transform="translate(198.1875,135.375)"/>
<path d="M0 0 C-0.33 0.99 -0.66 1.98 -1 3 C-1.66 3 -2.32 3 -3 3 C-3 3.66 -3 4.32 -3 5 C-2.34 5.33 -1.68 5.66 -1 6 C-2.0725 6.28875 -3.145 6.5775 -4.25 6.875 C-7.16418825 7.74925647 -9.34781908 8.62591769 -12 10 C-13.51550308 10.71966697 -15.03650928 11.42784688 -16.5625 12.125 C-17.32691406 12.47820312 -18.09132812 12.83140625 -18.87890625 13.1953125 C-21 14 -21 14 -24 14 C-23.98889694 15.25645325 -23.97779388 16.51290649 -23.96635437 17.80743408 C-23.86507529 29.63788887 -23.79008097 41.46825591 -23.74093914 53.29904556 C-23.71482554 59.38167615 -23.67939438 65.46395728 -23.62280273 71.54638672 C-23.56854726 77.41432895 -23.53859275 83.28193468 -23.52561378 89.15010834 C-23.51636239 91.39088999 -23.49829681 93.63165285 -23.47134972 95.87229156 C-23.43514633 99.00673986 -23.43005114 102.13979094 -23.43237305 105.27441406 C-23.40540848 106.66947929 -23.40540848 106.66947929 -23.37789917 108.09272766 C-23.42836489 114.37277117 -23.42836489 114.37277117 -26.39094543 117.62347412 C-29 119 -29 119 -31.3125 118.75 C-32.1478125 118.37875 -32.1478125 118.37875 -33 118 C-32.18860062 117.70324875 -31.37720123 117.4064975 -30.54121399 117.10075378 C-27.88406168 115.32577337 -27.88406168 115.32577337 -27.52281761 113.10970497 C-27.34112466 110.52557109 -27.31664244 107.97852501 -27.34057617 105.38793945 C-27.33009247 104.40239075 -27.31960876 103.41684204 -27.30880737 102.40142822 C-27.27996746 99.13839581 -27.28635958 95.87641873 -27.29296875 92.61328125 C-27.27985918 90.35311039 -27.26455726 88.09295127 -27.24714661 85.83280945 C-27.20719736 79.87989151 -27.19709973 73.92727935 -27.19311523 67.97424316 C-27.18380254 61.90135361 -27.14640071 55.82864513 -27.11132812 49.75585938 C-27.0466511 37.83724811 -27.01349394 25.91877137 -27 14 C-23.47928939 12.0007529 -19.95548996 10.00707831 -16.42871094 8.01855469 C-15.22895097 7.34105082 -14.03005184 6.66202019 -12.83203125 5.98144531 C-11.11163831 5.0044672 -9.38789591 4.03339468 -7.6640625 3.0625 C-6.62717285 2.47597656 -5.5902832 1.88945312 -4.52197266 1.28515625 C-2 0 -2 0 0 0 Z " fill="#E8C8FE" transform="translate(214,128)"/>
<path d="M0 0 C1.32 0.33 2.64 0.66 4 1 C3.36199463 1.3717334 2.72398926 1.7434668 2.06665039 2.12646484 C0.15320886 3.24150799 -1.76011008 4.35676151 -3.67333984 5.47216797 C-5.85697722 6.7451126 -8.04089853 8.01757027 -10.22509766 9.28955078 C-15.26420009 12.22648746 -20.29882803 15.16949193 -25.30859375 18.15625 C-26.0879126 18.6198291 -26.86723145 19.0834082 -27.67016602 19.56103516 C-29.11424848 20.42163219 -30.55623241 21.28576267 -31.99584961 22.15380859 C-36.77834476 25 -36.77834476 25 -39 25 C-39 46.78 -39 68.56 -39 91 C-37.68 91.66 -36.36 92.32 -35 93 C-39.875 92.125 -39.875 92.125 -41 91 C-41.1238634 88.9145818 -41.17799067 86.82499859 -41.20532227 84.73608398 C-41.21522186 84.08244873 -41.22512146 83.42881348 -41.23532104 82.75537109 C-41.26701634 80.58564936 -41.29172492 78.4159057 -41.31640625 76.24609375 C-41.33696887 74.74536048 -41.35796515 73.2446331 -41.37937927 71.74391174 C-41.43467155 67.78688307 -41.48404911 63.82980151 -41.53222656 59.87268066 C-41.5823895 55.8375984 -41.63810268 51.80259328 -41.69335938 47.76757812 C-41.8010284 39.84511723 -41.90245379 31.92259196 -42 24 C-40.83210938 23.5359375 -40.83210938 23.5359375 -39.640625 23.0625 C-35.01343826 21.47636407 -35.01343826 21.47636407 -32 18 C-30.29296875 17.25390625 -30.29296875 17.25390625 -28.1875 16.5625 C-24.98361667 15.43913482 -22.65659561 14.14571184 -20 12 C-19.34 12 -18.68 12 -18 12 C-17.7525 11.38125 -17.505 10.7625 -17.25 10.125 C-15.06156093 6.40465358 -10.75985877 5.4405401 -6.875 3.875 C-6.00617188 3.52179688 -5.13734375 3.16859375 -4.2421875 2.8046875 C-2 2 -2 2 0 2 C0 1.34 0 0.68 0 0 Z " fill="#7F41D2" transform="translate(140,167)"/>
<path d="M0 0 C1.48206495 0.254496 2.96068615 0.52911762 4.4375 0.8125 C5.67306641 1.03873047 5.67306641 1.03873047 6.93359375 1.26953125 C7.61550781 1.51058594 8.29742187 1.75164062 9 2 C9.33 2.99 9.66 3.98 10 5 C11.94603274 5.59070014 11.94603274 5.59070014 14 6 C14.66 6.66 15.32 7.32 16 8 C18.52475462 9.26237731 20.31200466 9.09856404 23.125 9.0625 C24.03507812 9.05347656 24.94515625 9.04445312 25.8828125 9.03515625 C26.58148438 9.02355469 27.28015625 9.01195312 28 9 C25.8125 11.0625 25.8125 11.0625 23 13 C18.00135152 12.78266746 13.89858509 9.89421689 9.6875 7.4375 C7.150625 5.973125 4.61375 4.50875 2 3 C2 12.24 2 21.48 2 31 C7.78791039 34.20234963 7.78791039 34.20234963 13.57739258 37.40185547 C14.30079834 37.80291504 15.0242041 38.20397461 15.76953125 38.6171875 C16.87711792 39.22989502 16.87711792 39.22989502 18.00708008 39.85498047 C19.71258662 40.83486846 21.36339006 41.90892671 23 43 C19.7 43 16.4 43 13 43 C12.505 41.515 12.505 41.515 12 40 C8.535 40.495 8.535 40.495 5 41 C5 40.34 5 39.68 5 39 C4.38125 38.79375 3.7625 38.5875 3.125 38.375 C0.08050072 36.40502988 -0.08604901 34.46547133 -1 31 C-1.24291992 27.68847656 -1.24291992 27.68847656 -1.23046875 24.140625 C-1.22853516 22.86058594 -1.22660156 21.58054688 -1.22460938 20.26171875 C-1.21530396 19.27437744 -1.21530396 19.27437744 -1.20581055 18.26708984 C-1.18742498 16.24173538 -1.18530208 14.21683592 -1.18554688 12.19140625 C-1.1404536 2.28090721 -1.1404536 2.28090721 0 0 Z " fill="#6708D8" transform="translate(222,197)"/>
<path d="M0 0 C4.75964387 0.86538979 9.65352212 1.82676106 14 4 C15.134375 3.814375 16.26875 3.62875 17.4375 3.4375 C21 3 21 3 24 5 C23.67 5.99 23.34 6.98 23 8 C21.68 8 20.36 8 19 8 C19 8.66 19 9.32 19 10 C19.763125 10 20.52625 10 21.3125 10 C23.20833333 10 25.10416667 10 27 10 C27 10.66 27 11.32 27 12 C28.98 12.66 30.96 13.32 33 14 C33 15.32 33 16.64 33 18 C34.093125 18.0825 35.18625 18.165 36.3125 18.25 C40.58644251 19.11927644 40.58118176 19.73985368 43 23 C46.12586875 23.33397787 46.12586875 23.33397787 49 23 C49.268125 23.804375 49.53625 24.60875 49.8125 25.4375 C50.4003125 26.7059375 50.4003125 26.7059375 51 28 C51.99 28.33 52.98 28.66 54 29 C54 29.66 54 30.32 54 31 C49.46872301 29.34586393 45.38145874 27.10287956 41.1875 24.75 C40.42139404 24.32251465 39.65528809 23.8950293 38.8659668 23.45458984 C29.94550773 18.45023614 21.12387752 13.27496192 12.30078125 8.1015625 C8.21589624 5.70650181 4.11769495 3.33815965 0 1 C0 0.67 0 0.34 0 0 Z " fill="#6A09E7" transform="translate(245,111)"/>
<path d="M0 0 C0.33 0 0.66 0 1 0 C1.18550513 8.64907153 1.32757534 17.29745684 1.41449738 25.94808483 C1.45622064 29.96521024 1.5127878 33.98097327 1.60351562 37.99731445 C1.6905572 41.87481835 1.73829569 45.75101381 1.75901794 49.62941933 C1.7737805 51.10756346 1.80261194 52.58563725 1.84584045 54.06322289 C2.17166634 65.66348073 2.17166634 65.66348073 -0.73974609 68.98452759 C-2.79478791 70.28278327 -4.72570257 71.16105474 -7 72 C-7.886875 72.5775 -8.77375 73.155 -9.6875 73.75 C-12.14240546 75.07697592 -14.24958462 75.60708352 -17 76 C-17 76.66 -17 77.32 -17 78 C-19.475 78.495 -19.475 78.495 -22 79 C-22.33 80.32 -22.66 81.64 -23 83 C-23.99 83 -24.98 83 -26 83 C-26 83.99 -26 84.98 -26 86 C-26.67546875 86.09796875 -27.3509375 86.1959375 -28.046875 86.296875 C-34.95967405 87.37079086 -34.95967405 87.37079086 -40 92 C-40.99 91.67 -41.98 91.34 -43 91 C-43 92.32 -43 93.64 -43 95 C-45.64 95 -48.28 95 -51 95 C-48.47706956 92.14476542 -45.65939684 90.55623079 -42.328125 88.7421875 C-40.62885864 87.80959106 -40.62885864 87.80959106 -38.89526367 86.8581543 C-37.68017933 86.19709635 -36.46509137 85.53604503 -35.25 84.875 C-32.79094154 83.52841047 -30.33432984 82.1774237 -27.87890625 80.82421875 C-27.27802689 80.49329727 -26.67714752 80.16237579 -26.05805969 79.82142639 C-20.23302574 76.60027394 -14.55560986 73.17287357 -8.91796875 69.63671875 C-6 68 -6 68 0 66 C0 44.22 0 22.44 0 0 Z " fill="#8D50D4" transform="translate(299,142)"/>
<path d="M0 0 C2.97 0.33 5.94 0.66 9 1 C9 1.66 9 2.32 9 3 C9.66 3 10.32 3 11 3 C11 3.66 11 4.32 11 5 C11.721875 5.103125 12.44375 5.20625 13.1875 5.3125 C16.27746686 6.06782523 18.39558686 7.19137976 21 9 C22.46098845 11.9219769 22.11134901 14.49893475 22.09765625 17.7578125 C22.0962413 18.42086395 22.09482635 19.08391541 22.09336853 19.76705933 C22.08776754 21.88641863 22.075215 24.00567259 22.0625 26.125 C22.05748512 27.56119639 22.05292219 28.99739444 22.04882812 30.43359375 C22.03779782 33.95576345 22.02053259 37.47787145 22 41 C19.69 40.67 17.38 40.34 15 40 C15 39.34 15 38.68 15 38 C13.741875 37.731875 12.48375 37.46375 11.1875 37.1875 C7.82483218 36.36748101 6.3867391 35.50039335 4 33 C1.37429296 32.74930087 1.37429296 32.74930087 -1 33 C-1.33 33.99 -1.66 34.98 -2 36 C-2.721875 36.0825 -3.44375 36.165 -4.1875 36.25 C-7.57550981 37.15346928 -9.28525446 38.81496091 -12 41 C-15.60981646 42.42888568 -19.18123998 43.32610117 -23 44 C-19.37442339 40.04772946 -14.76603675 37.83128786 -10.125 35.25 C-9.22652344 34.73050781 -8.32804688 34.21101563 -7.40234375 33.67578125 C-6.09330078 32.94681641 -6.09330078 32.94681641 -4.7578125 32.203125 C-3.9652002 31.75614258 -3.17258789 31.30916016 -2.35595703 30.84863281 C1.22529244 29.55864077 3.66233602 30.38272765 7.03637695 31.93969727 C7.68050537 32.31151123 8.32463379 32.6833252 8.98828125 33.06640625 C9.69404297 33.46923828 10.39980469 33.87207031 11.12695312 34.28710938 C11.84818359 34.70798828 12.56941406 35.12886719 13.3125 35.5625 C14.05306641 35.98724609 14.79363281 36.41199219 15.55664062 36.84960938 C17.37468118 37.89351653 19.18783748 38.94592192 21 40 C22.83878176 24.19599232 22.83878176 24.19599232 18.33251953 9.72460938 C14.33797605 6.38034041 9.80364413 4.34167814 4.88525391 2.70068359 C3 2 3 2 0 0 Z " fill="#6912DD" transform="translate(155,160)"/>
<path d="M0 0 C0 0.66 0 1.32 0 2 C1.175625 1.690625 1.175625 1.690625 2.375 1.375 C3.674375 1.189375 3.674375 1.189375 5 1 C5.66 1.66 6.32 2.32 7 3 C0.85714286 8.57142857 0.85714286 8.57142857 -4 9 C-4.11601562 9.90298828 -4.11601562 9.90298828 -4.234375 10.82421875 C-5.26308942 13.74765718 -6.56412409 14.34060443 -9.25 15.8125 C-10.01828125 16.25207031 -10.7865625 16.69164062 -11.578125 17.14453125 C-14.51784911 18.18291767 -16.06139205 17.9614573 -19 17 C-19.66 16.34 -20.32 15.68 -21 15 C-18.03 15 -15.06 15 -12 15 C-11.34 13.68 -10.68 12.36 -10 11 C-10.825 10.236875 -11.65 9.47375 -12.5 8.6875 C-15 6 -15 6 -15 3 C-14.01 3 -13.02 3 -12 3 C-12 3.66 -12 4.32 -12 5 C-11.55269531 4.6390625 -11.10539063 4.278125 -10.64453125 3.90625 C-4.6397188 -0.7029877 -4.6397188 -0.7029877 0 0 Z " fill="#6902F0" transform="translate(172,242)"/>
<path d="M0 0 C2.98196944 4.47295416 3.12545522 8.42333838 3.11352539 13.70825195 C3.11344986 14.82903641 3.11337433 15.94982086 3.11329651 17.10456848 C3.10813522 18.3036937 3.10297394 19.50281891 3.09765625 20.73828125 C3.0962413 21.97418503 3.09482635 23.21008881 3.09336853 24.48344421 C3.08872618 27.75658345 3.07975311 31.02967287 3.06866455 34.30279541 C3.05840404 37.64782248 3.05394631 40.99285173 3.04882812 44.33789062 C3.03780907 50.8919465 3.02107836 57.44596918 3 64 C4.98 64.66 6.96 65.32 9 66 C9 66.99 9 67.98 9 69 C9.66 69 10.32 69 11 69 C11 69.66 11 70.32 11 71 C12.65 71 14.3 71 16 71 C16 71.99 16 72.98 16 74 C13.625 73.375 13.625 73.375 10 72 C8.75895004 71.54528824 8.75895004 71.54528824 7.49282837 71.08139038 C4.45369846 69.67708063 2.34948058 68.40179869 0 66 C-1.42117776 61.00324824 -1.16794544 56.11118641 -0.9765625 50.9765625 C-0.95789341 49.50545064 -0.94366717 48.03427628 -0.9336853 46.56307983 C-0.89563603 42.70459039 -0.79754749 38.84991113 -0.68664551 34.99291992 C-0.58404377 31.05179397 -0.53861322 27.11004739 -0.48828125 23.16796875 C-0.38127213 15.44358171 -0.21078879 7.72232613 0 0 Z " fill="#FDECFE" transform="translate(101,192)"/>
<path d="M0 0 C1.67264242 0.65152863 3.33765655 1.3226253 5 2 C6.07419189 2.43675049 7.14838379 2.87350098 8.25512695 3.32348633 C16.8824147 7.60110876 16.8824147 7.60110876 18.84368896 11.81097412 C20.31099327 17.03188452 20.29933451 22.3035249 20.1875 27.6875 C20.18981628 28.49892456 20.19213257 29.31034912 20.19451904 30.1463623 C20.14653807 36.96373008 19.97899755 43.3308088 15.81591797 48.94580078 C10.21250922 53.74509651 1.64598515 59 -6 59 C-5.67 57.68 -5.34 56.36 -5 55 C-4.195625 54.87625 -3.39125 54.7525 -2.5625 54.625 C-1.716875 54.41875 -0.87125 54.2125 0 54 C0.33 53.34 0.66 52.68 1 52 C2.32 52 3.64 52 5 52 C5 51.34 5 50.68 5 50 C7.475 49.505 7.475 49.505 10 49 C10.33 47.68 10.66 46.36 11 45 C12.65 45 14.3 45 16 45 C16 33.78 16 22.56 16 11 C12.37 9.02 8.74 7.04 5 5 C3.35 4.01 1.7 3.02 0 2 C0 1.34 0 0.68 0 0 Z " fill="#690AD9" transform="translate(256,147)"/>
<path d="M0 0 C6.22393191 1.62136041 11.36589753 5.01230577 16.8125 8.3125 C20.53627886 10.55082317 24.26572579 12.77923588 28 15 C28.83450684 15.5057959 29.66901367 16.0115918 30.52880859 16.53271484 C31.30691895 16.98984863 32.0850293 17.44698242 32.88671875 17.91796875 C33.90125122 18.52354614 33.90125122 18.52354614 34.9362793 19.14135742 C37.40830679 20.16988229 39.34816422 20.15385093 42 20 C42 21.32 42 22.64 42 24 C38.18510326 25.46726798 35.70988378 24.43336419 32 23 C32 21.68 32 20.36 32 19 C31.29875 19.061875 30.5975 19.12375 29.875 19.1875 C26.34739788 18.95743899 24.06015649 17.70799432 21 16 C21 16.66 21 17.32 21 18 C18.69 17.67 16.38 17.34 14 17 C14 16.01 14 15.02 14 14 C14.66 13.67 15.32 13.34 16 13 C16.33 12.01 16.66 11.02 17 10 C14.03 9.505 14.03 9.505 11 9 C11 8.34 11 7.68 11 7 C10.01 7 9.02 7 8 7 C8 6.34 8 5.68 8 5 C6.865625 4.731875 5.73125 4.46375 4.5625 4.1875 C3.386875 3.795625 2.21125 3.40375 1 3 C0.67 2.01 0.34 1.02 0 0 Z " fill="#6904EB" transform="translate(118,268)"/>
<path d="M0 0 C4.97209562 1.76429199 9.43438061 4.3939166 14 7 C14 7.33 14 7.66 14 8 C11.69 8 9.38 8 7 8 C6.67 8.99 6.34 9.98 6 11 C0.06 9.515 0.06 9.515 -6 8 C-6.66 9.32 -7.32 10.64 -8 12 C-8.9075 11.814375 -9.815 11.62875 -10.75 11.4375 C-13.68314324 11.04265379 -15.2644657 11.05308428 -18 12 C-15.22410764 8.73061566 -11.57298473 6.91449461 -7.875 4.875 C-3.68603269 2.77377804 -3.68603269 2.77377804 0 0 Z M-10 12 C-8 13 -8 13 -8 13 Z " fill="#6904ED" transform="translate(242,139)"/>
<path d="M0 0 C-0.33 0.99 -0.66 1.98 -1 3 C-1.66 3 -2.32 3 -3 3 C-3 35.34 -3 67.68 -3 101 C-3.33 101 -3.66 101 -4 101 C-4 68 -4 35 -4 1 C-2 0 -2 0 0 0 Z " fill="#6C08E3" transform="translate(218,156)"/>
<path d="M0 0 C0.33 0 0.66 0 1 0 C1 33 1 66 1 100 C-0.485 100.495 -0.485 100.495 -2 101 C-2 100.01 -2 99.02 -2 98 C-1.34 98 -0.68 98 0 98 C0 65.66 0 33.32 0 0 Z " fill="#6519BD" transform="translate(186,143)"/>
<path d="M0 0 C2.93277315 2.32372034 3.91984191 3.49632738 4.51757812 7.25219727 C4.52208984 8.51088623 4.52660156 9.7695752 4.53125 11.06640625 C4.53699036 12.07936012 4.53699036 12.07936012 4.54284668 13.11277771 C4.54556096 14.53573097 4.53823335 15.95873453 4.52148438 17.3815918 C4.50002896 19.55955974 4.52131376 21.73424244 4.546875 23.91210938 C4.54423228 25.29688227 4.53910846 26.68165313 4.53125 28.06640625 C4.52673828 29.32396729 4.52222656 30.58152832 4.51757812 31.87719727 C4 35 4 35 1.96679688 36.93334961 C1.31775391 37.28534424 0.66871094 37.63733887 0 38 C-0.99 37.01 -1.98 36.02 -3 35 C-1.68 35 -0.36 35 1 35 C0.88148693 30.80059793 0.75722118 26.6014169 0.62768555 22.40234375 C0.58444682 20.97465612 0.54276415 19.54692046 0.50268555 18.11914062 C0.44471398 16.06365504 0.38109825 14.00840872 0.31640625 11.953125 C0.27974854 10.71723633 0.24309082 9.48134766 0.20532227 8.20800781 C0.03954202 5.61781472 -0.36188642 3.48681552 -1 1 C-0.67 0.67 -0.34 0.34 0 0 Z " fill="#6707DF" transform="translate(176,166)"/>
<path d="M0 0 C0 0.99 0 1.98 0 3 C-6.75 7 -6.75 7 -9 7 C-9 7.66 -9 8.32 -9 9 C-19.4 15 -19.4 15 -23 15 C-23 15.66 -23 16.32 -23 17 C-23.66 17 -24.32 17 -25 17 C-25.309375 17.9590625 -25.309375 17.9590625 -25.625 18.9375 C-27 21 -27 21 -29.9375 21.625 C-31.4534375 21.810625 -31.4534375 21.810625 -33 22 C-33.99 22.66 -34.98 23.32 -36 24 C-36.99 24 -37.98 24 -39 24 C-39 24.66 -39 25.32 -39 26 C-40.32 25.67 -41.64 25.34 -43 25 C-41.68515625 24.26910156 -41.68515625 24.26910156 -40.34375 23.5234375 C-31.57174263 18.62729623 -22.86589533 13.6227242 -14.1875 8.5625 C-13.13175781 7.94745605 -12.07601562 7.33241211 -10.98828125 6.69873047 C-9.49941406 5.82885498 -9.49941406 5.82885498 -7.98046875 4.94140625 C-7.09254639 4.42263916 -6.20462402 3.90387207 -5.28979492 3.36938477 C-3.4955872 2.29638006 -1.73946685 1.15964457 0 0 Z " fill="#6E22D1" transform="translate(213,256)"/>
<path d="M0 0 C3.96 1.98 3.96 1.98 8 4 C8 25.78 8 47.56 8 70 C5.66238196 66.49357293 5.7561402 65.1114405 5.77294922 60.96801758 C5.77310028 59.72695755 5.77325134 58.48589752 5.77340698 57.20722961 C5.7836202 55.8529952 5.79405219 54.49876242 5.8046875 53.14453125 C5.80841833 51.75876571 5.81126497 50.37299752 5.81326294 48.98722839 C5.82089392 45.3424652 5.8405377 41.69786176 5.8626709 38.05316162 C5.88314092 34.33298911 5.89226712 30.61279074 5.90234375 26.89257812 C5.92378419 19.5949793 5.95791356 12.29751205 6 5 C5.195625 4.731875 4.39125 4.46375 3.5625 4.1875 C2.716875 3.795625 1.87125 3.40375 1 3 C0.67 2.01 0.34 1.02 0 0 Z " fill="#FDE6FE" transform="translate(291,138)"/>
<path d="M0 0 C12 6 12 6 13 8 C8.94290909 7.18858182 6.01675567 5.72146672 2 4 C2.33 11.59 2.66 19.18 3 27 C3.66 27.33 4.32 27.66 5 28 C5 28.99 5 29.98 5 31 C2.525 30.01 2.525 30.01 0 29 C0 19.43 0 9.86 0 0 Z " fill="#EDCDFE" transform="translate(223,199)"/>
<path d="M0 0 C0 0.66 0 1.32 0 2 C-1.98 2.99 -1.98 2.99 -4 4 C-4.02468447 8.80549747 -4.04285255 13.61095818 -4.05493164 18.41650391 C-4.05996621 20.05192711 -4.06679427 21.6873458 -4.07543945 23.32275391 C-4.08754335 25.67090975 -4.093237 28.01900619 -4.09765625 30.3671875 C-4.10281754 31.10057343 -4.10797882 31.83395935 -4.11329651 32.58956909 C-4.183156 36.42122656 -4.183156 36.42122656 -3 40 C-4.32 39.67 -5.64 39.34 -7 39 C-7.12355727 33.92806922 -7.21431615 28.85701304 -7.2746582 23.78393555 C-7.29981005 22.05819441 -7.33393619 20.33255988 -7.37719727 18.60717773 C-7.43782433 16.12717419 -7.46620101 13.64857778 -7.48828125 11.16796875 C-7.51408768 10.39599655 -7.5398941 9.62402435 -7.56648254 8.82865906 C-7.56762695 6.64526367 -7.56762695 6.64526367 -7 3 C-4.57851906 0.97616 -3.17331305 0 0 0 Z " fill="#8340CD" transform="translate(132,204)"/>
<path d="M0 0 C1.32 0.33 2.64 0.66 4 1 C-8 8 -20 15 -32 22 C-32.33 21.34 -32.66 20.68 -33 20 C-32 18 -32 18 -30.29296875 17.25390625 C-29.25076172 16.91166016 -29.25076172 16.91166016 -28.1875 16.5625 C-24.98361667 15.43913482 -22.65659561 14.14571184 -20 12 C-19.34 12 -18.68 12 -18 12 C-17.62875 11.071875 -17.62875 11.071875 -17.25 10.125 C-15.06156093 6.40465358 -10.75985877 5.4405401 -6.875 3.875 C-6.00617188 3.52179688 -5.13734375 3.16859375 -4.2421875 2.8046875 C-2 2 -2 2 0 2 C0 1.34 0 0.68 0 0 Z " fill="#6A1FCA" transform="translate(140,167)"/>
<path d="M0 0 C4.65726529 0.43936465 6.76402729 0.76402729 10 4 C11.32191704 4.35772808 12.65797893 4.66471169 14 4.9375 C17.82057323 5.75024012 18.69884007 6.86205463 21 10 C24.12586875 10.33397787 24.12586875 10.33397787 27 10 C27.268125 10.804375 27.53625 11.60875 27.8125 12.4375 C28.204375 13.283125 28.59625 14.12875 29 15 C29.99 15.33 30.98 15.66 32 16 C32 16.66 32 17.32 32 18 C27.12341056 16.25418098 22.74627739 13.72319132 18.25 11.1875 C17.10917969 10.54844727 17.10917969 10.54844727 15.9453125 9.89648438 C14.41280838 9.03802232 12.88090346 8.1784897 11.34960938 7.31787109 C7.57318663 5.19971545 3.78666924 3.09976772 0 1 C0 0.67 0 0.34 0 0 Z " fill="#6A11DC" transform="translate(267,124)"/>
<path d="M0 0 C1.98 0.99 1.98 0.99 4 2 C4 2.66 4 3.32 4 4 C4.9075 3.87625 5.815 3.7525 6.75 3.625 C12.72028951 3.55114075 17.92476157 7.19986845 23 10 C23 10.33 23 10.66 23 11 C19.7 11 16.4 11 13 11 C12.67 10.01 12.34 9.02 12 8 C9.69 8.33 7.38 8.66 5 9 C5 8.34 5 7.68 5 7 C4.360625 6.773125 3.72125 6.54625 3.0625 6.3125 C1 5 1 5 0.25 2.375 C0.1675 1.59125 0.085 0.8075 0 0 Z " fill="#6A05E9" transform="translate(222,229)"/>
<path d="M0 0 C2.97 0.33 5.94 0.66 9 1 C9 1.66 9 2.32 9 3 C9.66 3 10.32 3 11 3 C11 3.66 11 4.32 11 5 C11.721875 5.103125 12.44375 5.20625 13.1875 5.3125 C16.27746686 6.06782523 18.39558686 7.19137976 21 9 C22.46098845 11.9219769 22.11134901 14.49893475 22.09765625 17.7578125 C22.0962413 18.42086395 22.09482635 19.08391541 22.09336853 19.76705933 C22.08776754 21.88641863 22.075215 24.00567259 22.0625 26.125 C22.05748512 27.56119639 22.05292219 28.99739444 22.04882812 30.43359375 C22.03779782 33.95576345 22.02053259 37.47787145 22 41 C21.34 40.67 20.68 40.34 20 40 C20.08902588 39.20416504 20.17805176 38.40833008 20.26977539 37.58837891 C22.32884433 23.0958191 22.32884433 23.0958191 18.37988281 9.72460938 C14.39044194 6.35373046 9.83444038 4.33161719 4.90112305 2.70068359 C3 2 3 2 0 0 Z " fill="#8039DC" transform="translate(155,160)"/>
<path d="M0 0 C-0.33 0.99 -0.66 1.98 -1 3 C-1.66 3 -2.32 3 -3 3 C-3 3.66 -3 4.32 -3 5 C-2.34 5.33 -1.68 5.66 -1 6 C-2.0725 6.28875 -3.145 6.5775 -4.25 6.875 C-7.18203495 7.75461048 -9.3272497 8.63446757 -12 10 C-14.03348276 10.91425817 -16.07584488 11.80893104 -18.125 12.6875 C-19.17945313 13.14511719 -20.23390625 13.60273438 -21.3203125 14.07421875 C-22.64675781 14.53248047 -22.64675781 14.53248047 -24 15 C-24.66 14.67 -25.32 14.34 -26 14 C-23.31294159 12.41591638 -20.62527171 10.832873 -17.9375 9.25 C-17.18533203 8.8065625 -16.43316406 8.363125 -15.65820312 7.90625 C-14.16108775 7.02483143 -12.66288574 6.1452558 -11.16357422 5.26757812 C-9.75610943 4.44298354 -8.35132457 3.61379172 -6.94970703 2.77929688 C-2.22318673 0 -2.22318673 0 0 0 Z " fill="#F0D7FC" transform="translate(214,128)"/>
<path d="M0 0 C1.67120562 0.65520531 3.33659205 1.32524359 5 2 C6.09014404 2.42732422 7.18028809 2.85464844 8.3034668 3.29492188 C17.12102039 7.56270496 17.12102039 7.56270496 18.68658447 11.90380859 C19.63836408 17.41642988 19.18362429 22.94983362 18.8125 28.5 C18.74721649 30.19769521 18.68791359 31.89563156 18.63476562 33.59375 C18.49217808 37.73516332 18.2684501 41.86491543 18 46 C17.67 46 17.34 46 17 46 C17.02731201 44.97116699 17.05462402 43.94233398 17.08276367 42.88232422 C17.16993633 39.04633042 17.18419138 35.21285822 17.17700195 31.37597656 C17.1839564 29.7192006 17.21040307 28.06238291 17.25708008 26.40625 C17.39949717 21.08081104 17.3502939 16.17690999 16 11 C12.71368346 7.71709321 9.33098937 6.48332216 5 5 C2.14135742 3.49560547 2.14135742 3.49560547 0 2 C0 1.34 0 0.68 0 0 Z " fill="#6116B7" transform="translate(256,147)"/>
<path d="M0 0 C-0.598125 0.268125 -1.19625 0.53625 -1.8125 0.8125 C-4.0054085 1.84842751 -4.0054085 1.84842751 -5.3125 3.4375 C-8.53768285 6.42378041 -12.88678385 7.62892795 -17 9 C-17 9.66 -17 10.32 -17 11 C-21.455 12.485 -21.455 12.485 -26 14 C-26.33 13.34 -26.66 12.68 -27 12 C-23.54216583 10.01996027 -20.08364869 8.04111656 -16.625 6.0625 C-15.64015625 5.49853516 -14.6553125 4.93457031 -13.640625 4.35351562 C-12.69960937 3.81533203 -11.75859375 3.27714844 -10.7890625 2.72265625 C-9.91975098 2.22515869 -9.05043945 1.72766113 -8.15478516 1.21508789 C-4.78704465 -0.68398808 -3.72101862 -1.11630559 0 0 Z " fill="#F4DDFD" transform="translate(246,112)"/>
<path d="M0 0 C0.33 0 0.66 0 1 0 C1.00808685 0.73471527 1.01617371 1.46943054 1.02450562 2.22640991 C1.10237093 9.1425207 1.18963694 16.05845546 1.28752708 22.97430992 C1.33752304 26.53003393 1.38385244 30.08572776 1.421875 33.64160156 C1.46572333 37.72740639 1.52538806 41.81284581 1.5859375 45.8984375 C1.59748871 47.17866791 1.60903992 48.45889832 1.62094116 49.77792358 C1.64081085 50.95899689 1.66068054 52.14007019 1.68115234 53.35693359 C1.69447601 54.40062103 1.70779968 55.44430847 1.7215271 56.5196228 C1.75844259 59.17430962 1.75844259 59.17430962 4 61 C2.35 61.66 0.7 62.32 -1 63 C-0.67 42.21 -0.34 21.42 0 0 Z " fill="#6608EB" transform="translate(98,199)"/>
<path d="M0 0 C4.97209562 1.76429199 9.43438061 4.3939166 14 7 C12.11328125 7.5859375 12.11328125 7.5859375 10 8 C9.401875 7.54625 8.80375 7.0925 8.1875 6.625 C5.00116788 4.25801043 2.97069264 3.93382179 -1 4 C-3.11998174 5.34121294 -4.95204683 6.87761212 -6.8671875 8.49609375 C-10.27242132 10.89722016 -13.93106873 11.4537083 -18 12 C-15.22410764 8.73061566 -11.57298473 6.91449461 -7.875 4.875 C-3.68603269 2.77377804 -3.68603269 2.77377804 0 0 Z " fill="#6F27CE" transform="translate(242,139)"/>
<path d="M0 0 C1.89709988 0.93493439 3.79262578 1.87306296 5.6875 2.8125 C6.74324219 3.33457031 7.79898438 3.85664063 8.88671875 4.39453125 C12 6 12 6 14.71875 7.6875 C17.36079124 9.20757852 19.00122137 9.25703817 22 9 C22 10.32 22 11.64 22 13 C19.19995156 14.07694171 17.8088426 13.95876997 14.8125 13.3125 C13.4203125 12.6628125 13.4203125 12.6628125 12 12 C11.88011719 11.36578125 11.76023438 10.7315625 11.63671875 10.078125 C11.18001495 7.76876002 11.18001495 7.76876002 8.75 6.62109375 C7.8425 6.23050781 6.935 5.83992188 6 5.4375 C3.25 4.24609375 3.25 4.24609375 1 3 C0.67 2.01 0.34 1.02 0 0 Z " fill="#6607E0" transform="translate(138,279)"/>
<path d="M0 0 C0.33 0.66 0.66 1.32 1 2 C-0.96632292 3.23444094 -2.93433779 4.46590447 -4.90625 5.69140625 C-6.51062224 6.6941389 -8.1020477 7.71761246 -9.6875 8.75 C-12.14240546 10.07697592 -14.24958462 10.60708352 -17 11 C-17 11.66 -17 12.32 -17 13 C-18.65 13.33 -20.3 13.66 -22 14 C-22 14.66 -22 15.32 -22 16 C-23.98 16.33 -25.96 16.66 -28 17 C-25.86084327 14.68508508 -23.77911447 13.16480118 -21.015625 11.66015625 C-20.24476563 11.23669922 -19.47390625 10.81324219 -18.6796875 10.37695312 C-17.87789063 9.94318359 -17.07609375 9.50941406 -16.25 9.0625 C-14.67167011 8.19959341 -13.09354235 7.33631699 -11.515625 6.47265625 C-10.75701172 6.05902832 -9.99839844 5.64540039 -9.21679688 5.21923828 C-6.12229168 3.51726043 -3.05999099 1.76317663 0 0 Z " fill="#7028CB" transform="translate(299,207)"/>
<path d="M0 0 C3 1 3 1 4.3125 2.5 C6.70340911 4.62525254 8.87351844 4.72813204 12 5 C12.33 4.67 12.66 4.34 13 4 C14.66617115 3.95936168 16.33388095 3.957279 18 4 C18.33 3.34 18.66 2.68 19 2 C19.66 2.66 20.32 3.32 21 4 C19.61518672 4.87191947 18.21654754 5.72190384 16.8125 6.5625 C16.03519531 7.03816406 15.25789063 7.51382812 14.45703125 8.00390625 C11.41635247 9.23661387 10.09403757 9.00556221 7 8 C4.54296875 6.80859375 4.54296875 6.80859375 2.1875 5.4375 C1.39730469 4.98246094 0.60710937 4.52742188 -0.20703125 4.05859375 C-0.79871094 3.70925781 -1.39039063 3.35992187 -2 3 C-1.34 2.01 -0.68 1.02 0 0 Z " fill="#EFD1FC" transform="translate(146,280)"/>
<path d="M0 0 C0.680625 0.804375 1.36125 1.60875 2.0625 2.4375 C5.48477302 5.42288711 7.5428126 5.73781251 12 6 C12.33 6.99 12.66 7.98 13 9 C13.99 9.66 14.98 10.32 16 11 C16 11.66 16 12.32 16 13 C11.60616294 11.40376856 7.71004193 9.21975667 3.6875 6.875 C3.04232422 6.50246094 2.39714844 6.12992188 1.73242188 5.74609375 C0.15324055 4.83367787 -1.42361864 3.91724491 -3 3 C-3 2.34 -3 1.68 -3 1 C-2.01 0.67 -1.02 0.34 0 0 Z " fill="#691CCE" transform="translate(132,242)"/>
<path d="M0 0 C4.91441412 1.43652105 9.00238358 3.54159615 13.375 6.125 C14.01566406 6.49753906 14.65632813 6.87007812 15.31640625 7.25390625 C16.88048477 8.16434002 18.44065534 9.08148191 20 10 C20 10.33 20 10.66 20 11 C16.04170312 11.22822613 13.32148459 10.55050009 9.6875 9 C8.80449219 8.62875 7.92148437 8.2575 7.01171875 7.875 C6.01591797 7.441875 6.01591797 7.441875 5 7 C5 5.68 5 4.36 5 3 C3.35 2.67 1.7 2.34 0 2 C0 1.34 0 0.68 0 0 Z " fill="#F5E1FC" transform="translate(267,125)"/>
<path d="M0 0 C0.33 0 0.66 0 1 0 C1 11.88 1 23.76 1 36 C2.65 36.66 4.3 37.32 6 38 C6.66 38.66 7.32 39.32 8 40 C6.25 40.75 6.25 40.75 4 41 C1.88378906 39.54589844 1.88378906 39.54589844 0 37 C-0.34898973 34.04071721 -0.46784199 31.46546479 -0.390625 28.515625 C-0.38496521 27.70003113 -0.37930542 26.88443726 -0.37347412 26.04412842 C-0.35112727 23.44548228 -0.30093622 20.84822758 -0.25 18.25 C-0.22993271 16.48569703 -0.21168234 14.7213724 -0.1953125 12.95703125 C-0.1512683 8.63748672 -0.08225422 4.31897907 0 0 Z " fill="#FEEAFF" transform="translate(124,207)"/>
<path d="M0 0 C0.66 0.33 1.32 0.66 2 1 C1.67 1.33 1.34 1.66 1 2 C0.75778782 6.23871318 0.77148369 10.48315981 0.75976562 14.72802734 C0.75007074 16.85944804 0.71906593 18.98990008 0.6875 21.12109375 C0.680969 22.47395259 0.67571891 23.82681835 0.671875 25.1796875 C0.6625293 26.41444824 0.65318359 27.64920898 0.64355469 28.92138672 C0.72700676 32.00085833 0.72700676 32.00085833 2.52050781 33.92626953 C3.00874023 34.28060059 3.49697266 34.63493164 4 35 C2.0625 35.5625 2.0625 35.5625 0 36 C-1.7329298 34.2670702 -1.12820046 32.03785664 -1.13894653 29.72851562 C-1.1369223 28.99310547 -1.13489807 28.25769531 -1.1328125 27.5 C-1.13376923 26.74912109 -1.13472595 25.99824219 -1.13571167 25.22460938 C-1.13639338 23.63411373 -1.13453972 22.04361533 -1.13037109 20.453125 C-1.12502267 18.01035345 -1.13031634 15.56776579 -1.13671875 13.125 C-1.13605797 11.58333293 -1.1347768 10.04166597 -1.1328125 8.5 C-1.13483673 7.76458984 -1.13686096 7.02917969 -1.13894653 6.27148438 C-1.11495161 1.11495161 -1.11495161 1.11495161 0 0 Z " fill="#6A05E6" transform="translate(128,207)"/>
<path d="M0 0 C2.48183432 1.25470513 4.85700153 2.53496459 7.25 3.9375 C7.88679688 4.29779297 8.52359375 4.65808594 9.1796875 5.02929688 C13.86908657 7.73817315 13.86908657 7.73817315 15 10 C12.525 9.505 12.525 9.505 10 9 C10 8.34 10 7.68 10 7 C8.741875 6.731875 7.48375 6.46375 6.1875 6.1875 C2.32948667 5.36530044 2.32948667 5.36530044 0.5625 3.40625 C-0.95722578 1.73379691 -0.95722578 1.73379691 -3.48046875 1.92578125 C-4.82044922 2.11720703 -4.82044922 2.11720703 -6.1875 2.3125 C-7.08855469 2.43238281 -7.98960937 2.55226562 -8.91796875 2.67578125 C-9.60503906 2.78277344 -10.29210937 2.88976562 -11 3 C-5.16192809 -1.47585513 -5.16192809 -1.47585513 0 0 Z " fill="#6C22C9" transform="translate(160,191)"/>
<path d="M0 0 C0 0.99 0 1.98 0 3 C-6.75 7 -6.75 7 -9 7 C-9 7.66 -9 8.32 -9 9 C-12.93828536 11.31663844 -16.69235185 13.43358249 -21 15 C-19.59350075 11.51906439 -18.19583822 10.20653148 -14.90234375 8.45703125 C-14.10119141 8.02326172 -13.30003906 7.58949219 -12.47460938 7.14257812 C-11.21874023 6.48418945 -11.21874023 6.48418945 -9.9375 5.8125 C-8.27932957 4.92433055 -6.62174523 4.03506573 -4.96484375 3.14453125 C-3.86064087 2.56215698 -3.86064087 2.56215698 -2.73413086 1.96801758 C-1.0282464 1.11916935 -1.0282464 1.11916935 0 0 Z " fill="#681DCB" transform="translate(213,256)"/>
<path d="M0 0 C0.33 0 0.66 0 1 0 C0.99363525 0.82725586 0.98727051 1.65451172 0.98071289 2.50683594 C0.97202817 6.25547743 1.01665418 10.00164556 1.0625 13.75 C1.05154297 15.05195313 1.04058594 16.35390625 1.02929688 17.6953125 C0.83060191 24.23249356 0.83060191 24.23249356 3.62060547 29.78320312 C5.72775457 31.07547596 5.72775457 31.07547596 9 32 C9 32.33 9 32.66 9 33 C5.84414745 33.35065028 4.44393529 33.32967091 1.85253906 31.40527344 C-0.61209328 28.20527899 -0.46093822 26.27347849 -0.390625 22.265625 C-0.37773437 20.97011719 -0.36484375 19.67460937 -0.3515625 18.33984375 C-0.31814366 16.97655176 -0.28428391 15.61327051 -0.25 14.25 C-0.22992707 12.87111936 -0.21167767 11.49221088 -0.1953125 10.11328125 C-0.14815448 6.74148256 -0.08234538 3.37109313 0 0 Z " fill="#631ABA" transform="translate(222,200)"/>
<path d="M0 0 C0.66 0.33 1.32 0.66 2 1 C2 10.24 2 19.48 2 29 C-3 27 -3 27 -5 25 C-3.02 25.33 -1.04 25.66 1 26 C0.67 25.01 0.34 24.02 0 23 C-0.08209792 21.22686149 -0.10746294 19.45079225 -0.09765625 17.67578125 C-0.09282227 16.13374023 -0.09282227 16.13374023 -0.08789062 14.56054688 C-0.07951172 13.48869141 -0.07113281 12.41683594 -0.0625 11.3125 C-0.05798828 10.22904297 -0.05347656 9.14558594 -0.04882812 8.02929688 C-0.03703743 5.35280915 -0.02058063 2.67643223 0 0 Z " fill="#FEE8FE" transform="translate(174,171)"/>
<path d="M0 0 C-2.45518735 1.50537035 -4.9138452 3.00444426 -7.375 4.5 C-8.07367188 4.92925781 -8.77234375 5.35851562 -9.4921875 5.80078125 C-14.7734375 9 -14.7734375 9 -17 9 C-16.67 7.68 -16.34 6.36 -16 5 C-15.195625 4.87625 -14.39125 4.7525 -13.5625 4.625 C-12.716875 4.41875 -11.87125 4.2125 -11 4 C-10.67 3.34 -10.34 2.68 -10 2 C-8.68 2 -7.36 2 -6 2 C-6 1.34 -6 0.68 -6 0 C-3 -1 -3 -1 0 0 Z " fill="#6E1CC9" transform="translate(267,197)"/>
<path d="M0 0 C4.08378283 0.74250597 8.01939223 1.82923301 12 3 C11.67 3.99 11.34 4.98 11 6 C12.32 6 13.64 6 15 6 C15 6.66 15 7.32 15 8 C15.66 8 16.32 8 17 8 C17 8.66 17 9.32 17 10 C12.97683781 8.51463956 9.38707358 6.60123107 5.6875 4.4375 C4.61886719 3.81746094 3.55023438 3.19742188 2.44921875 2.55859375 C1.64097656 2.04425781 0.83273438 1.52992187 0 1 C0 0.67 0 0.34 0 0 Z " fill="#6A21CF" transform="translate(245,111)"/>
<path d="M0 0 C2.375 -0.125 2.375 -0.125 5 0 C5.66 0.66 6.32 1.32 7 2 C9.52475462 3.26237731 11.31200466 3.09856404 14.125 3.0625 C15.03507813 3.05347656 15.94515625 3.04445312 16.8828125 3.03515625 C17.58148438 3.02355469 18.28015625 3.01195312 19 3 C16.8125 5.0625 16.8125 5.0625 14 7 C10.21860049 6.6517132 7.44091864 5.331281 4.1875 3.4375 C3.39730469 2.98246094 2.60710937 2.52742187 1.79296875 2.05859375 C1.20128906 1.70925781 0.60960937 1.35992187 0 1 C0 0.67 0 0.34 0 0 Z " fill="#691BCC" transform="translate(231,203)"/>
<path d="M0 0 C0.66 0.33 1.32 0.66 2 1 C-0.76808556 2.65048833 -3.53992091 4.29457318 -6.3125 5.9375 C-7.09818359 6.40607422 -7.88386719 6.87464844 -8.69335938 7.35742188 C-9.8293457 8.0293457 -9.8293457 8.0293457 -10.98828125 8.71484375 C-11.68477783 9.12855225 -12.38127441 9.54226074 -13.09887695 9.96850586 C-15 11 -15 11 -18 12 C-18 11.34 -18 10.68 -18 10 C-13.61538462 7 -13.61538462 7 -11 7 C-11 6.01 -11 5.02 -11 4 C-9.02 4 -7.04 4 -5 4 C-5 3.34 -5 2.68 -5 2 C-2.625 0.9375 -2.625 0.9375 0 0 Z " fill="#6C23CE" transform="translate(220,122)"/>
<path d="M0 0 C-1.32 0.33 -2.64 0.66 -4 1 C-4 1.99 -4 2.98 -4 4 C-8.455 4.495 -8.455 4.495 -13 5 C-12 2 -12 2 -10.3125 0.875 C-6.84783081 -0.43595591 -3.43552788 -1.71776394 0 0 Z " fill="#6C12DC" transform="translate(277,224)"/>
<path d="M0 0 C4.76551013 1.37605916 8.7248553 3.46778066 12.875 6.125 C13.46796875 6.49753906 14.0609375 6.87007813 14.671875 7.25390625 C16.1181343 8.16365 17.55958046 9.08103798 19 10 C17 11 17 11 13.875 10.0625 C12.451875 9.5365625 12.451875 9.5365625 11 9 C11 8.34 11 7.68 11 7 C10.01 7 9.02 7 8 7 C8 6.34 8 5.68 8 5 C6.865625 4.731875 5.73125 4.46375 4.5625 4.1875 C3.386875 3.795625 2.21125 3.40375 1 3 C0.67 2.01 0.34 1.02 0 0 Z " fill="#6C1ECD" transform="translate(118,268)"/>
<path d="M0 0 C2.97 0.495 2.97 0.495 6 1 C6 1.99 6 2.98 6 4 C6.66 4 7.32 4 8 4 C8 4.66 8 5.32 8 6 C9.65 6 11.3 6 13 6 C13 6.99 13 7.98 13 9 C7.68972746 7.53967505 3.53669968 5.01679014 -1 2 C-0.67 1.34 -0.34 0.68 0 0 Z " fill="#F2DAFC" transform="translate(104,257)"/>
<path d="M0 0 C4.04301175 1.48518799 7.61146256 3.42877998 11.3125 5.625 C12.38113281 6.25664062 13.44976562 6.88828125 14.55078125 7.5390625 C15.76314453 8.26222656 15.76314453 8.26222656 17 9 C16.67 9.66 16.34 10.32 16 11 C14.27009975 10.06385433 12.54111304 9.12602042 10.8125 8.1875 C9.84957031 7.66542969 8.88664062 7.14335937 7.89453125 6.60546875 C6.93933594 6.07566406 5.98414063 5.54585937 5 5 C4.05511719 4.48050781 3.11023438 3.96101562 2.13671875 3.42578125 C1.43160156 2.95527344 0.72648437 2.48476562 0 2 C0 1.34 0 0.68 0 0 Z " fill="#6B21CB" transform="translate(256,147)"/>
<path d="M0 0 C0.33 0.99 0.66 1.98 1 3 C-0.62170379 4.00533667 -2.24747237 5.00411907 -3.875 6 C-5.23238281 6.8353125 -5.23238281 6.8353125 -6.6171875 7.6875 C-9 9 -9 9 -11 9 C-11 8.34 -11 7.68 -11 7 C-9.36739286 5.62517293 -7.69774938 4.29352333 -6 3 C-5.34 2.34 -4.68 1.68 -4 1 C-1.875 0.375 -1.875 0.375 0 0 Z " fill="#F4E1F9" transform="translate(193,265)"/>
<path d="M0 0 C1.8125 1.5625 1.8125 1.5625 3 3 C1 4 1 4 -2 4 C-2 4.66 -2 5.32 -2 6 C-3.32 5.67 -4.64 5.34 -6 5 C-6 4 -6 3 -6 2 C-6.99 1.67 -7.98 1.34 -9 1 C-5.66508718 -1.09975992 -3.74008367 -1.24669456 0 0 Z " fill="#F4E3FD" transform="translate(160,162)"/>
<path d="M0 0 C5.5952381 0.5952381 5.5952381 0.5952381 8 3 C5.6875 4.5625 5.6875 4.5625 3 6 C2.01 5.67 1.02 5.34 0 5 C-0.75 3 -0.75 3 -1 1 C-0.67 0.67 -0.34 0.34 0 0 Z " fill="#680CE0" transform="translate(221,116)"/>
<path d="M0 0 C1.32 0.33 2.64 0.66 4 1 C-0.62 3.64 -5.24 6.28 -10 9 C-10.33 8.34 -10.66 7.68 -11 7 C-10.34 7 -9.68 7 -9 7 C-9 6.34 -9 5.68 -9 5 C-8.34 5 -7.68 5 -7 5 C-7 4.34 -7 3.68 -7 3 C-5.5459375 2.5359375 -5.5459375 2.5359375 -4.0625 2.0625 C-1.15934208 1.30476658 -1.15934208 1.30476658 0 0 Z " fill="#F3DBFD" transform="translate(178,274)"/>
<path d="M0 0 C-0.33 0.99 -0.66 1.98 -1 3 C-1.66 3 -2.32 3 -3 3 C-3 3.66 -3 4.32 -3 5 C-2.34 5.33 -1.68 5.66 -1 6 C-3.31 6.66 -5.62 7.32 -8 8 C-6.52980132 2.36423841 -6.52980132 2.36423841 -4 0.625 C-2 0 -2 0 0 0 Z " fill="#F1E7F6" transform="translate(214,128)"/>
<path d="M0 0 C1.32 0.33 2.64 0.66 4 1 C2.7934375 1.4021875 2.7934375 1.4021875 1.5625 1.8125 C0.716875 2.204375 -0.12875 2.59625 -1 3 C-1.33 3.99 -1.66 4.98 -2 6 C-3.32 5.67 -4.64 5.34 -6 5 C-6 4.67 -6 4.34 -6 4 C-6.66 4 -7.32 4 -8 4 C-8 3.01 -8 2.02 -8 1 C-5.36 1.33 -2.72 1.66 0 2 C0 1.34 0 0.68 0 0 Z " fill="#6805E6" transform="translate(203,129)"/>
<path d="M0 0 C-1.5506316 1.03877263 -3.11609681 2.05542555 -4.6875 3.0625 C-5.55761719 3.63097656 -6.42773438 4.19945312 -7.32421875 4.78515625 C-10.46607485 6.21160478 -11.78417046 6.13403188 -15 5 C-15.66 4.34 -16.32 3.68 -17 3 C-14.03 3 -11.06 3 -8 3 C-8 2.34 -8 1.68 -8 1 C-2.25 -1.125 -2.25 -1.125 0 0 Z " fill="#671EC7" transform="translate(168,254)"/>
<path d="M0 0 C1.79398267 0.95399078 3.58511655 1.91334026 5.375 2.875 C6.37273437 3.40867188 7.37046875 3.94234375 8.3984375 4.4921875 C11 6 11 6 13 8 C11.68 8.33 10.36 8.66 9 9 C9 8.34 9 7.68 9 7 C8.2575 6.71125 7.515 6.4225 6.75 6.125 C4.43260203 5.17697356 2.22082885 4.15154089 0 3 C0 2.01 0 1.02 0 0 Z " fill="#F0D6FB" transform="translate(140,251)"/>
<path d="M0 0 C-2.28874173 1.33858524 -4.58069656 2.67101014 -6.875 4 C-7.52597656 4.3815625 -8.17695313 4.763125 -8.84765625 5.15625 C-13.7734375 8 -13.7734375 8 -16 8 C-16 7.34 -16 6.68 -16 6 C-13.36 4.68 -10.72 3.36 -8 2 C-8 1.34 -8 0.68 -8 0 C-4.71303767 -0.79953138 -3.28976808 -1.09658936 0 0 Z " fill="#691ECE" transform="translate(184,245)"/>
<path d="M0 0 C7.0848329 0.66838046 7.0848329 0.66838046 10 4 C11.0209375 4.2165625 11.0209375 4.2165625 12.0625 4.4375 C14 5 14 5 15.25 7.0625 C15.4975 7.701875 15.745 8.34125 16 9 C12.20950293 7.57250019 8.72877544 5.83763458 5.1875 3.875 C4.21167969 3.33617188 3.23585938 2.79734375 2.23046875 2.2421875 C1.49441406 1.83226563 0.75835937 1.42234375 0 1 C0 0.67 0 0.34 0 0 Z " fill="#7226CC" transform="translate(267,124)"/>
<path d="M0 0 C1.98270912 0.95098266 3.96108379 1.91100703 5.9375 2.875 C7.03964844 3.40867187 8.14179687 3.94234375 9.27734375 4.4921875 C12 6 12 6 13 8 C11.20275237 7.63033201 9.41214422 7.2282752 7.625 6.8125 C6.62726563 6.59207031 5.62953125 6.37164062 4.6015625 6.14453125 C2 5 2 5 0.6484375 2.38671875 C0.43445313 1.59910156 0.22046875 0.81148438 0 0 Z " fill="#691ACA" transform="translate(105,260)"/>
<path d="M0 0 C0.66 0 1.32 0 2 0 C2 0.66 2 1.32 2 2 C3.65 1.67 5.3 1.34 7 1 C5.6875 2.5 5.6875 2.5 4 4 C3.01 4 2.02 4 1 4 C1 4.66 1 5.32 1 6 C-0.32 5.34 -1.64 4.68 -3 4 C-1.625 2 -1.625 2 0 0 Z " fill="#6705EC" transform="translate(214,120)"/>
<path d="M0 0 C-6.93 3.465 -6.93 3.465 -14 7 C-13 4 -13 4 -11 2.9375 C-10.34 2.628125 -9.68 2.31875 -9 2 C-8.67 1.34 -8.34 0.68 -8 0 C-4.71272146 -1.24689876 -3.63194861 -0.90798715 0 0 Z " fill="#6E25CC" transform="translate(244,111)"/>
<path d="M0 0 C-0.875 3.875 -0.875 3.875 -2 5 C-4.33297433 5.04092937 -6.66705225 5.04241723 -9 5 C-6.45523312 2.20075644 -3.92372883 0 0 0 Z " fill="#F2DDF9" transform="translate(176,250)"/>
<path d="M0 0 C3.3125 -0.25 3.3125 -0.25 7 0 C8.9375 1.875 8.9375 1.875 10 4 C10 4.66 10 5.32 10 6 C6.40992874 4.66654496 3.20429093 3.1056769 0 1 C0 0.67 0 0.34 0 0 Z " fill="#F3DDFC" transform="translate(253,144)"/>
<path d="M0 0 C2.64 0.33 5.28 0.66 8 1 C7.67 1.99 7.34 2.98 7 4 C4.36 4 1.72 4 -1 4 C-0.67 2.68 -0.34 1.36 0 0 Z " fill="#6607DF" transform="translate(240,107)"/>
<path d="M0 0 C0.66 0.33 1.32 0.66 2 1 C1.01 1.33 0.02 1.66 -1 2 C-1.309375 2.639375 -1.61875 3.27875 -1.9375 3.9375 C-3.25613543 6.49720408 -4.29687811 7.09895937 -7 8 C-7.99 7.67 -8.98 7.34 -10 7 C-5.375 3 -5.375 3 -2 3 C-2 2.34 -2 1.68 -2 1 C-1.34 0.67 -0.68 0.34 0 0 Z " fill="#6A05E7" transform="translate(206,262)"/>
<path d="M0 0 C6.435 2.97 6.435 2.97 13 6 C13 6.33 13 6.66 13 7 C10.03 6.67 7.06 6.34 4 6 C4 5.01 4 4.02 4 3 C2.68 2.67 1.36 2.34 0 2 C0 1.34 0 0.68 0 0 Z " fill="#6E21D1" transform="translate(232,233)"/>
<path d="M0 0 C4.30764815 1.56641751 8.06171464 3.68336156 12 6 C9 7 9 7 6.9921875 6.328125 C6.29351562 5.97234375 5.59484375 5.6165625 4.875 5.25 C4.17117187 4.90453125 3.46734375 4.5590625 2.7421875 4.203125 C1 3 1 3 0 0 Z " fill="#EED2FC" transform="translate(224,200)"/>
<path d="M0 0 C4.50802601 1.25805377 7.4912812 2.90407165 11 6 C8.04725901 6 6.50941597 5.56108169 3.8125 4.5 C3.09707031 4.2215625 2.38164062 3.943125 1.64453125 3.65625 C1.10183594 3.4396875 0.55914062 3.223125 0 3 C0 2.01 0 1.02 0 0 Z " fill="#F3DAFE" transform="translate(163,165)"/>
<path d="M0 0 C-1.6188996 1.03048037 -3.24532489 2.04914678 -4.875 3.0625 C-5.77992188 3.63097656 -6.68484375 4.19945312 -7.6171875 4.78515625 C-8.40351563 5.18605469 -9.18984375 5.58695313 -10 6 C-10.66 5.67 -11.32 5.34 -12 5 C-8.94422918 0.41634377 -5.36328527 -1.7181087 0 0 Z " fill="#F4DAFD" transform="translate(234,145)"/>
<path d="M0 0 C2.64 0.33 5.28 0.66 8 1 C8.33 2.32 8.66 3.64 9 5 C5.51694958 4.35499066 2.93797836 2.95865224 0 1 C0 0.67 0 0.34 0 0 Z " fill="#6B15D8" transform="translate(223,198)"/>
<path d="M0 0 C1.98270912 0.95098266 3.96108379 1.91100703 5.9375 2.875 C7.03964844 3.40867187 8.14179688 3.94234375 9.27734375 4.4921875 C12 6 12 6 13 8 C8.77096401 6.69101267 4.83550432 5.22994437 1 3 C0.67 2.01 0.34 1.02 0 0 Z " fill="#681DC6" transform="translate(138,279)"/>
<path d="M0 0 C0.99 0.33 1.98 0.66 3 1 C3.33 2.98 3.66 4.96 4 7 C1.08482708 5.92598892 -0.77810176 5.22189824 -3 3 C-2.01 2.01 -1.02 1.02 0 0 Z " fill="#F3DFFC" transform="translate(125,266)"/>
<path d="M0 0 C2.33944736 0.28730055 4.6739143 0.61936779 7 1 C7.33 1.99 7.66 2.98 8 4 C7.34 4 6.68 4 6 4 C6 3.34 6 2.68 6 2 C5.01 2.66 4.02 3.32 3 4 C2.01 4 1.02 4 0 4 C-0.33 3.01 -0.66 2.02 -1 1 C-0.67 0.67 -0.34 0.34 0 0 Z " fill="#6A05E8" transform="translate(154,192)"/>
<path d="M0 0 C3.96 1.98 7.92 3.96 12 6 C8 7 8 7 5.859375 6.07421875 C5.16328125 5.61660156 4.4671875 5.15898438 3.75 4.6875 C3.04359375 4.23761719 2.3371875 3.78773437 1.609375 3.32421875 C1.07828125 2.88722656 0.5471875 2.45023437 0 2 C0 1.34 0 0.68 0 0 Z " fill="#F2DAFE" transform="translate(252,116)"/>
<path d="M0 0 C0.99 0.66 1.98 1.32 3 2 C-1.55426184 4.66590937 -4.73946963 5.31563182 -10 5 C-9.360625 4.690625 -8.72125 4.38125 -8.0625 4.0625 C-6.06389179 3.1654837 -6.06389179 3.1654837 -5 2 C-3.33382885 1.95936168 -1.66611905 1.957279 0 2 C0 1.34 0 0.68 0 0 Z " fill="#F7E3FC" transform="translate(164,282)"/>
<path d="M0 0 C0.33 0.66 0.66 1.32 1 2 C0.67 2.99 0.34 3.98 0 5 C-1.875 5.8125 -1.875 5.8125 -4 6 C-4.99 5.34 -5.98 4.68 -7 4 C-4.69 2.68 -2.38 1.36 0 0 Z " fill="#F5E1FC" transform="translate(261,200)"/>
<path d="M0 0 C-4.95 2.475 -4.95 2.475 -10 5 C-10 3.68 -10 2.36 -10 1 C-5.8922935 -0.58706842 -4.40767604 -1.10191901 0 0 Z " fill="#7023C9" transform="translate(155,162)"/>
<path d="M0 0 C0.66 0.33 1.32 0.66 2 1 C1.54625 1.598125 1.0925 2.19625 0.625 2.8125 C-0.63295913 4.50590652 -1.82984724 6.24477086 -3 8 C-3.66 6.35 -4.32 4.7 -5 3 C-4.34 3 -3.68 3 -3 3 C-3 2.34 -3 1.68 -3 1 C-2.01 0.67 -1.02 0.34 0 0 Z " fill="#6507E1" transform="translate(226,150)"/>
<path d="M0 0 C0.66 0.33 1.32 0.66 2 1 C0.02 1.99 0.02 1.99 -2 3 C-2 3.99 -2 4.98 -2 6 C-3.98 6 -5.96 6 -8 6 C-5.63404067 3.38499232 -3.13950774 1.61000397 0 0 Z " fill="#7024CD" transform="translate(168,282)"/>
<path d="M0 0 C0.99 0.33 1.98 0.66 3 1 C3 1.66 3 2.32 3 3 C3.99 3.66 4.98 4.32 6 5 C6 5.66 6 6.32 6 7 C2.08597051 5.73058503 0.20927127 4.48832306 -2 1 C-1.34 0.67 -0.68 0.34 0 0 Z " fill="#6C15DC" transform="translate(142,248)"/>
<path d="M0 0 C1.98 0.99 1.98 0.99 4 2 C4 2.66 4 3.32 4 4 C4.99 4 5.98 4 7 4 C6.67 4.99 6.34 5.98 6 7 C3.5625 6.3125 3.5625 6.3125 1 5 C0.1875 2.375 0.1875 2.375 0 0 Z " fill="#6904E2" transform="translate(122,271)"/>
<path d="M0 0 C0.33 0.66 0.66 1.32 1 2 C2.66072849 2.68132451 4.327767 3.34742127 6 4 C6.66 4.66 7.32 5.32 8 6 C6.25 6.75 6.25 6.75 4 7 C1.75 5.25 1.75 5.25 0 3 C0 2.01 0 1.02 0 0 Z " fill="#F6DEFD" transform="translate(124,241)"/>
<path d="M0 0 C0.33 0.66 0.66 1.32 1 2 C-0.07107117 2.86949317 -1.15745944 3.72014205 -2.25 4.5625 C-2.85328125 5.03816406 -3.4565625 5.51382813 -4.078125 6.00390625 C-6 7 -6 7 -10 6 C-6.7 4.02 -3.4 2.04 0 0 Z " fill="#732CD1" transform="translate(142,197)"/>
<path d="M0 0 C-4.95 2.475 -4.95 2.475 -10 5 C-9.67 3.68 -9.34 2.36 -9 1 C-5.31975221 -1.08878929 -4.24507101 -1.06126775 0 0 Z " fill="#6E22CA" transform="translate(117,184)"/>
<path d="M0 0 C0.66 0 1.32 0 2 0 C2 1.98 2 3.96 2 6 C-0.91517292 4.92598892 -2.77810176 4.22189824 -5 2 C-2.03 2.495 -2.03 2.495 1 3 C0.67 2.01 0.34 1.02 0 0 Z " fill="#F4DBFE" transform="translate(174,194)"/>
<path d="M0 0 C-0.33 0.99 -0.66 1.98 -1 3 C-3.06640625 3.73046875 -3.06640625 3.73046875 -5.5625 4.1875 C-6.38878906 4.34605469 -7.21507813 4.50460938 -8.06640625 4.66796875 C-9.02353516 4.83232422 -9.02353516 4.83232422 -10 5 C-8.73223544 2.46447088 -7.53176935 2.15080425 -5 1 C-3 0 -3 0 0 0 Z " fill="#640BD8" transform="translate(133,172)"/>
<path d="M0 0 C0 0.99 0 1.98 0 3 C-2.5 4.6875 -2.5 4.6875 -5 6 C-5.66 5.34 -6.32 4.68 -7 4 C-4.69 2.68 -2.38 1.36 0 0 Z " fill="#ECD2FA" transform="translate(233,116)"/>
<path d="M0 0 C2.64 0.33 5.28 0.66 8 1 C8 1.99 8 2.98 8 4 C5.69 3.67 3.38 3.34 1 3 C0.67 2.01 0.34 1.02 0 0 Z " fill="#6B19CB" transform="translate(152,287)"/>
<path d="M0 0 C0.66 0.33 1.32 0.66 2 1 C1.67 1.99 1.34 2.98 1 4 C-0.98 4 -2.96 4 -5 4 C-5 3.34 -5 2.68 -5 2 C-2.625 0.9375 -2.625 0.9375 0 0 Z " fill="#6509DA" transform="translate(250,236)"/>
<path d="M0 0 C1.4835001 0.42257276 2.96176424 0.86356322 4.4375 1.3125 C5.67306641 1.67794922 5.67306641 1.67794922 6.93359375 2.05078125 C7.61550781 2.36402344 8.29742187 2.67726562 9 3 C9.33 3.99 9.66 4.98 10 6 C6.40992874 4.66654496 3.20429093 3.1056769 0 1 C0 0.67 0 0.34 0 0 Z " fill="#702BCD" transform="translate(289,136)"/>
<path d="M0 0 C0.66 0.33 1.32 0.66 2 1 C-0.06756277 3.7972908 -1.14440371 4.02692273 -4.6875 4.6875 C-5.780625 4.790625 -6.87375 4.89375 -8 5 C-7.67 4.34 -7.34 3.68 -7 3 C-5.68 3 -4.36 3 -3 3 C-3 2.34 -3 1.68 -3 1 C-2.01 0.67 -1.02 0.34 0 0 Z " fill="#6605E6" transform="translate(177,279)"/>
<path d="M0 0 C0.66 0.33 1.32 0.66 2 1 C-0.97 3.475 -0.97 3.475 -4 6 C-4.99 5.34 -5.98 4.68 -7 4 C-1.7265625 0.77734375 -1.7265625 0.77734375 0 0 Z " fill="#E9CAFA" transform="translate(163,256)"/>
<path d="M0 0 C-3.96 1.98 -3.96 1.98 -8 4 C-8.33 3.01 -8.66 2.02 -9 1 C-3.375 -1.125 -3.375 -1.125 0 0 Z " fill="#F3D9FD" transform="translate(297,209)"/>
<path d="M0 0 C1.65 0 3.3 0 5 0 C5 0.66 5 1.32 5 2 C3.02 2.66 1.04 3.32 -1 4 C-0.67 2.68 -0.34 1.36 0 0 Z " fill="#6A19D6" transform="translate(251,202)"/>
<path d="M0 0 C0.99 0.33 1.98 0.66 3 1 C0.36 2.65 -2.28 4.3 -5 6 C-5.33 5.01 -5.66 4.02 -6 3 C-5.195625 2.690625 -4.39125 2.38125 -3.5625 2.0625 C-1.10919595 1.23664655 -1.10919595 1.23664655 0 0 Z " fill="#6213D0" transform="translate(104,188)"/>
</svg>
