<?xml version="1.0" encoding="UTF-8"?>
<svg version="1.1" xmlns="http://www.w3.org/2000/svg" width="400" height="400">
<path d="M0 0 C132 0 264 0 400 0 C400 132 400 264 400 400 C268 400 136 400 0 400 C0 268 0 136 0 0 Z " fill="#0B53BF" transform="translate(0,0)"/>
<path d="M0 0 C24.84045107 3.54863587 47.14633801 17.88653958 65 35 C65.80824219 35.74507812 66.61648438 36.49015625 67.44921875 37.2578125 C85.42255436 54.35646459 97.44195268 77.04423435 104.3125 100.6875 C104.55500488 101.51773682 104.79750977 102.34797363 105.04736328 103.20336914 C108.19806668 114.58486768 109.37018894 125.83667625 109.3125 137.625 C109.30686035 138.84703125 109.3012207 140.0690625 109.29541016 141.328125 C108.79778959 178.77284124 94.10495873 213.26789511 68 240 C67.28585937 240.77601563 66.57171875 241.55203125 65.8359375 242.3515625 C49.83875545 259.30737718 26.59496673 272.38516433 4 278 C2.68 278 1.36 278 0 278 C0 270.08 0 262.16 0 254 C1.588125 253.38125 3.17625 252.7625 4.8125 252.125 C37.11700625 238.547191 62.3649097 216.61836696 75.92285156 183.76367188 C81.77088529 168.58647499 84.2319118 153.92487198 84.3125 137.6875 C84.31813965 136.61435547 84.3237793 135.54121094 84.32958984 134.43554688 C84.22949533 123.4081855 82.43522912 113.17524043 78.875 102.75 C78.56933105 101.85031494 78.26366211 100.95062988 77.94873047 100.02368164 C66.73379312 67.99438842 43.67361672 44.48513996 13.546875 29.60546875 C9.09478936 27.59026258 4.53740417 25.81496167 0 24 C0 16.08 0 8.16 0 0 Z " fill="#FCFDFE" transform="translate(234,60)"/>
<path d="M0 0 C0 7.92 0 15.84 0 24 C-3.17625 25.299375 -6.3525 26.59875 -9.625 27.9375 C-40.85810044 41.11939336 -63.22341541 64.71708957 -76.56640625 95.62890625 C-79.85607872 104.26061402 -81.49882573 112.92195291 -83 122 C-83.26018921 123.19012695 -83.26018921 123.19012695 -83.52563477 124.40429688 C-88.66915525 152.54938684 -79.18444152 183.59833773 -63.625 206.9375 C-46.72485883 230.06864974 -26.11077177 243.18488743 0 254 C0 261.92 0 269.84 0 278 C-5.73205895 277.28349263 -10.2009242 276.52179224 -15.4375 274.5 C-16.46012939 274.10796387 -16.46012939 274.10796387 -17.50341797 273.70800781 C-35.39471034 266.61677266 -51.11726124 256.30716916 -65 243 C-65.80824219 242.25492188 -66.61648437 241.50984375 -67.44921875 240.7421875 C-91.91501576 217.46703367 -108.29664541 181.40086063 -109.30078125 147.58984375 C-109.31992638 145.37247504 -109.32341616 143.15492449 -109.3125 140.9375 C-109.30831055 139.76082764 -109.30412109 138.58415527 -109.29980469 137.37182617 C-109.1712497 127.33701509 -108.08601798 117.80133368 -106 108 C-105.86609863 107.31969727 -105.73219727 106.63939453 -105.59423828 105.93847656 C-103.3323754 94.57158746 -99.07150892 84.38783153 -94 74 C-93.505 72.98035156 -93.01 71.96070313 -92.5 70.91015625 C-86.40105488 59.11077663 -78.16304484 48.5593703 -69 39 C-68.25492188 38.19175781 -67.50984375 37.38351563 -66.7421875 36.55078125 C-51.41988588 20.44466552 -23.1030324 0 0 0 Z " fill="#FCFDFE" transform="translate(164,60)"/>
<path d="M0 0 C7.92 0 15.84 0 24 0 C24 6.27 24 12.54 24 19 C26.64 19.66 29.28 20.32 32 21 C44.3785331 25.70347797 51.22673144 33.23316339 56.6875 44.92578125 C59.05659536 50.47482306 59 52.24410896 59 59 C51.08 59 43.16 59 35 59 C33.68 55.37 32.36 51.74 31 48 C25.88000932 42.5955654 21.31355688 40.06186549 13.7578125 39.6640625 C12.21366826 39.64038738 10.66932357 39.62757817 9.125 39.625 C7.97837891 39.58826172 7.97837891 39.58826172 6.80859375 39.55078125 C0.38961376 39.51808695 -4.77290367 41.19156424 -9.66357422 45.44775391 C-12.47471769 48.71287085 -12.40809174 52.61379058 -12.328125 56.71875 C-11.90756842 59.64261955 -10.79373258 61.63306955 -8.72094727 63.73901367 C-1.82980656 68.78834574 7.39651474 70.15422396 15.5625 71.875 C49.67283557 79.4596299 49.67283557 79.4596299 57.8984375 90.5625 C64.0642859 100.52048991 64.67192876 111.7612185 62.3515625 123.1953125 C58.89897965 132.60876487 51.70877325 139.35095563 43 144 C36.39959451 147.00306564 31.32974204 149 24 149 C24 155.27 24 161.54 24 168 C16.08 168 8.16 168 0 168 C0 161.73 0 155.46 0 149 C-1.711875 148.814375 -3.42375 148.62875 -5.1875 148.4375 C-16.57973275 146.55002949 -27.37270066 140.27820204 -34.125 130.875 C-39.14812977 122.9305237 -41 116.44922024 -41 107 C-33.08 107 -25.16 107 -17 107 C-16.01 109.97 -15.02 112.94 -14 116 C-9.66995311 122.14262466 -5.05888424 125.7048561 2.2734375 127.58203125 C13.00134047 129.22656652 25.6254767 129.22891846 34.8125 122.71484375 C38.07346913 119.3890258 38.89191551 115.58838125 39.1171875 111.10546875 C38.93331253 107.80184849 38.2887487 106.42338097 36 104 C28.27170828 98.3045824 18.83869181 96.66052561 9.6875 94.5 C-24.14980684 86.45586042 -24.14980684 86.45586042 -33.80859375 71.2109375 C-38.34739342 62.78811582 -38.4380185 52.38927982 -36.34765625 43.1015625 C-32.05345702 32.59643993 -23.02153982 25.50563449 -12.9375 21.0390625 C-8.58519327 19.49954975 -4.6002764 19.20001202 0 19 C0 12.73 0 6.46 0 0 Z " fill="#FCFDFE" transform="translate(187,115)"/>
</svg>
