<?xml version="1.0" encoding="UTF-8"?>
<svg version="1.1" xmlns="http://www.w3.org/2000/svg" width="400" height="400">
<path d="M0 0 C132 0 264 0 400 0 C400 132 400 264 400 400 C268 400 136 400 0 400 C0 268 0 136 0 0 Z " fill="#009393" transform="translate(0,0)"/>
<path d="M0 0 C0.98473106 -0.00573832 0.98473106 -0.00573832 1.98935568 -0.01159257 C4.19339372 -0.02192726 6.39717148 -0.0179296 8.60122681 -0.01396179 C10.17974591 -0.01830806 11.7582629 -0.02349092 13.33677673 -0.02944946 C17.62814396 -0.04286103 21.91942322 -0.04341566 26.21080732 -0.04088616 C29.79185181 -0.03981775 33.3728784 -0.04469658 36.95391905 -0.04949158 C45.4022865 -0.06059458 53.85060949 -0.06101996 62.29898071 -0.05497742 C71.01667421 -0.04893812 79.73420628 -0.06124568 88.45187223 -0.08254749 C95.9339127 -0.10015828 103.41590177 -0.10616561 110.89796221 -0.10290974 C115.36775322 -0.10109565 119.83742913 -0.10374545 124.30720139 -0.11762428 C128.51135572 -0.13018927 132.71525838 -0.1282712 136.9194088 -0.11521339 C138.4621419 -0.11284502 140.00489263 -0.11559165 141.54760551 -0.12383652 C143.65450688 -0.13428427 145.76056077 -0.12622016 147.86743164 -0.11352539 C149.63557755 -0.113777 149.63557755 -0.113777 151.43944359 -0.1140337 C155.54629961 0.37902508 158.26099875 1.79984682 161.00991821 4.88960266 C164.71175491 10.67007321 168.03612783 16.63579106 171.33828735 22.65010071 C174.85342861 29.03911178 178.49663689 35.34573068 182.18569946 41.63569641 C187.61311872 50.89783682 192.98282385 60.1910753 198.31069946 69.51069641 C198.66094177 70.12241699 199.01118408 70.73413757 199.37203979 71.36439514 C200.36845261 73.10516447 201.36305016 74.84697246 202.35757446 76.58882141 C203.2136731 78.08783997 203.2136731 78.08783997 204.08706665 79.61714172 C206.99328363 84.83061381 208.27783571 87.20021554 206.56069946 93.26069641 C201.98051968 99.49318839 196.08936614 104.87880555 190.62710571 110.32710266 C189.79033798 111.16482712 188.95357025 112.00255157 188.09144592 112.86566162 C186.33201843 114.62576576 184.57134293 116.38462318 182.80947876 118.14228821 C180.13100535 120.81540613 177.45791073 123.49381892 174.78530884 126.17280579 C173.06622831 127.89122544 171.34683757 129.60933483 169.62710571 131.32710266 C168.83727798 132.11895462 168.04745026 132.91080658 167.23368835 133.72665405 C163.87535568 137.07101385 160.51308696 140.34762704 156.90029907 143.41670227 C151.00020358 148.5036836 145.59470905 154.11718508 140.10684204 159.63938904 C138.02292113 161.73620857 135.93577437 163.82977008 133.84780884 165.92256165 C129.41594253 170.36579124 124.98802616 174.81294403 120.56069946 179.26069641 C115.4256088 184.41947805 110.28886296 189.57658893 105.14785767 194.72947693 C103.10305183 196.7807109 101.06130882 198.83495932 99.01968384 200.88935852 C86.46768618 213.49177734 86.46768618 213.49177734 80.56069946 218.26069641 C79.90134399 218.80411682 79.24198853 219.34753723 78.56265259 219.90742493 C75.46736294 221.99976524 73.20825163 221.70091822 69.56069946 221.26069641 C65.46514733 218.82408941 62.12905763 216.07223016 58.78384399 212.69502258 C57.88916412 211.79696396 56.99448425 210.89890533 56.07269287 209.97363281 C55.1129389 209.00033688 54.15321263 208.02701365 53.19351196 207.05366516 C52.19043746 206.0443067 51.186837 205.03547068 50.18273926 204.02713013 C47.54791882 201.37906019 44.91872819 198.7254779 42.29116821 196.07020569 C38.09522366 191.83103193 33.89257507 187.59853434 29.68645859 183.36945534 C28.23069208 181.90360287 26.77846778 180.4343114 25.32659912 178.96459961 C21.57667962 175.18749827 17.85250751 171.44110222 13.7953186 167.99311829 C7.95412974 162.98352905 2.62081228 157.43019781 -2.79965782 151.97550392 C-4.86175693 149.90051666 -6.92707287 147.8287787 -8.99320984 145.7578125 C-13.37390449 141.36575685 -17.75063669 136.96976587 -22.12680054 132.57319641 C-27.21168386 127.46466506 -32.29820374 122.35778551 -37.38895607 117.25510216 C-39.41892678 115.21867229 -41.44585183 113.1792443 -43.47267151 111.13967896 C-44.72010698 109.8886102 -45.96768349 108.63768206 -47.21542358 107.38691711 C-48.05325127 106.54133995 -48.05325127 106.54133995 -48.90800476 105.67868042 C-51.26975217 103.31661613 -53.59301692 101.13868511 -56.2150116 99.05749512 C-59.07032087 96.75095305 -60.14068456 94.67810689 -61.43930054 91.26069641 C-61.93602962 86.21970305 -60.8352666 83.54380551 -58.17758179 79.28804016 C-57.8357486 78.73236862 -57.49391541 78.17669708 -57.14172363 77.60418701 C-56.02414369 75.79415618 -54.88824769 73.9964291 -53.75180054 72.19819641 C-52.96614496 70.93349852 -52.1817332 69.66802717 -51.39852905 68.40180969 C-49.82394263 65.86077731 -48.24218318 63.32446871 -46.65316772 60.79243469 C-44.21729936 56.91091271 -41.81005856 53.01202861 -39.40512085 49.11128235 C-37.86711471 46.62000722 -36.3216661 44.13346951 -34.77523804 41.64741516 C-32.26125325 37.59914899 -29.7720929 33.53611834 -27.29086304 29.46772766 C-26.21345978 27.70459058 -25.13575897 25.94163571 -24.0579834 24.1787262 C-23.03376281 22.50056581 -22.01368546 20.81987888 -20.9937439 19.13911438 C-9.29664301 0.01620088 -9.29664301 0.01620088 0 0 Z " fill="#FDFEFE" transform="translate(127.43930053710938,88.73930358886719)"/>
<path d="M0 0 C38.61 0 77.22 0 117 0 C117 7.26 117 14.52 117 22 C102.48 22 87.96 22 73 22 C73 26.95 73 31.9 73 37 C74.28648437 36.97421875 75.57296875 36.9484375 76.8984375 36.921875 C81.89488527 36.92578 86.69425176 37.48087306 91.625 38.25 C92.49237793 38.38494873 93.35975586 38.51989746 94.25341797 38.65893555 C105.8723097 40.54623022 117.47270216 42.58987946 127 50 C128.81457473 53.62914946 128.35581184 57.81541387 128.4375 61.8125 C128.48326172 62.71548828 128.52902344 63.61847656 128.57617188 64.54882812 C128.68607146 71.05201659 128.68607146 71.05201659 126.78491211 73.67895508 C113.34751 85.25353644 89.34941234 86 73 86 C73 98.54 73 111.08 73 124 C63.43 124 53.86 124 44 124 C44 111.46 44 98.92 44 86 C40.37 86 36.74 86 33 86 C19.56797603 84.94867784 -0.02738868 82.97261132 -10 73 C-10.53249596 69.41896465 -10.46307774 65.80357391 -10.5 62.1875 C-10.54125 61.18912109 -10.5825 60.19074219 -10.625 59.16210938 C-10.7012658 52.00742439 -10.7012658 52.00742439 -8.78930664 49.26074219 C4.84182428 37.47845125 27.18127104 38.11425718 44 37 C44 32.05 44 27.1 44 22 C29.48 22 14.96 22 0 22 C0 14.74 0 7.48 0 0 Z " fill="#029393" transform="translate(142,124)"/>
<path d="M0 0 C0 5.28 0 10.56 0 16 C9.57 16 19.14 16 29 16 C29 10.72 29 5.44 29 0 C69.63008151 1.72161362 69.63008151 1.72161362 82 12 C82.33 9.03 82.66 6.06 83 3 C83.33 3 83.66 3 84 3 C84.17499733 6.2284763 84.28106618 9.45572926 84.375 12.6875 C84.42527344 13.59951172 84.47554687 14.51152344 84.52734375 15.45117188 C84.67161804 22.06374359 84.67161804 22.06374359 82.78930664 24.68774414 C69.34980153 36.25196946 45.34380017 37 29 37 C29 49.54 29 62.08 29 75 C19.43 75 9.86 75 0 75 C0 62.46 0 49.92 0 37 C-3.63 37 -7.26 37 -11 37 C-24.43202397 35.94867784 -44.02738868 33.97261132 -54 24 C-54.1953125 21.6171875 -54.1953125 21.6171875 -54.125 18.875 C-54.10695312 17.96492188 -54.08890625 17.05484375 -54.0703125 16.1171875 C-54.04710937 15.41851562 -54.02390625 14.71984375 -54 14 C-53.34 14 -52.68 14 -52 14 C-51.73445312 13.38125 -51.46890625 12.7625 -51.1953125 12.125 C-48.42304226 7.19651958 -41.85938585 5.84523056 -36.73242188 4.39746094 C-24.75899832 1.2419035 -12.36321852 0 0 0 Z " fill="#039494" transform="translate(186,173)"/>
<path d="M0 0 C0 5.28 0 10.56 0 16 C9.57 16 19.14 16 29 16 C29 10.72 29 5.44 29 0 C69.98813581 1.73678542 69.98813581 1.73678542 80.3828125 11.16015625 C80.91648437 11.76730469 81.45015625 12.37445313 82 13 C70.81483472 20.74357596 58.25084677 23.15973011 45 25 C43.98401733 25.14574463 43.98401733 25.14574463 42.94750977 25.29443359 C33.74856574 26.4150048 24.43962808 26.24297696 15.1875 26.25 C14.27026154 26.25100708 13.35302307 26.25201416 12.4079895 26.25305176 C-0.94458788 26.24312213 -13.90731264 25.85450155 -27 23 C-28.10867432 22.77521973 -28.10867432 22.77521973 -29.23974609 22.54589844 C-37.46028035 20.85844076 -44.97899469 18.75868137 -52 14 C-50.35349904 10.1634929 -48.53529888 8.75576329 -44.6953125 7.0078125 C-30.4720077 1.68953331 -15.10697784 0 0 0 Z " fill="#F9FCFC" transform="translate(186,173)"/>
</svg>
